<svg width="33" height="33" viewBox="0 0 33 33" fill="none" xmlns="http://www.w3.org/2000/svg">
<g clip-path="url(#clip0_6_770)">
<mask id="mask0_6_770" style="mask-type:luminance" maskUnits="userSpaceOnUse" x="0" y="0" width="33" height="33">
<path d="M33 0H0V33H33V0Z" fill="white"/>
</mask>
<g mask="url(#mask0_6_770)">
<path d="M12.7188 1.74634C9.11625 1.74634 6.1875 4.67509 6.1875 8.27759C6.1875 11.8801 8.95125 14.6713 12.5538 14.7951C12.6638 14.7813 12.7738 14.7813 12.8563 14.7951H12.9525C16.4725 14.6713 19.2362 11.8113 19.25 8.27759C19.25 4.67509 16.3212 1.74634 12.7188 1.74634Z" fill="#A8A8A8"/>
<path d="M27.83 9.08897C28.05 11.7565 26.1525 14.0939 23.5262 14.4102H23.4575C23.375 14.4102 23.2925 14.4102 23.2237 14.4377C21.89 14.5064 20.6662 14.0802 19.745 13.2965C21.1612 12.0315 21.9725 10.134 21.8075 8.07148C21.7112 6.95773 21.3262 5.94023 20.7487 5.07398C21.2712 4.81273 21.8762 4.64773 22.495 4.59273C25.19 4.35898 27.5962 6.36647 27.83 9.08897Z" fill="#A8A8A8"/>
<path d="M30.58 21.8074C30.47 23.1412 29.6175 24.2962 28.1875 25.0799C26.8125 25.8362 25.08 26.1936 23.3613 26.1524C24.3513 25.2586 24.9288 24.1449 25.0388 22.9624C25.1763 21.2574 24.365 19.6211 22.7425 18.3149C21.8213 17.5861 20.7488 17.0087 19.58 16.5824C22.6188 15.7024 26.4413 16.2937 28.7925 18.1912C30.0575 19.2087 30.7038 20.4874 30.58 21.8074Z" fill="#A8A8A8"/>
<path d="M19.7037 18.4523C15.8675 15.8948 9.61126 15.8948 5.74751 18.4523C4.00126 19.6211 3.03876 21.2023 3.03876 22.8936C3.03876 23.4298 3.14876 23.9386 3.32751 24.4473L3.68501 24.3511C4.38626 24.1448 4.89501 23.6361 5.08751 22.9486L5.44501 21.6423L5.52751 21.4086C5.78876 20.7211 6.44876 20.2673 7.20501 20.2673C7.97501 20.2673 8.59376 20.7348 8.85501 21.4223L9.28126 22.9623C9.46001 23.6498 9.99626 24.1723 10.67 24.3648L12.265 24.8186C12.9525 25.1073 13.365 25.7536 13.365 26.5098C13.365 27.3109 12.8166 27.99 12.0588 28.2286L10.6975 28.5998C10.4363 28.6686 10.2025 28.8061 9.99626 28.9573C10.89 29.1223 11.7975 29.2461 12.7188 29.2461C15.2487 29.2461 17.7787 28.5998 19.7037 27.3073C21.4362 26.1386 22.3987 24.5711 22.3987 22.8661C22.385 21.1748 21.4362 19.6073 19.7037 18.4523Z" fill="#A8A8A8"/>
<path d="M12.0175 26.4687C12.0175 26.565 11.9625 26.785 11.7013 26.8675L10.3538 27.2387C9.185 27.555 8.305 28.435 7.98875 29.6037L7.63125 30.9237C7.54875 31.2262 7.315 31.2537 7.205 31.2537C7.095 31.2537 6.86125 31.2262 6.77875 30.9237L6.42125 29.59C6.105 28.435 5.21125 27.555 4.05625 27.2387L2.7225 26.8812C2.43375 26.7987 2.40625 26.5512 2.40625 26.455C2.40625 26.345 2.43375 26.0975 2.7225 26.015L4.07 25.6575C5.225 25.3275 6.105 24.4475 6.42125 23.2925L6.80625 21.89C6.9025 21.6562 7.1225 21.615 7.205 21.615C7.2875 21.615 7.52125 21.6425 7.60375 21.8625L7.98875 23.2787C8.305 24.4337 9.19875 25.3137 10.3538 25.6437L11.7287 26.0287C12.0037 26.1387 12.0175 26.3862 12.0175 26.4687Z" fill="#A8A8A8"/>
</g>
</g>
<defs>
<clipPath id="clip0_6_770">
<rect width="33" height="33" fill="white"/>
</clipPath>
</defs>
</svg>
