<svg width="36" height="36" viewBox="0 0 36 36" fill="none" xmlns="http://www.w3.org/2000/svg">
<g clip-path="url(#clip0_6_784)">
<mask id="mask0_6_784" style="mask-type:luminance" maskUnits="userSpaceOnUse" x="0" y="0" width="36" height="36">
<path d="M36 0H0V36H36V0Z" fill="white"/>
</mask>
<g mask="url(#mask0_6_784)">
<path d="M30.0751 15.9457L23.0701 12.9308L21.5101 12.2708C21.2701 12.1508 21.0601 11.8358 21.0601 11.5658V6.97582C21.0601 5.53582 19.9951 3.82582 18.7051 3.16582C18.2551 2.94082 17.7151 2.94082 17.2651 3.16582C15.9901 3.82582 14.9251 5.55082 14.9251 6.99082V11.5808C14.9251 11.8508 14.7151 12.1658 14.4751 12.2858L5.92509 15.9607C4.98009 16.3507 4.21509 17.5357 4.21509 18.5557V20.5357C4.21509 21.8107 5.17509 22.4407 6.36009 21.9307L13.8751 18.6907C14.4601 18.4357 14.9401 18.7507 14.9401 19.3957V21.0607V23.7607C14.9401 24.1057 14.7451 24.6007 14.5051 24.8407L11.0251 28.3357C10.6651 28.6957 10.5001 29.4007 10.6651 29.9107L11.3401 31.9507C11.6101 32.8357 12.6151 33.2557 13.4401 32.8357L17.0101 29.8357C17.5501 29.3707 18.4351 29.3707 18.9751 29.8357L22.5451 32.8357C23.3701 33.2407 24.3751 32.8357 24.6751 31.9507L25.3501 29.9107C25.5151 29.4157 25.3501 28.6957 24.9901 28.3357L21.5101 24.8407C21.2551 24.6007 21.0601 24.1057 21.0601 23.7607V19.3957C21.0601 18.7507 21.5251 18.4507 22.1251 18.6907L29.6401 21.9307C30.8251 22.4407 31.7851 21.8107 31.7851 20.5357V18.5557C31.7851 17.5357 31.0201 16.3507 30.0751 15.9457Z" fill="#A8A8A8"/>
</g>
</g>
<defs>
<clipPath id="clip0_6_784">
<rect width="36" height="36" fill="white"/>
</clipPath>
</defs>
</svg>
