<svg width="28" height="28" viewBox="0 0 28 28" fill="none" xmlns="http://www.w3.org/2000/svg">
<mask id="mask0_153_2428" style="mask-type:luminance" maskUnits="userSpaceOnUse" x="0" y="0" width="28" height="28">
<path d="M28 0H0V28H28V0Z" fill="white"/>
</mask>
<g mask="url(#mask0_153_2428)">
<path d="M22.1666 10.4999C22.1666 12.1916 21.665 13.7433 20.8016 15.0383C19.5416 16.9049 17.5466 18.2233 15.225 18.5616C14.8283 18.6316 14.42 18.6666 14 18.6666C13.58 18.6666 13.1716 18.6316 12.775 18.5616C10.4533 18.2233 8.45831 16.9049 7.19831 15.0383C6.33498 13.7433 5.83331 12.1916 5.83331 10.4999C5.83331 5.98492 9.48498 2.33325 14 2.33325C18.515 2.33325 22.1666 5.98492 22.1666 10.4999Z" stroke="#FFC107" stroke-width="1.5" stroke-linecap="round" stroke-linejoin="round"/>
<path d="M24.7917 21.5486L22.8667 22.0036C22.435 22.1086 22.0967 22.4353 22.0033 22.867L21.595 24.582C21.3733 25.5153 20.1833 25.7953 19.565 25.0603L14 18.667L8.43495 25.072C7.81662 25.807 6.62662 25.527 6.40495 24.5936L5.99662 22.8786C5.89162 22.447 5.55328 22.1086 5.13328 22.0153L3.20828 21.5603C2.32162 21.3503 2.00662 20.242 2.64828 19.6003L7.19828 15.0503C8.45828 16.917 10.4533 18.2353 12.775 18.5736C13.1717 18.6436 13.58 18.6786 14 18.6786C14.42 18.6786 14.8283 18.6436 15.225 18.5736C17.5467 18.2353 19.5417 16.917 20.8017 15.0503L25.3517 19.6003C25.9933 20.2303 25.6783 21.3386 24.7917 21.5486Z" stroke="#FFC107" stroke-width="1.5" stroke-linecap="round" stroke-linejoin="round"/>
<path d="M14.6766 6.9765L15.365 8.35316C15.4583 8.53983 15.7033 8.7265 15.925 8.7615L17.1733 8.97149C17.9666 9.09983 18.1533 9.68317 17.5816 10.2548L16.6133 11.2231C16.45 11.3865 16.3566 11.7015 16.415 11.9348L16.695 13.1365C16.9166 14.0815 16.415 14.4548 15.575 13.9532L14.4083 13.2648C14.1983 13.1365 13.8483 13.1365 13.6383 13.2648L12.4716 13.9532C11.6316 14.4432 11.1299 14.0815 11.3516 13.1365L11.6316 11.9348C11.6783 11.7132 11.5966 11.3865 11.4333 11.2231L10.4649 10.2548C9.89328 9.68317 10.0799 9.11149 10.8733 8.97149L12.1217 8.7615C12.3317 8.7265 12.5766 8.53983 12.67 8.35316L13.3583 6.9765C13.6966 6.22984 14.3033 6.22984 14.6766 6.9765Z" stroke="#FFC107" stroke-width="1.5" stroke-linecap="round" stroke-linejoin="round"/>
</g>
</svg>
