<svg width="336" height="172" viewBox="0 0 336 172" fill="none" xmlns="http://www.w3.org/2000/svg">
<g clip-path="url(#clip0_139_1982)">
<path d="M69.1832 72.7531C68.8871 74.9056 68.5552 77.1806 67.7433 79.2005C67.5339 79.6851 67.1254 81.2613 66.5791 81.4806C66.0276 81.7101 65.1238 80.542 64.6694 80.1493C63.4184 79.0781 62.0091 78.2161 60.753 77.1296C59.1649 75.7677 57.3523 74.4516 55.5651 73.3703C55.3915 73.2631 55.2077 73.156 55.0187 73.0642C54.3447 72.7123 53.6094 72.4266 52.8946 72.3552C51.9499 72.2583 51.0308 72.5184 50.3313 73.4621C49.1773 74.9974 49.79 78.2059 50.0505 79.9554C50.076 80.0983 50.0913 80.2411 50.1168 80.389C50.4436 82.6079 50.7909 84.9287 50.2036 87.1068C49.9228 88.178 49.2896 89.1216 48.4369 89.8102C47.9723 90.1979 47.4412 90.4989 46.8591 90.7131C46.3025 90.9171 45.7766 91.0344 45.2813 91.0752C44.1478 91.1824 43.1265 90.9069 42.1155 90.3968C41.5845 90.1316 41.0585 89.8 40.5224 89.4226C40.262 89.244 40.022 89.0553 39.7871 88.8513C38.7965 88.0199 37.9846 87.015 37.2749 85.9336C37.0196 85.5613 36.7847 85.1787 36.56 84.7859C36.0443 83.9137 35.5745 83.0159 35.0997 82.1335C34.7473 81.4704 34.4052 80.7818 34.0784 80.0728C33.6087 79.0628 33.1746 78.0222 32.7713 76.9766C32.3117 75.7983 31.893 74.6098 31.51 73.4621C30.882 71.5442 30.3765 69.5293 29.9016 67.5298C29.7739 66.9942 29.6463 66.4586 29.5237 65.9231C31.1986 66.5607 32.8989 67.1064 34.6963 67.5298C36.7745 68.0246 39.5012 68.147 38.531 65.1732C37.9897 63.5002 36.2383 62.225 34.829 61.215C32.7764 59.7561 30.6573 58.2922 28.3749 57.2312C28.1144 57.1139 27.854 56.9915 27.6038 56.8538C27.5272 56.3284 27.4506 55.7979 27.3894 55.2725C27.1392 53.0486 27.0319 50.845 27.0013 48.6516C28.4974 49.1005 29.9424 49.8656 30.6879 50.5032C31.8164 51.4622 33.4963 53.4821 35.0946 53.0945C37.3668 52.5436 36.2077 50.4879 35.3396 49.2127C34.1346 47.4734 32.2913 46.5807 30.6216 45.3718C30.0344 44.9433 29.4471 44.5455 28.8497 44.1782C27.7366 43.4896 27.037 42.2858 27.0626 40.98V40.9545C27.129 38.1082 27.1494 34.4152 25.4541 31.9311C25.2754 31.6608 25.0661 31.4006 24.8414 31.1609C23.9989 30.2734 23.0542 29.6357 22.0177 29.0645C22.6049 29.1257 23.2023 29.1971 23.7946 29.2889C28.8855 30.0846 34.0018 32.1352 38.5055 34.5274C38.5208 34.5376 38.5361 34.5478 38.5565 34.5529C39.7309 35.1854 40.4101 36.4556 40.3641 37.7818C40.3488 38.1694 40.3386 38.5571 40.3386 38.9601C40.3386 40.628 39.9913 43.51 41.2628 44.7852C42.7589 46.2747 44.2601 43.3825 44.6839 42.1328C45.0464 41.0667 44.8881 39.9751 44.8473 38.8836C46.757 40.271 48.7586 41.4748 50.6224 42.9591C52.5372 44.5047 54.4673 46.1012 56.3157 47.7284C55.943 49.6973 55.1975 51.6356 54.6409 53.5331C53.7218 56.6599 51.7968 60.052 52.9712 63.3726C53.5941 65.1273 54.5132 66.0812 56.3668 65.4283C58.0978 64.8213 58.9403 63.4389 59.5224 61.7914C60.3751 59.3889 60.3394 57.0476 60.4568 54.5482C60.4976 53.676 60.4721 52.8088 60.4211 51.9468C61.2176 52.5181 61.9989 53.1149 62.7801 53.7219C64.506 55.0787 66.9774 56.1295 68.2079 57.9811C69.0913 59.3073 69.3721 61.4445 69.5713 63.0003C70.0053 66.3362 69.6377 69.4324 69.1883 72.7429L69.1832 72.7531Z" fill="#E26B6D"/>
<path d="M59.7062 84.378C58.0876 81.8837 55.3302 85.184 54.6715 86.8672C53.3899 90.1369 53.1754 97.5331 53.5533 99.5632C53.0784 99.0225 52.5831 98.492 52.0725 97.9717C51.1228 97.0128 50.1781 96.0538 49.2335 95.0898C50.4079 93.3606 53.0886 89.8002 52.5116 83.4701C52.4146 82.4091 52.19 81.0013 51.1279 80.4759C49.6471 79.7465 49.3458 81.4603 49.1824 82.5468C48.9067 84.4086 48.391 90.8459 47.9876 93.8248C46.0932 91.9017 44.1988 89.9736 42.2942 88.0608C43.8925 84.3474 45.8124 79.8332 44.5205 75.7372C43.678 73.0542 41.4262 74.9619 40.793 76.6044C39.6595 79.5373 39.8535 83.1487 40.5888 86.3571C39.6901 85.4594 38.7863 84.5668 37.8825 83.6792C37.7191 83.516 37.5557 83.363 37.3923 83.1997C38.337 81.445 39.4297 79.8536 39.731 77.8133C40.0271 75.7984 39.348 73.8652 38.2144 72.2227C37.714 71.4984 37.2085 70.5497 36.2588 70.3303C34.9312 70.0243 35.3346 71.529 35.4929 72.4268C35.8247 74.3498 36.0494 76.334 36.172 78.2723C36.2332 79.3435 36.3303 80.3433 36.4885 81.3736C36.5294 81.6389 36.5294 82.001 36.5345 82.3734C35.2324 81.1237 33.8997 79.8944 32.5415 78.6957C33.0113 75.3138 33.5474 71.2179 31.5815 68.1727C30.2897 66.1783 28.8855 68.239 28.7374 69.7182C28.5076 72.0136 29.2072 74.4926 30.2539 76.7115C29.6565 76.2014 29.0489 75.6964 28.4413 75.1965C27.7468 71.2536 26.9452 66.3619 23.6364 63.6942C21.5326 61.9956 20.731 64.7755 21.0884 66.4486C21.4407 68.0911 22.2271 69.6825 23.2432 71.1414C22.9573 70.9271 22.6713 70.718 22.3854 70.5089C21.696 70.0039 20.9965 69.5346 20.2867 69.0857C20.154 65.6682 19.9804 61.511 17.4988 58.8433C15.8801 57.1039 14.8538 59.3789 14.9661 60.8632C15.1448 63.2147 16.3193 65.5968 17.7847 67.6218C16.6614 67.0046 15.5227 66.4282 14.3687 65.8722C13.8326 63.128 13.1637 59.8175 10.8352 57.9812C9.3034 56.7774 8.76215 58.7464 9.03789 59.9297C9.44127 61.6487 10.5187 63.2861 11.8054 64.6684C10.534 64.0767 9.25745 63.4952 7.99112 62.8882C7.33754 61.8068 6.5614 60.7204 5.87207 59.792C5.05509 58.6953 3.97258 57.5987 2.49691 57.563C0.55657 57.5119 0.0255309 58.828 0.939532 60.45C1.35313 61.1897 1.96076 61.715 2.66541 62.1231C1.90459 62.1792 1.17952 62.3883 0.6638 62.7658C0.148078 63.1535 -0.0357429 63.5717 0.0102124 63.9645C0.0765924 64.6327 0.801666 65.2346 1.64929 65.4947C3.14539 65.9589 4.78446 65.556 6.30099 65.4284C6.77075 65.3876 7.25073 65.408 7.72561 65.4488C8.37919 65.4998 9.03789 65.5815 9.68126 65.5968C10.5187 65.9844 11.3612 66.3772 12.1986 66.77C9.93657 66.3772 7.40902 66.3721 5.40741 67.2749C4.29427 67.7748 3.06369 69.402 4.94786 69.8815C7.97581 70.6517 11.1876 68.9633 13.7662 67.683L13.8121 67.5351C14.19 67.7187 14.573 67.9074 14.9559 68.1013C14.9763 68.1115 14.9968 68.1217 15.0172 68.1268C16.9575 69.1112 18.857 70.1722 20.685 71.4117C20.685 71.4117 20.685 71.4117 20.6901 71.4117C19.9038 71.325 19.1225 71.3199 18.3668 71.4219C16.9933 71.6106 15.1193 72.9879 17.0239 74.1203C19.4697 75.574 22.5539 75.3445 25.3418 74.9058C27.609 76.7013 29.8301 78.5682 31.9798 80.4963C29.5238 79.318 26.6694 78.5019 24.0959 78.8589C22.6202 79.063 20.6135 80.5371 22.656 81.7511C25.9341 83.6996 30.2744 82.8325 33.7312 82.2255L33.7874 82.1439C34.7831 83.062 35.7686 84.0006 36.7336 84.9442C37.2085 85.4084 37.6834 85.8777 38.148 86.3469C34.7933 84.6433 30.9177 83.4038 27.4864 83.7404C25.5256 83.9342 22.9215 85.791 25.7146 87.5099C30.1825 90.2593 35.9167 89.3513 40.4969 88.729C41.8194 90.0756 43.1265 91.4274 44.4439 92.7791C40.9922 92.2741 33.9048 90.8051 31.5815 90.5194C30.4939 90.3868 27.9102 90.3613 28.3289 92.1823C28.5638 93.1923 30.4429 94.2328 31.3671 94.5644C33.4249 95.304 41.2781 95.4366 46.4864 94.8602C47.4259 95.8141 48.3757 96.7628 49.3356 97.6912C49.6931 98.0381 50.0352 98.3849 50.3773 98.742C45.3324 97.5484 35.3397 95.8753 32.8325 96.4058C31.556 96.6761 29.5391 97.4412 29.6718 99.0429C29.8097 100.701 32.3066 100.884 33.5576 101.287C36.4324 102.216 45.9196 101.665 47.6608 101.313C49.0088 101.037 50.3466 100.461 51.6589 100.124C51.6691 100.14 51.6845 100.155 51.6998 100.17C52.4351 100.997 53.1295 101.838 53.8035 102.69C53.7218 102.695 53.6401 102.705 53.5533 102.716C49.3254 103.083 40.2926 103.312 37.4077 103.629C36.0698 103.776 32.9653 104.47 33.9814 106.536C34.5431 107.674 37.0911 108.393 38.291 108.53C40.7828 108.816 49.1671 107.061 55.2077 105.072C55.32 105.036 55.4273 105.001 55.5345 104.96C57.6331 107.816 59.5888 110.77 61.7793 113.703C62.438 114.59 63.883 113.641 63.2192 112.754C60.0585 108.515 57.4493 104.083 54.0435 100.099C58.0008 95.3499 60.4466 85.49 59.7164 84.3627L59.7062 84.378Z" fill="#4E8879"/>
<path d="M78.6296 120.727C78.262 121.278 76.7046 120.757 76.0408 120.681C74.223 120.467 72.3848 120.548 70.5568 120.324C68.2488 120.053 65.7672 119.962 63.4439 120.069C63.2142 120.079 62.9793 120.094 62.7444 120.125C61.907 120.212 61.0543 120.405 60.3496 120.783C59.4203 121.278 58.7412 122.089 58.6748 123.394C58.5625 125.527 61.1206 128.103 62.4431 129.551C64.215 131.51 66.1502 133.525 67.0182 136.045C67.6514 137.85 67.3144 139.865 66.1757 141.436C64.4601 143.793 62.2848 144.226 59.5326 144.17C56.0758 144.109 52.9916 142.385 50.0148 140.809C47.0328 139.227 43.9997 137.105 41.3241 135.035C39.0825 133.285 36.9277 131.28 34.8189 129.311C36.7541 128.868 38.6638 128.312 40.5837 127.592C42.8049 126.761 45.3937 125.185 42.6568 123.043C41.125 121.834 38.72 121.747 36.7898 121.686C33.9917 121.609 31.1322 121.573 28.3698 122.012C28.0583 122.068 27.7366 122.114 27.4252 122.135C27.0269 121.701 26.6337 121.262 26.2456 120.808C24.6372 118.911 23.1717 116.952 21.788 114.942C23.4475 114.427 25.2499 114.244 26.3324 114.366C27.9613 114.55 30.7697 115.371 32.0003 114.024C33.7517 112.111 31.4131 110.933 29.8148 110.296C27.6243 109.439 25.3725 109.755 23.0849 109.673C22.2782 109.648 21.4918 109.643 20.7106 109.673C19.2553 109.729 17.8664 109.056 17.0801 107.832L17.0648 107.811C15.3542 105.149 13.082 101.721 9.98255 100.487C9.64554 100.354 9.29832 100.242 8.946 100.165C7.61329 99.8643 6.35208 99.8643 5.03979 99.9766C5.627 99.6654 6.22442 99.3645 6.83205 99.0839C12.0148 96.6661 17.989 95.3909 23.6211 94.8145C23.6466 94.8145 23.6619 94.8145 23.6875 94.8145C25.1631 94.6615 26.5775 95.4164 27.3537 96.6763C27.5783 97.0385 27.8132 97.4057 28.0634 97.7781C29.1 99.3134 30.5654 102.185 32.5313 102.573C33.4964 102.762 33.9815 102.241 34.1959 101.466C34.4972 100.395 34.2674 98.834 34.0376 98.0076C33.8742 97.4006 33.5832 96.865 33.2411 96.3601C32.9041 95.8653 32.5211 95.396 32.1739 94.9165C32.5007 94.9318 32.8224 94.942 33.1491 94.942C35.4367 94.9879 37.7089 94.9114 40.0169 95.1053C40.4101 95.1359 40.7982 95.1767 41.1964 95.2124C43.29 95.4011 45.3988 95.6153 47.477 95.8806C47.7272 95.9061 47.9723 95.9418 48.2174 95.9724C48.3655 96.3193 48.5033 96.6661 48.6259 97.0232C48.8046 97.5027 48.968 97.9872 49.1212 98.4769C49.3561 99.2216 49.5705 99.9714 49.785 100.716C49.9484 101.272 50.1067 101.823 50.2803 102.359C50.3416 102.547 50.3977 102.746 50.4539 102.94C50.7603 104.001 51.0105 105.133 51.3168 106.251C51.9653 108.633 52.8231 110.959 54.8503 112.463C56.5098 113.693 57.9446 113.999 59.2518 112.249C59.5224 111.887 59.7369 111.515 59.8901 111.132C60.2271 110.296 60.2934 109.418 60.2015 108.52C60.1505 108.005 60.0483 107.48 59.9105 106.944C59.2058 104.205 57.7148 102.068 56.2749 99.6909C55.9787 99.2012 55.6673 98.7319 55.3405 98.278C55.1107 97.9515 54.8707 97.6353 54.6307 97.3139C55.0443 97.3292 55.4579 97.3445 55.8817 97.37C56.5557 97.4006 57.2298 97.4414 57.9089 97.4924C58.3684 97.5231 58.8484 97.5333 59.3386 97.5282C59.9054 97.5282 60.4875 97.5027 61.0696 97.4924C62.6321 97.4669 64.2048 97.4924 65.5528 98.0535C67.1919 98.7319 68.7748 100.527 69.9236 101.838C72.3899 104.649 73.9677 107.725 75.6068 111.056C76.674 113.229 77.7769 115.524 78.2773 117.891C78.3896 118.467 78.982 120.176 78.6194 120.717L78.6296 120.727Z" fill="#8D90FF"/>
<path d="M120.837 68.3617C121.133 70.5142 121.465 72.7892 122.277 74.8091C122.486 75.2937 122.895 76.8699 123.441 77.0892C123.993 77.3187 124.896 76.1507 125.351 75.7579C126.602 74.6867 128.011 73.8247 129.267 72.7382C130.855 71.3763 132.668 70.0603 134.455 68.9789C134.629 68.8718 134.813 68.7646 135.002 68.6728C135.676 68.3209 136.411 68.0352 137.126 67.9638C138.07 67.8669 138.989 68.127 139.689 69.0707C140.843 70.606 140.23 73.8145 139.97 75.5641C139.944 75.7069 139.929 75.8497 139.903 75.9976C139.577 78.2165 139.229 80.5374 139.817 82.7103C140.097 83.7815 140.731 84.7251 141.583 85.4138C142.048 85.8014 142.579 86.1024 143.161 86.3166C143.718 86.5206 144.244 86.638 144.739 86.6788C145.873 86.7859 146.894 86.5155 147.905 86.0004C148.436 85.7351 148.962 85.4036 149.498 85.0261C149.758 84.8476 149.998 84.6588 150.233 84.4548C151.224 83.6234 152.036 82.6185 152.745 81.5371C153.001 81.1648 153.236 80.7822 153.46 80.3894C153.976 79.5172 154.446 78.6194 154.921 77.737C155.273 77.0739 155.615 76.3853 155.942 75.6763C156.412 74.6663 156.846 73.6257 157.249 72.5801C157.709 71.4018 158.127 70.2133 158.51 69.0656C159.138 67.1477 159.644 65.1329 160.119 63.1333C160.246 62.5977 160.374 62.0622 160.497 61.5266C158.822 62.1642 157.121 62.71 155.324 63.1333C153.246 63.6281 150.519 63.7505 151.489 60.7767C152.031 59.1037 153.782 57.8285 155.191 56.8185C157.244 55.3597 159.363 53.8957 161.645 52.8348C161.906 52.7174 162.166 52.595 162.416 52.4573C162.493 51.9319 162.57 51.4014 162.631 50.876C162.881 48.6521 162.988 46.4485 163.019 44.2552C161.523 44.704 160.078 45.4692 159.332 46.1068C158.204 47.0657 156.524 49.0856 154.926 48.698C152.654 48.1471 153.813 46.0915 154.681 44.8162C155.886 43.0769 157.729 42.1842 159.399 40.9753C159.986 40.5469 160.573 40.149 161.171 39.7817C162.284 39.0931 162.983 37.8893 162.958 36.5835V36.558C162.891 33.7117 162.871 30.0187 164.566 27.5346C164.745 27.2643 164.954 27.0041 165.179 26.7644C166.021 25.8769 166.966 25.2393 168.003 24.668C167.41 24.7292 166.818 24.8006 166.226 24.8924C161.135 25.6881 156.018 27.7387 151.515 30.131C151.5 30.1412 151.484 30.1514 151.464 30.1565C150.289 30.789 149.61 32.0591 149.656 33.3853C149.672 33.7729 149.682 34.1606 149.682 34.5636C149.682 36.2316 150.029 39.1135 148.758 40.3887C147.261 41.8782 145.76 38.986 145.336 37.7363C144.974 36.6702 145.132 35.5786 145.173 34.4871C143.263 35.8796 141.262 37.0783 139.398 38.5626C137.483 40.1082 135.553 41.7047 133.705 43.3319C134.077 45.3008 134.823 47.2391 135.379 49.1367C136.299 52.2635 138.224 55.6555 137.049 58.9762C136.426 60.7308 135.507 61.6847 133.654 61.0318C131.923 60.4248 131.08 59.0425 130.498 57.3949C129.645 54.9924 129.681 52.6511 129.564 50.1517C129.523 49.2795 129.548 48.4123 129.599 47.5503C128.803 48.1216 128.021 48.7184 127.24 49.3254C125.514 50.6822 123.043 51.733 121.812 53.5846C120.929 54.9108 120.648 57.048 120.449 58.6038C120.015 61.9397 120.383 65.0359 120.832 68.3464L120.837 68.3617Z" fill="#E26B6D"/>
<path d="M130.319 79.9866C131.938 77.4923 134.695 80.7926 135.354 82.4758C136.635 85.7455 136.85 93.1417 136.472 95.1718C136.947 94.6311 137.442 94.1006 137.953 93.5804C138.903 92.6214 139.847 91.6624 140.792 90.6984C139.617 88.9692 136.937 85.4088 137.514 79.0787C137.611 78.0177 137.835 76.6099 138.897 76.0845C140.378 75.3551 140.68 77.069 140.843 78.1554C141.119 80.0172 141.634 86.4545 142.038 89.4334C143.932 87.5104 145.827 85.5822 147.731 83.6694C146.133 79.956 144.213 75.4418 145.505 71.3458C146.347 68.6628 148.599 70.5705 149.232 72.213C150.366 75.146 150.172 78.7573 149.437 81.9658C150.335 81.068 151.239 80.1754 152.143 79.2878C152.306 79.1246 152.47 78.9716 152.633 78.8083C151.688 77.0537 150.596 75.4622 150.294 73.4219C149.998 71.407 150.677 69.4738 151.811 67.8314C152.311 67.107 152.817 66.1583 153.767 65.939C155.094 65.6329 154.691 67.1376 154.533 68.0354C154.201 69.9584 153.976 71.9426 153.853 73.8809C153.792 74.9521 153.695 75.9519 153.537 76.9822C153.496 77.2475 153.496 77.6097 153.491 77.982C154.793 76.7323 156.126 75.503 157.484 74.3043C157.014 70.9225 156.478 66.8265 158.444 63.7813C159.736 61.7869 161.14 63.8476 161.288 65.3269C161.518 67.6222 160.818 70.1012 159.771 72.3201C160.369 71.81 160.976 71.305 161.584 70.8051C162.279 66.8622 163.08 61.9705 166.389 59.3028C168.493 57.6042 169.294 60.3841 168.937 62.0572C168.585 63.6997 167.798 65.2911 166.782 66.75C167.068 66.5357 167.354 66.3266 167.64 66.1175C168.329 65.6125 169.029 65.1432 169.739 64.6943C169.871 61.2768 170.045 57.1196 172.527 54.4519C174.145 52.7125 175.172 54.9875 175.059 56.4718C174.881 58.8233 173.706 61.2054 172.241 63.2304C173.364 62.6132 174.503 62.0368 175.657 61.4808C176.193 58.7366 176.862 55.4261 179.19 53.5898C180.722 52.386 181.263 54.355 180.987 55.5384C180.584 57.2573 179.507 58.8947 178.22 60.2719C179.491 59.6802 180.768 59.0987 182.034 58.4917C182.688 57.4104 183.464 56.3239 184.153 55.3955C184.97 54.2989 186.053 53.2022 187.528 53.1665C189.469 53.1155 190 54.4315 189.086 56.0535C188.672 56.7932 188.065 57.3185 187.36 57.7266C188.121 57.7827 188.846 57.9919 189.362 58.3693C189.877 58.757 190.061 59.1752 190.015 59.568C189.949 60.2362 189.224 60.8381 188.376 61.0983C186.88 61.5624 185.241 61.1595 183.724 61.032C183.255 60.9911 182.775 61.0115 182.3 61.0524C181.646 61.1034 180.987 61.185 180.344 61.2003C179.507 61.5879 178.664 61.9807 177.827 62.3735C180.089 61.9807 182.616 61.9756 184.618 62.8785C185.731 63.3783 186.962 65.0055 185.077 65.485C182.05 66.2552 178.838 64.5668 176.259 63.2865L176.213 63.1386C175.835 63.3222 175.452 63.511 175.069 63.7048C175.049 63.715 175.029 63.7252 175.008 63.7303C173.068 64.7148 171.168 65.7757 169.34 67.0152C170.127 66.9285 170.908 66.9234 171.664 67.0254C173.037 67.2142 174.911 68.5914 173.007 69.7238C170.561 71.1775 167.477 70.948 164.689 70.5093C162.422 72.3048 160.2 74.1717 158.051 76.0998C160.507 74.9215 163.361 74.1054 165.935 74.4624C167.41 74.6665 169.417 76.1406 167.374 77.3546C164.096 79.3031 159.756 78.436 156.299 77.829L156.243 77.7474C155.247 78.6655 154.262 79.6041 153.297 80.5477C152.822 81.0119 152.347 81.4812 151.882 81.9505C155.237 80.2468 159.113 79.0073 162.544 79.3439C164.505 79.5378 167.109 81.3945 164.316 83.1134C159.848 85.8628 154.114 84.9548 149.534 84.3325C148.211 85.6792 146.904 87.0309 145.587 88.3826C149.038 87.8776 156.126 86.4086 158.449 86.1229C159.537 85.9903 162.12 85.9648 161.702 87.7858C161.467 88.7958 159.588 89.8363 158.663 90.1679C156.606 90.9075 148.752 91.0401 143.544 90.4637C142.605 91.4176 141.655 92.3664 140.695 93.2947C140.337 93.6416 139.995 93.9884 139.653 94.3455C144.698 93.1519 154.691 91.4788 157.198 92.0093C158.474 92.2796 160.491 93.0448 160.359 94.6464C160.221 96.3042 157.724 96.4878 156.473 96.8908C153.598 97.8191 144.111 97.2682 142.37 96.9163C141.022 96.6409 139.684 96.0645 138.372 95.7278C138.361 95.7431 138.346 95.7584 138.331 95.7737C137.601 96.6 136.901 97.4417 136.227 98.2935C136.309 98.2986 136.39 98.3088 136.477 98.319C140.705 98.6863 149.738 98.9158 152.623 99.2321C153.961 99.38 157.06 100.074 156.049 102.14C155.487 103.277 152.939 103.996 151.739 104.134C149.248 104.42 140.863 102.665 134.823 100.676C134.71 100.64 134.603 100.604 134.496 100.563C132.397 103.42 130.442 106.373 128.251 109.311C127.592 110.199 126.147 109.25 126.811 108.363C129.972 104.124 132.581 99.6911 135.987 95.7074C132.03 90.9585 129.584 81.0986 130.314 79.9713L130.319 79.9866Z" fill="#4E8879"/>
<path d="M111.396 116.329C111.763 116.88 113.321 116.36 113.985 116.284C115.802 116.069 117.641 116.151 119.469 115.927C121.777 115.656 124.258 115.564 126.581 115.671C126.811 115.682 127.046 115.697 127.281 115.728C128.118 115.814 128.971 116.008 129.676 116.386C130.605 116.88 131.284 117.691 131.351 118.997C131.463 121.129 128.905 123.705 127.582 125.154C125.81 127.113 123.875 129.127 123.007 131.647C122.374 133.453 122.711 135.468 123.85 137.039C125.565 139.395 127.741 139.829 130.493 139.773C133.95 139.712 137.034 137.988 140.011 136.411C142.993 134.835 146.026 132.708 148.701 130.637C150.943 128.888 153.098 126.883 155.207 124.914C153.271 124.47 151.362 123.914 149.442 123.195C147.221 122.364 144.632 120.788 147.369 118.645C148.9 117.436 151.305 117.35 153.236 117.288C156.034 117.212 158.893 117.176 161.656 117.615C161.967 117.671 162.289 117.717 162.6 117.737C162.999 117.304 163.392 116.865 163.78 116.411C165.388 114.514 166.854 112.555 168.237 110.545C166.578 110.03 164.775 109.846 163.693 109.969C162.064 110.152 159.256 110.974 158.025 109.627C156.274 107.714 158.617 106.536 160.211 105.898C162.401 105.041 164.653 105.358 166.94 105.276C167.747 105.25 168.534 105.245 169.315 105.276C170.77 105.332 172.159 104.659 172.945 103.435L172.961 103.414C174.671 100.752 176.943 97.3238 180.043 96.0843C180.38 95.9517 180.727 95.8395 181.079 95.7629C182.412 95.462 183.673 95.462 184.986 95.5742C184.398 95.2631 183.801 94.9621 183.193 94.6816C178.011 92.2638 172.036 90.9886 166.404 90.4122C166.379 90.4122 166.363 90.4122 166.338 90.4122C164.862 90.2591 163.448 91.0141 162.672 92.274C162.447 92.6361 162.212 93.0034 161.962 93.3758C160.925 94.9111 159.46 97.7829 157.494 98.1705C156.529 98.3593 156.044 97.839 155.829 97.0636C155.528 95.9925 155.758 94.4316 155.988 93.6053C156.151 92.9983 156.442 92.4627 156.784 91.9577C157.121 91.4629 157.504 90.9937 157.852 90.5142C157.525 90.5295 157.203 90.5397 156.876 90.5397C154.589 90.5856 152.316 90.5091 150.008 90.7029C149.615 90.7335 149.227 90.7743 148.829 90.81C146.735 90.9988 144.627 91.213 142.548 91.4782C142.298 91.5037 142.053 91.5395 141.808 91.5701C141.66 91.9169 141.522 92.2638 141.4 92.6208C141.221 93.1003 141.057 93.5849 140.904 94.0746C140.669 94.8193 140.455 95.5691 140.24 96.3138C140.077 96.8698 139.919 97.4207 139.745 97.9563C139.684 98.145 139.628 98.344 139.572 98.5378C139.265 99.5988 139.015 100.731 138.709 101.848C138.06 104.23 137.202 106.556 135.175 108.061C133.516 109.29 132.081 109.596 130.774 107.847C130.503 107.485 130.289 107.112 130.135 106.73C129.798 105.893 129.732 105.016 129.824 104.118C129.875 103.603 129.977 103.078 130.115 102.542C130.82 99.8028 132.311 97.6655 133.751 95.2886C134.047 94.7989 134.358 94.3296 134.685 93.8756C134.915 93.5492 135.155 93.2329 135.395 92.9116C134.981 92.9269 134.567 92.9422 134.144 92.9677C133.47 92.9983 132.796 93.0391 132.117 93.0901C131.657 93.1207 131.177 93.1309 130.687 93.1258C130.12 93.1258 129.538 93.1003 128.956 93.0901C127.393 93.0646 125.821 93.0901 124.473 93.6512C122.834 94.3296 121.251 96.1251 120.102 97.436C117.635 100.247 116.058 103.322 114.419 106.653C113.351 108.826 112.249 111.122 111.748 113.488C111.636 114.065 111.043 115.773 111.406 116.314L111.396 116.329Z" fill="#8D90FF"/>
<path d="M121.802 172C147.778 172 168.835 170.349 168.835 168.312C168.835 166.275 147.778 164.624 121.802 164.624C95.8266 164.624 74.7693 166.275 74.7693 168.312C74.7693 170.349 95.8266 172 121.802 172Z" fill="#E6E6E6"/>
<path d="M139.919 169.297H74.5242C70.0104 169.297 65.8642 165.41 65.2617 160.615L47.7884 21.4746C47.1859 16.6798 50.3568 12.793 54.8706 12.793H119.606C125.54 12.793 130.993 17.904 131.785 24.2086L148.666 158.575C149.411 164.492 145.495 169.292 139.924 169.292L139.919 169.297Z" fill="#473251"/>
<path d="M144.402 169.297H80.1921C76.3727 169.297 72.8596 166.2 72.3541 162.385L53.2929 19.7046C52.7822 15.8892 55.4681 12.793 59.2875 12.793H123.497C127.317 12.793 130.83 15.8892 131.335 19.7046L150.397 162.385C150.907 166.2 148.221 169.297 144.402 169.297Z" fill="#341D3F"/>
<path d="M144.933 161.181H77.496L74.2281 136.707L71.3533 115.192L66.4974 78.8485L58.7565 20.9082H126.188L130.85 55.7622L133.362 74.5893L138.622 113.973L144.933 161.181Z" fill="#D6E5FF"/>
<g style="mix-blend-mode:screen">
<path d="M130.85 55.7622L71.3533 115.192L66.4973 78.8485L121.654 20.9082H126.188L130.85 55.7622Z" fill="#99ACE3"/>
<path d="M138.622 113.972L91.3643 161.181H77.496L74.228 136.707L133.362 74.5889L138.622 113.972Z" fill="#99ACE3"/>
</g>
<path d="M127.812 18.4093C120.28 18.1135 112.744 18.0982 105.207 18.3532C104.921 18.3634 104.921 18.8072 105.207 18.797C112.744 18.5369 120.28 18.5573 127.812 18.8531C128.098 18.8633 128.098 18.4195 127.812 18.4093Z" fill="#341D3F"/>
<path d="M129.073 22.7652C129.032 22.4846 128.603 22.602 128.644 22.8825C133.582 55.0636 137.718 87.3672 141.047 119.752C141.078 120.033 141.522 120.038 141.491 119.752C138.157 87.3264 134.016 54.9871 129.073 22.7652Z" fill="#341D3F"/>
<path d="M66.5331 42.6121C66.5075 42.3315 66.0633 42.3162 66.0888 42.6019C68.8666 70.4677 72.2877 98.2621 76.3522 125.97C76.393 126.25 76.822 126.143 76.7811 125.863C72.7217 98.1958 69.3006 70.4371 66.528 42.6121H66.5331Z" fill="#341D3F"/>
<path d="M148.609 75.9056C148.42 74.9059 147.843 73.9826 147.654 72.937C147.261 70.7334 147.532 68.4482 147.532 66.2294C147.532 63.8014 147.91 61.4142 148.043 58.9964C148.226 55.6196 148.323 52.0695 148.088 48.6315C147.854 45.214 147.563 41.4546 145.683 38.4962C142.962 34.2268 136.125 33.987 133.536 39.3531C130.881 44.862 132.51 50.58 132.658 56.4715C132.765 60.6644 132.775 64.8726 132.3 69.045C132.055 71.1823 131.478 73.2328 131.151 75.3497C130.585 79.0223 145.704 76.7677 147.854 76.5943C148.523 76.5382 148.747 76.6045 148.609 75.9056Z" fill="#8D90FF"/>
<path d="M136.661 37.9145C134.476 41.1535 134.838 45.3566 134.848 49.0853C134.864 53.9974 135.063 58.9095 135.41 63.8114C135.425 64.0512 135.808 64.0563 135.788 63.8114C135.476 59.4145 135.282 55.0074 135.236 50.6003C135.196 46.5502 134.608 41.633 136.983 38.1083C137.121 37.9043 136.789 37.7156 136.656 37.9145H136.661Z" fill="#341D3F"/>
<path d="M137.774 51.0186C137.769 50.7738 137.386 50.7738 137.396 51.0186C137.636 58.6851 137.32 66.3415 136.457 73.9621C136.431 74.2019 136.809 74.2019 136.835 73.9621C137.697 66.3415 138.014 58.6851 137.774 51.0186Z" fill="#341D3F"/>
<path d="M134.062 59.2618C134.041 59.0221 133.664 59.017 133.684 59.2618C134.087 64.1331 134.006 68.9993 133.434 73.8553C133.403 74.095 133.786 74.095 133.812 73.8553C134.384 68.9993 134.47 64.1331 134.062 59.2618Z" fill="#341D3F"/>
<path d="M140.297 37.9297C140.281 37.6849 139.903 37.6849 139.919 37.9297C140.496 48.922 140.542 59.9296 140.051 70.9219C140.041 71.1667 140.419 71.1667 140.429 70.9219C140.919 59.9296 140.879 48.922 140.297 37.9297Z" fill="#341D3F"/>
<path d="M142.084 37.0835C141.89 36.9356 141.701 37.262 141.89 37.4099C146.22 40.7204 146.209 46.3874 145.74 51.3148C145.714 51.5596 146.097 51.5545 146.118 51.3148C146.603 46.214 146.531 40.4857 142.079 37.0835H142.084Z" fill="#341D3F"/>
<path d="M143.457 43.9639C143.432 43.7242 143.054 43.7191 143.079 43.9639C144.111 54.0126 140.925 63.9082 141.696 73.9568C141.716 74.1966 142.094 74.2017 142.073 73.9568C141.302 63.9031 144.489 54.0126 143.457 43.9639Z" fill="#341D3F"/>
<path d="M145.975 73.7535C144.361 67.9743 144.856 62.0165 145.423 56.1251C145.449 55.8802 145.066 55.8853 145.045 56.1251C144.473 62.0522 143.988 68.0457 145.612 73.8556C145.678 74.0902 146.046 73.9882 145.98 73.7535H145.975Z" fill="#341D3F"/>
<path d="M152.955 93.106C152.929 92.4837 152.904 91.8767 152.868 91.2595C152.853 90.831 152.822 90.4076 152.791 89.9741L152.582 86.7452C152.516 85.6639 152.454 84.5774 152.398 83.5011L152.388 83.4807L148.803 83.139L139.326 82.2412C139.117 82.9349 138.8 83.598 138.417 84.2101L138.407 84.2203C138.32 84.3836 138.218 84.5264 138.111 84.6794C137.335 85.7914 136.242 87.4645 135.507 88.6019V88.6122C135.032 89.3416 134.705 89.8516 134.705 89.8516C134.705 89.8516 142.334 91.4074 143.391 101.563C143.442 101.278 143.462 101.119 143.462 101.119C143.462 101.119 143.713 101.415 143.493 101.818C142.354 103.864 142.191 108.924 142.691 114.065C142.942 116.657 143.36 119.273 143.902 121.528C144.499 124.032 145.26 126.093 146.118 127.2C146.266 127.384 146.255 127.664 146.087 127.832C144.264 129.618 143.503 134.096 143.284 139.131C142.916 147.358 143.983 157.065 144.198 158.871H147.506C147.389 157.871 147.43 156.841 147.614 155.841L151.443 134.443C152.122 130.689 152.505 126.879 152.587 123.058C152.597 122.808 152.597 122.548 152.597 122.298L152.766 107.342C153.077 102.614 153.144 97.86 152.95 93.1111L152.955 93.106Z" fill="#96BDFF"/>
<path d="M144.371 100.247C143.728 105.205 143.396 109.903 142.696 114.06C142.268 116.595 141.706 118.921 140.843 120.982C139.551 124.093 137.606 126.608 134.465 128.291C132.321 129.51 130.197 130.735 128.129 131.974C125.601 133.484 123.171 135.019 120.903 136.595C116.42 139.717 112.621 142.992 110.14 146.563C109.624 145.073 109.021 143.385 108.485 141.982C109.777 141.426 110.911 140.523 111.789 139.411C114.005 136.606 116.073 134.249 117.988 132.255C121.583 128.506 124.621 126.062 127.021 124.486C131.202 121.732 133.47 121.568 133.47 121.568C133.419 120.936 133.378 120.298 133.327 119.656C132.367 106.582 131.254 93.2588 135.497 88.6069V88.5967C137.886 89.2343 139.663 90.5197 140.965 91.9275C143.064 94.1821 144.764 97.1967 144.366 100.247H144.371Z" fill="#96BDFF"/>
<path d="M173.665 94.1873L171.781 93.5496L172.971 94.5392C173.629 95.0901 174.258 95.7022 174.835 96.35L175.733 97.36C175.948 97.7068 175.534 98.1404 175.131 97.8854L172.455 95.5186L173.987 97.0998L175.524 98.8596C175.83 99.2932 175.253 99.6656 174.977 99.3901L173.578 97.9568L171.72 96.3245L172.772 97.8497C173.001 98.1863 173.19 98.5485 173.318 98.9259L173.752 100.232C173.706 100.885 173.364 100.808 172.961 100.558L172.521 99.4309C172.353 99.0024 172.118 98.6046 171.817 98.2679L170.612 96.9009L171.684 100.15C171.75 100.645 170.964 100.762 170.882 100.283C170.54 98.9616 169.519 97.1712 169.519 97.1712C168.11 96.6765 166.864 95.7838 165.955 94.6157L164.704 93.0141L164.122 92.5499L166.481 89.8975C166.92 90.4432 167.349 91.0043 167.762 91.5858L168.477 91.6113C169.565 91.647 170.637 91.9174 171.613 92.3816L173.915 93.4782C174.303 93.718 174.222 94.2536 173.665 94.1873Z" fill="#E38C89"/>
<path d="M105.069 99.2262L106.754 98.1703L105.83 99.4047C105.314 100.098 104.85 100.838 104.436 101.598L103.798 102.787C103.67 103.169 104.17 103.496 104.502 103.159L106.555 100.236L105.432 102.129L104.344 104.2C104.15 104.694 104.793 104.919 104.998 104.587L106.029 102.868L107.459 100.848L106.79 102.577C106.647 102.955 106.55 103.353 106.509 103.756L106.392 105.128C106.586 105.75 106.902 105.597 107.239 105.26L107.403 104.062C107.469 103.603 107.602 103.164 107.821 102.771L108.679 101.165L108.388 104.572C108.439 105.067 109.231 105 109.2 104.516C109.226 103.154 109.808 101.17 109.808 101.17C111.064 100.359 112.07 99.2058 112.682 97.8592L113.525 96.0076L113.984 95.421L111.074 93.3857C110.773 94.0182 110.487 94.6661 110.221 95.3241L109.532 95.5179C108.48 95.8035 107.505 96.3136 106.657 96.992L104.671 98.5937C104.349 98.915 104.553 99.42 105.079 99.2262H105.069Z" fill="#EBADAB"/>
<path d="M147.108 57.3025L155.176 73.5844C155.942 75.1248 156.84 76.5939 157.867 77.9762L167.849 91.3557C167.635 91.6872 164.5 92.8145 164.5 92.8145L153.195 81.4601C151.642 79.8329 150.289 78.0272 149.161 76.0787L140.368 60.9088C139.24 58.9603 140.031 56.466 142.079 55.5223C143.958 54.6603 146.184 55.4458 147.103 57.2974L147.108 57.3025Z" fill="#D1634B"/>
<path d="M107.612 155.938C107.694 156.739 106.647 157.127 106.187 156.453L105.263 155.066C103.982 153.173 103.399 150.919 103.44 148.639C103.461 147.537 103.318 146.558 103.175 145.889C103.16 145.823 103.149 145.772 103.139 145.711C103.139 145.685 103.129 145.665 103.124 145.64C103.124 145.629 103.124 145.624 103.124 145.624C102.976 144.997 103.022 144.334 103.338 143.773C103.369 143.722 103.399 143.665 103.435 143.62V143.609C103.89 142.936 104.533 142.707 104.998 142.63C105.33 142.579 105.57 142.61 105.57 142.61C105.922 142.61 106.264 142.579 106.596 142.523C106.749 142.508 106.902 142.477 107.05 142.441C107.546 142.339 108.031 142.186 108.49 141.987C109.026 143.385 109.629 145.078 110.145 146.568C108.741 148.588 107.76 150.7 107.306 152.929L107.326 153.133L107.612 155.933V155.938Z" fill="#341D3F"/>
<path d="M155.166 168.929C153.435 169.067 150.785 169.026 148.926 167.873C147.9 167.236 145.51 166.43 143.631 165.501C142.16 164.772 141.69 162.91 142.604 161.558L142.972 161.018L144.238 159.161C144.238 159.161 144.223 159.059 144.203 158.865H147.511C147.629 159.855 147.9 160.814 148.334 161.711C149.191 163.481 150.432 165.012 152.097 166.246C153.026 166.95 154.093 167.562 155.293 168.077C155.712 168.261 155.63 168.888 155.166 168.929Z" fill="#341D3F"/>
<path d="M143.442 55.4309H143.463C143.463 55.4309 143.432 55.4258 143.416 55.4258H143.422C143.422 55.4258 143.427 55.4258 143.437 55.4309H143.442Z" fill="#F4E3B8"/>
<path d="M131.463 64.8626C132.081 66.6734 132.53 68.5454 133.725 70.0757C134.139 70.5858 134.542 71.101 134.95 71.6059C135.43 72.2282 135.905 72.8454 136.365 73.483C136.722 73.9778 137.059 74.4726 137.391 74.9878C138.438 76.62 139.556 78.5941 139.572 80.5834C139.577 81.1445 136.886 86.0821 136.722 86.6228C142.707 85.6944 148.553 89.3262 152.684 88.1122L152.393 83.5011C152.143 79.0072 151.964 74.5134 151.78 70.0553C151.78 69.9839 151.765 69.9023 151.765 69.8359C151.76 69.6574 151.678 68.9892 151.719 68.9331C152.822 67.9537 153.93 63.8476 148.431 59.4558C146.843 58.1907 145.229 56.9614 143.616 55.7526C142.906 55.2221 142.268 55.2578 141.527 55.3547C141.354 55.3598 141.165 55.3955 140.981 55.4159C139.337 55.5995 137.682 55.773 136.079 56.1861C135.834 56.2524 135.553 56.3238 135.282 56.4055C134.925 56.5024 134.552 56.6095 134.215 56.7676C133.929 56.8849 133.659 57.038 133.419 57.2267C131.065 59.0477 130.518 62.0725 131.453 64.8677L131.463 64.8626Z" fill="#D1634B"/>
<path d="M141.553 71.7176C143.61 71.738 146.495 71.7533 147.782 69.8251C147.9 69.6466 148.186 69.8149 148.068 69.9935C146.71 72.0389 143.748 72.0695 141.553 72.0542C141.338 72.0542 141.338 71.7226 141.553 71.7226V71.7176Z" fill="#341D3F"/>
<path d="M139.679 49.3866C140.659 49.0448 141.675 49.8049 141.619 50.8403L141.379 55.3801L141.369 55.6606L141.353 55.9412C141.318 56.6655 140.751 57.2521 140.031 57.3184L138.545 57.4612C137.682 57.5428 136.937 56.8593 136.947 55.9871L136.988 52.9368L137.023 50.3099L137.412 50.1721L139.684 49.3764L139.679 49.3866Z" fill="#EBADAB"/>
<path d="M141.731 48.1369L141.374 54.8496L141.364 55.1302C139.143 54.9159 137.401 52.6155 137.401 49.8049C137.401 49.7488 137.401 49.7029 137.406 49.6468L141.736 48.1318L141.731 48.1369Z" fill="#E38C89"/>
<path d="M132.882 47.5098C132.443 46.3723 132.55 44.7859 133.541 44.5666C133.837 44.5003 134.19 44.5666 134.552 44.7094C134.828 41.2765 136.84 37.2214 139.306 36.6756C142.538 35.9615 145.592 37.1551 147.251 45.3521C147.91 48.5962 146.123 52.3453 142.987 53.3247C140.633 54.0592 137.463 51.9067 135.762 49.4124C134.654 49.2593 133.439 48.9482 132.882 47.5098Z" fill="#EBADAB"/>
<path d="M143.876 49.7788C144.08 49.7533 144.203 49.7227 144.208 49.7176C144.315 49.687 144.381 49.5799 144.356 49.4728C144.325 49.3657 144.223 49.2994 144.106 49.33C144.003 49.3555 141.614 49.9472 140.695 47.7181C140.654 47.6161 140.536 47.5651 140.429 47.6059C140.322 47.6467 140.271 47.764 140.317 47.866C141.154 49.9013 143.1 49.8758 143.881 49.7737L143.876 49.7788Z" fill="#341D3F"/>
<path d="M140.501 45.3058C140.531 45.6628 140.822 45.9281 141.154 45.9026C141.486 45.8771 141.731 45.5659 141.701 45.2088C141.67 44.8518 141.379 44.5865 141.047 44.612C140.715 44.6376 140.47 44.9487 140.501 45.3058Z" fill="#341D3F"/>
<path d="M144.494 44.9024C144.524 45.2595 144.815 45.5247 145.147 45.4992C145.479 45.4737 145.724 45.1626 145.694 44.8055C145.663 44.4485 145.372 44.1832 145.04 44.2087C144.708 44.2342 144.463 44.5454 144.494 44.9024Z" fill="#341D3F"/>
<path d="M139.347 44.2705C139.423 44.2705 139.5 44.2246 139.531 44.1481C140.036 42.9749 141.139 43.3473 141.185 43.3626C141.292 43.3983 141.41 43.3473 141.45 43.2401C141.486 43.1381 141.435 43.0208 141.328 42.9851C140.807 42.8015 139.679 42.776 139.153 43.99C139.107 44.092 139.153 44.2093 139.265 44.2552C139.291 44.2654 139.321 44.2705 139.352 44.2705H139.347Z" fill="#341D3F"/>
<path d="M144.111 43.0971C144.162 43.1379 144.233 43.1481 144.295 43.1175C145.28 42.6431 145.765 43.4694 145.786 43.5052C145.832 43.5868 145.939 43.6123 146.02 43.5715C146.102 43.5256 146.133 43.4235 146.087 43.3419C145.857 42.9441 145.158 42.3269 144.141 42.8165C144.055 42.8573 144.019 42.9594 144.065 43.041C144.075 43.0614 144.09 43.0818 144.111 43.0971Z" fill="#341D3F"/>
<path d="M143.789 48.0246C143.687 48.0246 143.6 47.943 143.6 47.841C143.6 47.739 143.682 47.6574 143.789 47.6574C143.789 47.6574 144.152 47.6472 144.244 47.4584C144.284 47.3717 144.325 47.1014 143.804 46.4587C143.738 46.3771 143.753 46.2648 143.835 46.1985C143.917 46.1373 144.034 46.1475 144.101 46.2291C144.591 46.8259 144.749 47.2799 144.586 47.6166C144.387 48.0195 143.815 48.0246 143.789 48.0246Z" fill="#341D3F"/>
<path d="M131.989 58.991L123.921 75.2729C123.155 76.8133 122.257 78.2823 121.23 79.6647L109.537 95.3497C109.752 95.6813 112.887 96.8086 112.887 96.8086L125.897 83.1485C127.449 81.5214 128.803 79.7157 129.931 77.7672L138.724 62.5973C139.852 60.6488 139.061 58.1545 137.013 57.2108C135.134 56.3488 132.908 57.1343 131.989 58.9859V58.991Z" fill="#D1634B"/>
<path d="M149.906 87.3212C145.852 87.5457 142.37 85.1279 138.234 85.7757C138.091 85.7961 138.152 86.0103 138.295 85.9899C142.416 85.3421 145.878 87.7701 149.911 87.5406C150.054 87.5304 150.054 87.311 149.911 87.3212H149.906Z" fill="#341D3F"/>
<path d="M151.193 86.5414C150.167 86.5975 149.14 86.5822 148.114 86.4955C147.971 86.4853 147.971 86.7046 148.114 86.7148C149.14 86.8015 150.162 86.8168 151.193 86.7607C151.336 86.7505 151.336 86.5312 151.193 86.5414Z" fill="#341D3F"/>
<path d="M152.296 90.7749C150.248 90.933 148.38 90.7239 146.541 90.2546C146.424 89.6221 146.465 88.9998 146.684 88.3877C146.73 88.2551 146.516 88.1939 146.47 88.3265C146.25 88.9386 146.204 89.566 146.312 90.1985C146.077 90.1373 145.842 90.0659 145.607 89.9944C145.362 89.4538 145.433 88.8519 145.786 88.3724C145.867 88.2551 145.678 88.1479 145.597 88.2602C145.239 88.7498 145.158 89.3517 145.341 89.9128C144.504 89.6476 143.667 89.3364 142.814 88.9845C142.104 88.6886 141.435 88.4591 140.761 88.3112C140.746 88 140.807 87.7093 140.955 87.4287C141.022 87.3012 140.833 87.189 140.766 87.3165C140.608 87.6175 140.531 87.9337 140.542 88.2704C140.251 88.2143 139.959 88.1786 139.668 88.1531C139.668 87.8623 139.714 87.5818 139.817 87.3012C139.868 87.1686 139.653 87.1074 139.602 87.24C139.495 87.5307 139.449 87.8266 139.444 88.1326C138.77 88.102 138.08 88.1633 137.34 88.3418C137.202 88.3775 137.258 88.5917 137.401 88.556C140.455 87.8113 142.747 89.4283 145.53 90.2954C145.821 90.3872 146.112 90.4688 146.409 90.5402C146.439 90.5708 146.48 90.581 146.521 90.5657C148.42 91.0248 150.356 91.137 152.316 90.984C152.459 90.9738 152.459 90.7494 152.316 90.7647L152.296 90.7749Z" fill="#341D3F"/>
<path d="M150.458 89.3054C150.442 89.2697 150.417 89.234 150.366 89.2289C149.973 89.1881 149.273 89.183 149.048 89.5961C148.834 89.9889 149.268 90.2847 149.615 90.3052C150.008 90.3307 150.606 90.2746 150.728 89.8155C150.8 89.5451 150.657 89.387 150.458 89.3003V89.3054ZM150.407 89.9328C150.223 90.1011 149.814 90.1164 149.579 90.0807C149.38 90.0552 149.105 89.8818 149.294 89.6522C149.365 89.5655 149.462 89.5298 149.564 89.4992C149.717 89.4533 149.876 89.438 150.039 89.4329C150.039 89.4329 150.039 89.4329 150.049 89.4329C150.315 89.4431 150.739 89.6267 150.407 89.9226V89.9328Z" fill="#341D3F"/>
<path d="M146.317 96.5739C146.25 102.496 144.33 108.168 142.722 113.805C142.681 113.942 142.896 113.998 142.936 113.866C144.55 108.204 146.475 102.516 146.541 96.5739C146.541 96.4311 146.322 96.4311 146.322 96.5739H146.317Z" fill="#341D3F"/>
<path d="M137.488 124.348C137.161 124.894 136.666 125.297 136.064 125.501C135.931 125.547 135.987 125.761 136.125 125.715C136.783 125.49 137.325 125.052 137.682 124.46C137.754 124.338 137.565 124.225 137.493 124.348H137.488Z" fill="#341D3F"/>
<path d="M136.13 123.818C135.982 124.333 135.737 124.787 135.379 125.19C135.282 125.297 135.441 125.455 135.538 125.348C135.921 124.919 136.191 124.43 136.344 123.879C136.385 123.741 136.171 123.685 136.13 123.818Z" fill="#341D3F"/>
<path d="M150.243 127.608C150.253 127.465 150.029 127.465 150.024 127.608C149.988 128.235 150.075 128.837 150.284 129.429C150.33 129.562 150.545 129.506 150.499 129.368C150.294 128.797 150.213 128.21 150.243 127.603V127.608Z" fill="#341D3F"/>
<path d="M151.387 128.061C151.372 127.924 151.147 127.918 151.168 128.061C151.234 128.592 151.168 129.102 150.963 129.597C150.907 129.729 151.122 129.785 151.178 129.658C151.387 129.148 151.459 128.612 151.387 128.066V128.061Z" fill="#341D3F"/>
<path d="M137.391 59.8893C137.381 59.7465 137.161 59.7465 137.172 59.8893C137.366 63.4599 135.936 67.3672 134.164 70.4379C134.093 70.5603 134.287 70.6725 134.353 70.5501C136.166 67.408 137.595 63.5466 137.391 59.8893Z" fill="#341D3F"/>
<path d="M140.031 57.6399C138.663 58.1296 137.238 57.9256 136.063 57.0738C135.946 56.9921 135.839 57.1809 135.951 57.2625C137.166 58.1449 138.678 58.3592 140.087 57.8491C140.22 57.8032 140.164 57.5889 140.026 57.6348L140.031 57.6399Z" fill="#341D3F"/>
<path d="M142.089 55.9258C142.063 55.788 141.849 55.8442 141.874 55.987C141.961 56.4409 141.793 56.8796 141.445 57.1755C141.338 57.2673 141.496 57.4254 141.604 57.3336C142.012 56.9816 142.186 56.4563 142.089 55.9309V55.9258Z" fill="#341D3F"/>
<path d="M152.531 67.7443C152.567 67.6066 152.352 67.5454 152.316 67.6831C152.107 68.489 151.826 69.2695 151.499 70.0244C151.474 70.0397 151.453 70.0652 151.459 70.1111C151.459 70.1111 151.459 70.1213 151.459 70.1264C151.27 70.5549 151.065 70.9782 150.836 71.3965C150.769 71.5189 150.958 71.6311 151.025 71.5087C151.183 71.218 151.336 70.9221 151.479 70.6263C151.622 73.9622 151.785 77.2982 151.969 80.6341C151.979 80.7769 152.199 80.7769 152.189 80.6341C151.995 77.1451 151.821 73.6613 151.678 70.1723C152.02 69.3868 152.311 68.586 152.531 67.7494V67.7443Z" fill="#341D3F"/>
<path d="M146.388 39.1743C145.132 36.5728 141.706 35.4558 140.031 35.8995C137.958 36.4453 135.992 37.5267 135.083 39.5721C134.43 41.0361 134.036 43.0407 134.266 44.6271C134.44 45.8411 135.303 49.3708 136.932 49.2586C137.243 47.7386 137.835 43.4131 138.029 42.7857C138.05 42.7959 138.091 42.8214 138.091 42.8214C138.091 42.8214 140.368 42.0358 140.486 42.0103C141.267 41.8165 142.028 41.689 142.829 41.6686C143.697 41.6482 146.96 42.4184 147.318 43.4284C147.501 41.3064 146.832 40.0975 146.388 39.1794V39.1743Z" fill="#8D90FF"/>
<path d="M138.79 38.7615C138.77 38.6237 138.55 38.6186 138.571 38.7615C138.724 39.9296 138.79 41.0976 138.77 42.2759C138.77 42.4188 138.989 42.4188 138.989 42.2759C139.005 41.0976 138.938 39.9296 138.79 38.7615Z" fill="#341D3F"/>
<path d="M140.756 37.5268C140.715 37.3891 140.501 37.4503 140.542 37.5881C140.93 38.9245 141.379 40.2609 141.415 41.6687C141.415 41.8115 141.639 41.8115 141.634 41.6687C141.599 40.2405 141.144 38.8888 140.751 37.532L140.756 37.5268Z" fill="#341D3F"/>
<path d="M142.651 37.568C142.569 37.4557 142.375 37.568 142.462 37.6802C143.335 38.8789 143.937 40.1949 144.274 41.6435C144.305 41.7813 144.519 41.7251 144.489 41.5823C144.147 40.1235 143.534 38.782 142.651 37.568Z" fill="#341D3F"/>
<path d="M144.427 37.5169C144.315 37.4302 144.157 37.5832 144.269 37.675C145.479 38.6289 145.939 40.7508 146.291 42.1842C146.327 42.3219 146.541 42.2658 146.506 42.123C146.148 40.6743 145.663 38.4912 144.427 37.5169Z" fill="#341D3F"/>
<path d="M138.545 37.2053C135.175 38.9039 134.077 44.6525 135.921 47.7895C135.992 47.912 136.186 47.7997 136.11 47.6773C134.327 44.6423 135.487 38.9906 138.652 37.394C138.78 37.3277 138.668 37.139 138.54 37.2053H138.545Z" fill="#341D3F"/>
<path d="M137.253 40.1135C137.284 39.9757 137.069 39.9145 137.039 40.0522C136.625 41.9906 136.564 43.9289 136.85 45.8876C136.87 46.0304 137.085 45.9692 137.064 45.8264C136.783 43.9034 136.85 42.011 137.253 40.1083V40.1135Z" fill="#341D3F"/>
<path d="M289.049 40.1182C288.983 40.868 289.483 41.7402 289.626 42.4798C289.825 43.5255 290.04 44.5406 290.382 45.5454C290.805 46.7849 291.525 48.2183 292.307 49.2384C293.154 50.3453 294.237 51.5083 294.691 52.8753C295.074 54.0179 295.289 55.1044 295.294 56.3133C295.294 57.4508 295.294 58.7974 294.375 59.5676C294.303 59.0218 294.512 58.4556 294.324 57.915C294.15 57.4202 293.639 56.8285 293.246 56.4867C292.419 55.7726 291.975 56.7928 291.153 56.7673C290.53 56.7469 290.019 56.1042 289.677 55.6247C289.32 55.1248 288.932 54.2781 288.38 53.9873C287.813 53.6864 287.318 54.2577 286.797 54.4413C285.081 55.0585 283.019 54.5382 281.798 53.1151C280.772 51.9113 280.68 49.9679 280.736 48.4427C280.818 46.1371 282.539 43.8979 283.836 42.1534" fill="#DF6F22"/>
<path d="M284.658 52.1821C283.238 49.4481 283.172 46.3978 284.484 43.6127C284.545 43.4852 284.351 43.373 284.295 43.5005C282.947 46.357 283.008 49.4889 284.469 52.2943C284.535 52.4219 284.724 52.3096 284.658 52.1821Z" fill="#341D3F"/>
<path d="M285.863 45.3564C285.837 45.2187 285.628 45.2748 285.648 45.4176C286.072 47.963 287.313 50.3297 287.129 52.9567C287.119 53.0995 287.338 53.0995 287.349 52.9567C287.532 50.3093 286.281 47.9221 285.858 45.3564H285.863Z" fill="#341D3F"/>
<path d="M290.729 51.2534C289.738 49.0907 287.951 47.3666 287.762 44.8825C287.752 44.7397 287.532 44.7397 287.543 44.8825C287.66 46.4434 288.314 47.637 289.146 48.953C290.509 51.1106 291.418 53.2173 291.617 55.7881C291.627 55.9309 291.852 55.9309 291.837 55.7881C291.714 54.2119 291.388 52.697 290.724 51.2534H290.729Z" fill="#341D3F"/>
<path d="M293.113 52.2579C292.414 50.8093 291.163 49.7381 290.499 48.2691C290.443 48.1415 290.249 48.2538 290.31 48.3813C290.846 49.5647 291.74 50.4216 292.434 51.4979C293.302 52.8547 293.696 54.3339 293.726 55.9305C293.726 56.0733 293.951 56.0733 293.946 55.9305C293.92 54.6502 293.68 53.4158 293.113 52.2528V52.2579Z" fill="#341D3F"/>
<path d="M212.957 172C234.44 172 251.856 170.349 251.856 168.312C251.856 166.275 234.44 164.624 212.957 164.624C191.474 164.624 174.058 166.275 174.058 168.312C174.058 170.349 191.474 172 212.957 172Z" fill="#E6E6E6"/>
<path d="M249.298 95.6961L247.413 95.0584L248.603 96.048C249.262 96.5989 249.89 97.211 250.467 97.8588L251.366 98.8688C251.58 99.2156 251.166 99.6492 250.763 99.3942L248.087 97.0274L249.619 98.6086L251.156 100.368C251.463 100.802 250.886 101.174 250.61 100.899L249.206 99.4656L247.347 97.8333L248.399 99.3584C248.629 99.6951 248.818 100.057 248.945 100.435L249.379 101.741C249.333 102.393 248.991 102.317 248.588 102.067L248.149 100.94C247.98 100.511 247.745 100.113 247.444 99.7767L246.239 98.4097L247.311 101.659C247.378 102.154 246.591 102.271 246.51 101.792C246.167 100.47 245.146 98.68 245.146 98.68C243.737 98.1853 242.491 97.2926 241.582 96.1245L240.331 94.5229L239.749 94.0587L242.108 91.4062C242.547 91.952 242.976 92.5131 243.39 93.0946L244.105 93.1201C245.192 93.1558 246.264 93.4262 247.24 93.8904L249.543 94.987C249.931 95.2268 249.849 95.7624 249.292 95.6961H249.298Z" fill="#E38C89"/>
<path d="M170.719 92.3759L172.67 91.9831L171.367 92.8146C170.642 93.2787 169.943 93.8092 169.289 94.3754L168.273 95.2629C168.018 95.5792 168.37 96.0587 168.804 95.8597L171.761 93.85L170.04 95.2272L168.294 96.7779C167.936 97.1707 168.462 97.6093 168.768 97.3696L170.341 96.125L172.389 94.7376L171.148 96.1199C170.877 96.4208 170.647 96.7626 170.469 97.1196L169.871 98.3591C169.83 99.0121 170.183 98.9815 170.617 98.7825L171.194 97.7164C171.419 97.3135 171.699 96.9462 172.041 96.6555L173.41 95.4517L171.934 98.5377C171.807 99.0172 172.567 99.2365 172.715 98.7723C173.221 97.5022 174.462 95.8546 174.462 95.8546C175.927 95.5384 177.27 94.8141 178.322 93.7684L179.767 92.3351L180.4 91.9474L178.394 89.0195C177.888 89.5041 177.393 90.0091 176.908 90.5345L176.193 90.4733C175.11 90.3712 174.012 90.5039 172.986 90.8405L170.566 91.6363C170.152 91.825 170.162 92.3657 170.724 92.3708L170.719 92.3759Z" fill="#EBADAB"/>
<path d="M218.329 56.2061L229.271 77.4408L243.385 92.3148L240.637 94.9724L224.482 82.6896C222.465 80.94 220.805 78.8232 219.595 76.4411L211.16 59.8634C210.363 58.2974 210.675 56.3948 211.931 55.1655C213.866 53.268 217.088 53.7883 218.329 56.201V56.2061Z" fill="#96BDFF"/>
<path d="M214.994 49.3706L214.331 51.7374L214.075 52.6402C213.713 53.946 212.007 55.5528 209.674 53.2115C209.23 52.7677 209.281 52.0077 209.464 51.3497L210.971 45.9785L211.098 46.0856L214.994 49.3655V49.3706Z" fill="#EBADAB"/>
<path d="M214.994 49.3707L214.331 51.7374C212.457 51.1865 211.063 49.1666 211.063 46.7539C211.063 46.5244 211.078 46.3102 211.103 46.0908L214.999 49.3707H214.994Z" fill="#E38C89"/>
<path d="M238.304 162.619L232.835 137.905L223.414 104.541L219.789 86.7441H204.629L196.714 128.637L182.514 161.099L185.21 162.915L199.002 141.777C200.748 139.099 201.877 137.492 203.209 134.483C203.209 134.483 203.209 134.483 203.214 134.483L203.26 134.365C203.863 132.993 213.636 111.988 213.636 111.988C213.636 111.988 227.622 141.854 229.322 146.735L235.082 163.251L238.299 162.619H238.304Z" fill="#E26B6D"/>
<path d="M190.536 166.705L187.253 165.832L185.517 162.364L185.011 162.124C184.184 161.584 183.413 161.079 182.744 160.635L182.718 160.732C179.502 162.65 180.722 164.578 184.74 167.96C185.379 168.495 188.657 168.852 190.505 168.5C190.516 168.5 190.531 168.5 190.541 168.495C191.465 168.296 191.445 166.95 190.531 166.705H190.536Z" fill="#341D3F"/>
<path d="M234.893 163.038C234.336 167.853 238.202 167.037 246.79 164.848C247.98 164.532 248.501 163.068 246.31 162.951L238.008 161.977C236.879 162.329 234.898 163.043 234.898 163.043L234.893 163.038Z" fill="#341D3F"/>
<path d="M224.543 104.363C224.543 104.363 223.66 104.511 222.179 104.715C217.195 105.373 208.51 106.332 201.341 104.123C203.24 91.7891 203.72 79.287 202.913 66.8359C202.775 64.6782 202.735 62.9031 202.888 62.0309C203.495 58.5011 206.278 54.4817 207.228 53.6604C207.693 53.2626 208.208 52.676 208.622 52.1659C209.061 51.6303 209.378 51.1865 209.378 51.1865C209.378 51.1865 213.406 51.7527 215.832 54.5378C216.327 55.104 217.67 56.8689 218.252 57.8278C218.844 58.8072 219.457 59.9191 220.034 61.026C222.026 64.8312 222.817 69.1414 222.337 73.4108L222.255 74.1607C222.158 75.0431 221.53 83.3983 221.53 83.3983L224.548 104.373L224.543 104.363Z" fill="#96BDFF"/>
<path d="M207.407 46.2897C206.86 45.2594 206.753 43.724 207.626 43.3823C207.887 43.2803 208.219 43.2905 208.566 43.3823C208.377 40.0565 209.689 35.8994 211.875 35.0424C214.734 33.9202 217.675 34.6548 220.254 42.2805C221.275 45.3002 220.126 49.1309 217.389 50.4928C215.331 51.5181 212.16 49.8807 210.281 47.7231C209.25 47.7231 208.101 47.5905 207.402 46.2846L207.407 46.2897Z" fill="#EBADAB"/>
<path d="M217.645 45.9227C217.971 46.0298 218.267 46.0247 218.497 45.9227C218.63 45.8615 218.737 45.7696 218.814 45.6472C218.901 45.5095 218.941 45.3514 218.936 45.1831C218.931 44.8668 218.763 44.4995 218.456 44.1374L217.093 42.1685C217.042 42.0919 216.945 42.0715 216.863 42.1277C216.792 42.1838 216.771 42.2858 216.822 42.3623L218.196 44.3465C218.523 44.7393 218.625 45.0555 218.599 45.2749C218.599 45.3463 218.574 45.4126 218.538 45.4636C218.416 45.6523 218.135 45.7084 217.813 45.6166C217.798 45.6166 217.787 45.6115 217.772 45.6064C217.685 45.5809 217.583 45.6217 217.553 45.7135C217.553 45.7186 217.548 45.7288 217.553 45.739C217.537 45.8207 217.573 45.8972 217.65 45.9278L217.645 45.9227Z" fill="#341D3F"/>
<path d="M213.151 42.2044C213.222 42.1942 213.284 42.1381 213.304 42.0616C213.616 40.868 214.668 41.0771 214.713 41.0874C214.816 41.1078 214.918 41.0414 214.938 40.9343C214.959 40.8272 214.892 40.7252 214.79 40.7048C214.29 40.5977 213.258 40.7252 212.937 41.9647C212.911 42.0667 212.967 42.1738 213.069 42.1993C213.095 42.2044 213.125 42.2095 213.151 42.1993V42.2044Z" fill="#341D3F"/>
<path d="M217.144 46.9631C217.098 46.907 217.021 46.8764 216.945 46.8968C215.745 47.1875 215.428 46.1622 215.418 46.1163C215.388 46.0143 215.28 45.9582 215.178 45.9888C215.076 46.0194 215.015 46.1265 215.045 46.2285C215.188 46.7182 215.791 47.565 217.032 47.264C217.134 47.2385 217.2 47.1365 217.175 47.0345C217.17 47.009 217.154 46.9835 217.139 46.9631H217.144Z" fill="#341D3F"/>
<path d="M217.41 40.2097C217.461 40.2403 217.527 40.2403 217.583 40.2045C218.421 39.618 218.972 40.3423 218.998 40.3729C219.049 40.4443 219.151 40.4596 219.222 40.4035C219.294 40.3474 219.304 40.2454 219.253 40.1739C218.992 39.8271 218.272 39.3272 217.404 39.9342C217.333 39.9852 217.313 40.0872 217.364 40.1586C217.379 40.179 217.394 40.1943 217.415 40.2045L217.41 40.2097Z" fill="#341D3F"/>
<path d="M215.439 43.0814C215.321 43.0814 215.224 42.9794 215.229 42.862C215.229 42.76 215.193 42.6682 215.127 42.5968C215.061 42.5254 214.969 42.4846 214.867 42.4846C214.785 42.4846 214.678 42.5203 214.606 42.5866C214.535 42.658 214.494 42.7498 214.494 42.8467C214.494 42.9641 214.392 43.061 214.274 43.0559C214.157 43.0559 214.06 42.9539 214.065 42.8365C214.065 42.6223 214.157 42.4234 214.31 42.2754C214.463 42.1275 214.673 42.0459 214.877 42.051C215.091 42.051 215.29 42.1428 215.439 42.2958C215.587 42.4489 215.663 42.6529 215.663 42.8671C215.663 42.9845 215.566 43.0763 215.449 43.0763L215.439 43.0814Z" fill="#341D3F"/>
<path d="M219.253 42.1784C219.135 42.1784 219.038 42.0764 219.044 41.9591C219.044 41.8571 219.008 41.7653 218.941 41.6939C218.875 41.6224 218.783 41.5816 218.681 41.5816C218.487 41.5765 218.308 41.7449 218.308 41.9489C218.308 42.0662 218.211 42.158 218.089 42.158C217.971 42.158 217.874 42.056 217.879 41.9387C217.89 41.4949 218.252 41.1328 218.691 41.1532C218.906 41.1532 219.105 41.245 219.253 41.398C219.401 41.551 219.478 41.7551 219.478 41.9693C219.478 42.0866 219.381 42.1784 219.263 42.1784H219.253Z" fill="#341D3F"/>
<path d="M204.772 56.8787L191.741 76.9045L176.198 90.2789L178.659 93.2017L195.974 82.6124C198.159 81.077 200.023 79.1336 201.468 76.8892L211.532 61.2501C212.482 59.7708 212.365 57.8478 211.236 56.5012C209.5 54.4201 206.242 54.6139 204.767 56.8838L204.772 56.8787Z" fill="#96BDFF"/>
<path d="M218.574 59.2615C218.518 59.1289 218.324 59.2462 218.385 59.3738C221.418 66.3262 221.454 73.9315 221.397 81.3839C221.397 81.5267 221.617 81.5267 221.617 81.3839C221.673 73.8805 221.622 66.2599 218.574 59.2615Z" fill="#341D3F"/>
<path d="M212.242 55.7676C212.217 55.6298 212.002 55.6859 212.028 55.8288C212.743 59.8941 210.675 62.7455 208.51 65.9131C206.605 68.7033 204.7 71.4883 202.796 74.2785C202.714 74.3958 202.908 74.508 202.985 74.3907C205.369 70.8966 207.785 67.423 210.144 63.9085C211.875 61.3275 212.783 58.8995 212.237 55.7727L212.242 55.7676Z" fill="#341D3F"/>
<path d="M213.493 54.1962C211.941 53.9768 210.521 53.4106 209.245 52.4976C209.127 52.416 209.02 52.6047 209.133 52.6863C210.419 53.6096 211.864 54.186 213.432 54.4104C213.57 54.4308 213.631 54.2166 213.493 54.1962Z" fill="#341D3F"/>
<path d="M215.234 54.3027H214.642C214.499 54.3027 214.499 54.5221 214.642 54.5221H215.234C215.377 54.5221 215.377 54.3027 215.234 54.3027Z" fill="#341D3F"/>
<path d="M221.157 103.965C218.012 104.194 214.867 104.316 211.711 104.291C208.576 104.265 204.899 104.505 201.953 103.332C201.82 103.281 201.764 103.495 201.892 103.546C204.659 104.648 207.922 104.454 210.848 104.505C214.29 104.561 217.721 104.439 221.152 104.189C221.295 104.179 221.295 103.959 221.152 103.97L221.157 103.965Z" fill="#341D3F"/>
<path d="M222.47 102.343C218.543 103.45 214.566 103.797 210.506 103.399C210.363 103.384 210.363 103.608 210.506 103.618C214.591 104.021 218.579 103.664 222.526 102.552C222.664 102.511 222.603 102.302 222.465 102.338L222.47 102.343Z" fill="#341D3F"/>
<path d="M207.887 105.679C206.166 106.883 204.231 107.505 202.132 107.52C201.989 107.52 201.989 107.745 202.132 107.74C203.163 107.729 204.154 107.576 205.104 107.286C204.787 108.474 204.185 109.52 203.306 110.392C203.204 110.494 203.363 110.647 203.465 110.55C204.399 109.617 205.043 108.484 205.359 107.204C206.283 106.893 207.172 106.449 207.999 105.873C208.116 105.791 208.004 105.597 207.887 105.684V105.679Z" fill="#341D3F"/>
<path d="M217.032 106.138C216.465 107.795 216.092 111.738 213.697 111.448C213.555 111.432 213.56 111.652 213.697 111.667C216.337 111.988 216.654 107.923 217.246 106.194C217.292 106.061 217.078 106 217.032 106.133V106.138Z" fill="#341D3F"/>
<path d="M199.691 133.601C199.538 134.336 199.329 135.055 199.063 135.759C199.012 135.891 199.227 135.947 199.278 135.82C199.543 135.116 199.753 134.402 199.906 133.662C199.936 133.525 199.722 133.463 199.691 133.601Z" fill="#341D3F"/>
<path d="M200.855 134.748C200.544 135.197 200.238 135.646 199.926 136.095C199.844 136.212 200.039 136.324 200.115 136.207C200.427 135.758 200.733 135.309 201.044 134.86C201.126 134.743 200.932 134.631 200.855 134.748Z" fill="#341D3F"/>
<path d="M230.946 139.15L229.383 137.956C229.271 137.87 229.159 138.064 229.271 138.145C229.792 138.543 230.313 138.941 230.834 139.339C230.946 139.425 231.058 139.232 230.946 139.15Z" fill="#341D3F"/>
<path d="M231.492 137.238C231.395 137.901 231.354 138.564 231.375 139.232C231.375 139.375 231.6 139.375 231.594 139.232C231.574 138.585 231.61 137.937 231.707 137.294C231.727 137.156 231.513 137.095 231.492 137.233V137.238Z" fill="#341D3F"/>
<path d="M219.314 38.0517C218.701 35.736 217.19 34.2363 214.846 33.6752C212.293 33.0682 209.817 33.9762 208.254 36.0879C207.478 37.1387 206.983 38.3731 206.687 39.6432C206.436 40.7195 206.14 42.1477 207.003 43.0506C207.218 43.275 207.213 43.4127 207.499 43.3974C207.514 43.3974 207.529 43.3974 207.55 43.3974C208.004 43.4076 208.423 43.6575 208.658 44.0452C208.724 44.1523 208.775 44.239 208.796 44.2748C209.168 44.8766 209.275 44.8205 209.786 45.3153C210.21 45.7285 210.746 46.0855 211.124 46.5395C210.603 45.7642 210.889 44.6981 211.052 43.8565C211.2 43.0965 211.298 42.3415 211.298 41.5662C211.298 40.9388 211.17 40.2961 211.206 39.6738C211.747 39.8625 212.007 40.2451 212.145 40.7756C212.983 40.5358 213.314 39.3933 213.442 38.6383C213.815 38.9648 214.274 39.1127 214.673 39.4086C215.015 39.6636 215.117 40.0054 215.342 40.342C215.515 39.9492 215.781 39.6024 215.97 39.2096C216.097 38.9393 216.205 38.6332 216.353 38.3833C216.746 38.5822 217.159 38.9954 217.481 39.3116C217.634 38.9852 217.844 38.6842 217.981 38.3476C218.354 38.5975 218.615 38.9495 218.947 39.2555C219.232 39.5208 219.513 39.7197 219.758 40.0258C219.794 39.4341 219.462 38.6281 219.309 38.0568L219.314 38.0517Z" fill="#341D3F"/>
<path d="M296.392 171.999C318.267 171.999 336 170.348 336 168.311C336 166.274 318.267 164.623 296.392 164.623C274.516 164.623 256.783 166.274 256.783 168.311C256.783 170.348 274.516 171.999 296.392 171.999Z" fill="#E6E6E6"/>
<path d="M310.234 164.731C310.234 164.731 310.234 164.7 310.245 164.685C310.245 164.685 305.557 153.841 303.019 144.455C301.942 140.456 301.253 136.732 301.477 134.207L294.487 112.294L289.34 96.1655C287.609 91.9216 285.178 93.9619 286.271 88.5652L298.342 88.4326C298.342 88.4326 300.272 96.4052 302.463 105.408C305.21 116.666 308.386 129.54 308.764 130.489C309.188 131.565 309.509 135.799 310.015 141.18C310.689 148.291 311.69 157.421 313.737 163.904L310.234 164.726V164.731Z" fill="#E38C89"/>
<path d="M321.672 167.021C312.823 168.714 309.392 171.31 310.229 164.73L313.732 163.909C313.747 163.955 313.758 163.996 313.773 164.042L321.483 165.031C323.674 165.501 323.03 166.761 321.667 167.021H321.672Z" fill="#341D3F"/>
<path d="M302.463 105.414L292.996 99.7927C293.44 104.22 294.012 108.699 294.487 112.295C294.993 116.151 295.386 118.992 295.396 119.701C295.432 122.746 294.533 125.725 292.828 128.25L280.323 146.705L271.04 160.411L268.379 158.233C268.446 158.167 268.481 158.126 268.481 158.126C268.481 158.126 271.698 147.955 274.047 143.002C278.377 133.897 283.458 124.19 286.353 121.838C286.353 121.838 283.57 106.383 281.875 102.466C279.746 97.5483 279.74 93.7533 280.532 90.953C281.808 86.4591 284.259 84.0566 284.259 84.0566L297.964 85.3523L302.575 105.475L302.463 105.409V105.414Z" fill="#EBADAB"/>
<path d="M275.222 167.384C275.222 167.384 271.259 166.96 270.12 166.695C269.732 166.613 269.375 166.404 269.109 166.108C267.001 163.762 265.887 161.931 266.235 160.518C266.276 160.365 267.935 158.666 268.369 158.228L271.029 160.406L270.937 160.538L272.265 164.267L275.502 165.573C276.427 165.95 276.212 167.302 275.222 167.378V167.384Z" fill="#341D3F"/>
<path d="M244.518 95.4309L246.433 94.88L245.202 95.8135C244.518 96.3388 243.865 96.9203 243.257 97.5375L242.317 98.5067C242.088 98.8434 242.481 99.2922 242.894 99.0627L245.677 96.8183L244.074 98.3282L242.46 100.017C242.139 100.44 242.695 100.833 242.981 100.567L244.447 99.2004L246.377 97.6549L245.254 99.1341C245.008 99.4606 244.804 99.8125 244.656 100.185L244.161 101.47C244.176 102.123 244.523 102.062 244.937 101.832L245.422 100.726C245.611 100.302 245.861 99.9196 246.178 99.5983L247.444 98.2874L246.229 101.486C246.142 101.975 246.918 102.128 247.025 101.654C247.424 100.348 248.532 98.6036 248.532 98.6036C249.966 98.17 251.248 97.3386 252.208 96.2113L253.531 94.6658L254.133 94.2271L251.897 91.4727C251.437 91.998 250.978 92.5387 250.538 93.0998H249.824C248.736 93.0845 247.653 93.3039 246.658 93.7221L244.309 94.7168C243.911 94.9361 243.967 95.4768 244.528 95.436L244.518 95.4309Z" fill="#EBADAB"/>
<path d="M284.75 58.057C283.892 59.5516 284.137 61.4389 285.357 62.6631L298.148 75.5274C299.527 76.9148 301.845 76.6393 302.861 74.9714L310.857 61.8622L306.997 60.6686L300.762 68.2638L290.928 57.3939C289.182 55.4607 286.052 55.7974 284.755 58.057H284.75Z" fill="#6F9E92"/>
<path d="M309.519 62.6684C309.519 62.6173 309.504 62.5663 309.499 62.5153C309.499 62.4235 309.484 62.3368 309.479 62.2501C309.499 62.2042 309.514 62.1532 309.519 62.0869C309.581 59.8527 309.371 57.6644 308.897 55.4915C308.83 54.8386 308.723 54.201 308.478 53.7266C308.422 53.6144 308.284 53.543 308.161 53.543C307.886 53.543 307.717 53.6093 307.411 53.6858C307.319 53.7062 307.242 53.7776 307.191 53.8643C307.114 53.9051 307.058 53.9765 307.043 54.0837C306.732 56.2413 304.791 62.5561 307.155 64.372C307.416 64.673 307.783 64.8515 308.294 64.8107C309.392 64.7189 309.601 63.5967 309.525 62.6633L309.519 62.6684Z" fill="#95455C"/>
<path d="M308.309 56.1198C308.325 55.977 308.1 55.977 308.09 56.1198C307.86 58.4152 307.85 60.7004 308.064 63.0008C308.08 63.1437 308.299 63.1437 308.284 63.0008C308.069 60.7055 308.08 58.4152 308.309 56.1198Z" fill="#341D3F"/>
<path d="M309.412 61.9699L310.638 62.1535L312.216 59.5725C312.216 59.5725 313.267 57.8688 311.159 56.4865C309.913 55.6704 308.35 55.5123 306.926 55.9356L305.792 56.2723C305.792 56.2723 304.965 57.42 308.447 57.0986C308.447 57.0986 305.756 56.9915 305.685 58.0678C305.685 58.0678 305.256 59.2512 309.274 58.1749C309.274 58.1749 305.976 58.4248 305.721 59.7153C305.721 59.7153 305.685 60.863 309.56 59.5011C309.453 59.5011 309.463 59.9653 309.412 61.9699Z" fill="#EBADAB"/>
<path d="M308.228 49.483C308.473 49.4626 323.515 41.9746 323.515 41.9746V60.3478L308.355 55.0531C306.017 55.2266 305.715 49.6922 308.228 49.483Z" fill="#E26B6D"/>
<path d="M326.094 51.0797C326.094 56.201 325.042 60.353 323.74 60.353C322.714 60.353 321.83 57.7414 321.519 54.0994C321.432 53.1507 321.391 52.1356 321.391 51.0797C321.391 49.7127 321.463 48.4171 321.601 47.249C321.968 44.0457 322.79 41.8115 323.745 41.8115C325.042 41.8115 326.099 45.9636 326.099 51.0797H326.094Z" fill="#95455C"/>
<path d="M324.123 50.6666C324.123 52.406 322.995 53.8444 321.519 54.0994C321.432 53.1507 321.391 52.1356 321.391 51.0797C321.391 49.7127 321.463 48.4171 321.601 47.249C323.036 47.5398 324.123 48.9578 324.123 50.6666Z" fill="#E26B6D"/>
<path d="M308.575 55.2219H307.043C305.419 55.2219 304.102 53.9058 304.102 52.2838C304.102 50.6617 305.419 49.3457 307.043 49.3457H308.575C306.762 51.4115 306.915 53.3652 308.575 55.2219Z" fill="#95455C"/>
<path d="M320.309 44.1624C316.607 45.9324 312.915 47.733 309.239 49.554C309.111 49.6152 309.223 49.8091 309.351 49.7428C313.027 47.9218 316.719 46.1212 320.421 44.3512C320.549 44.29 320.436 44.1012 320.309 44.1624Z" fill="#341D3F"/>
<path d="M322.826 59.0471C320.784 54.1248 321.248 48.4731 322.479 43.4181C322.515 43.2804 322.3 43.2192 322.264 43.3569C321.024 48.4578 320.544 54.1299 322.612 59.1032C322.668 59.2307 322.882 59.1746 322.826 59.042V59.0471Z" fill="#341D3F"/>
<path d="M323.919 43.1987C323.858 43.0712 323.664 43.1834 323.73 43.311C324.23 44.326 324.486 45.3972 324.511 46.5245C324.511 46.6673 324.736 46.6673 324.731 46.5245C324.705 45.3564 324.435 44.2444 323.919 43.1987Z" fill="#341D3F"/>
<path d="M324.879 44.6474C324.843 44.5097 324.629 44.5658 324.664 44.7087C325.017 46.0655 325.18 47.4427 325.155 48.8403C325.155 48.9831 325.374 48.9831 325.374 48.8403C325.4 47.4172 325.236 46.0247 324.879 44.6474Z" fill="#341D3F"/>
<path d="M322.622 48.7383C322.515 48.6414 322.361 48.7995 322.464 48.8964C323.24 49.6054 323.229 51.406 322.729 52.2375C322.658 52.3599 322.846 52.4721 322.918 52.3497C323.485 51.4111 323.475 49.5238 322.617 48.7383H322.622Z" fill="#341D3F"/>
<path d="M308.713 55.2266C307.048 53.9769 306.772 51.804 307.998 50.1411C308.085 50.0238 307.891 49.9167 307.809 50.0289C306.502 51.7989 306.854 54.0993 308.606 55.4153C308.718 55.5021 308.83 55.3082 308.718 55.2266H308.713Z" fill="#341D3F"/>
<path d="M309.862 56.4863C308.907 56.5424 307.998 56.7822 307.084 57.0423C306.946 57.0831 307.007 57.2974 307.145 57.2566C308.039 57.0015 308.932 56.7618 309.867 56.7108C310.01 56.7006 310.01 56.4812 309.867 56.4914L309.862 56.4863Z" fill="#341D3F"/>
<path d="M309.688 57.7364C308.784 57.9251 307.901 58.1699 307.028 58.4709C306.895 58.5168 306.951 58.731 307.089 58.6851C307.962 58.3791 308.846 58.1342 309.749 57.9506C309.887 57.92 309.831 57.7058 309.688 57.7364Z" fill="#341D3F"/>
<path d="M311.327 58.4405C310.74 58.7976 310.127 59.1139 309.494 59.3893C309.484 59.3893 309.484 59.3995 309.479 59.4046C309.412 59.3842 309.331 59.4097 309.341 59.4964C309.366 59.7566 309.397 60.0167 309.423 60.2768C309.423 60.4962 309.423 60.7104 309.428 60.9297C309.428 61.0522 309.622 61.0828 309.647 60.9604C309.657 60.8991 309.673 60.8379 309.683 60.7767C309.846 60.3585 309.979 59.9351 310.081 59.5015C310.097 59.4454 310.066 59.3995 310.025 59.3791C310.505 59.1547 310.975 58.9098 311.429 58.6344C311.552 58.5579 311.439 58.3691 311.317 58.4456L311.327 58.4405Z" fill="#341D3F"/>
<path d="M288.574 55.9253H288.6C288.6 55.9253 288.569 55.915 288.554 55.915L288.564 55.9253C288.564 55.9253 288.574 55.915 288.579 55.9253H288.574Z" fill="#F4E3B8"/>
<path d="M276.003 65.8207C276.651 67.7182 277.121 69.6871 278.377 71.2939C278.811 71.8294 279.235 72.3701 279.664 72.9006C280.164 73.5535 280.665 74.2013 281.145 74.8695C281.523 75.3898 281.875 75.905 282.222 76.4457C283.32 78.1545 284.489 80.2305 284.515 82.3168C284.52 82.9084 284.423 83.4899 284.259 84.0561L297.964 85.3568V85.3773C297.709 80.6641 297.52 75.9458 297.331 71.2684C297.331 71.1918 297.316 71.1102 297.316 71.0388C297.311 70.8501 297.224 70.1462 297.265 70.0952C298.419 69.0648 299.583 64.7597 293.813 60.1536C292.148 58.8223 290.453 57.5369 288.758 56.2668C288.012 55.7108 287.344 55.7465 286.567 55.8485C286.389 55.8536 286.184 55.8893 285.996 55.9098C284.27 56.1036 282.534 56.2872 280.854 56.7157C280.598 56.7871 280.302 56.8636 280.016 56.9452C279.638 57.0472 279.25 57.1595 278.898 57.3278C278.597 57.4553 278.311 57.6134 278.061 57.8073C275.589 59.7201 275.017 62.8928 275.998 65.8258L276.003 65.8207Z" fill="#6F9E92"/>
<path d="M276.677 59.256L266.898 74.5738C265.974 76.0224 264.917 77.3894 263.748 78.6494L250.431 92.9827C250.61 93.3346 253.607 94.7935 253.607 94.7935L268.017 82.6178C269.732 81.1641 271.274 79.5165 272.607 77.7057L282.988 63.5713C284.321 61.7554 283.8 59.1897 281.87 58.0318C280.093 56.9708 277.795 57.5115 276.682 59.256H276.677Z" fill="#6F9E92"/>
<path d="M286.777 48.2639L286.399 55.3183L286.363 56.0172L286.343 56.4711C286.322 56.8945 285.985 57.2413 285.551 57.2669L282.625 57.4607C282.151 57.4913 281.747 57.1138 281.752 56.6395L281.793 52.7424L281.803 51.962L281.824 49.988L286.777 48.2588V48.2639Z" fill="#EBADAB"/>
<path d="M286.777 48.2637L286.399 55.3181L286.363 56.0169C284.275 55.7313 282.544 54.1347 281.803 51.972L281.824 49.998L286.777 48.2688V48.2637Z" fill="#E38C89"/>
<path d="M289.524 40.6785C289.754 41.5559 289.963 42.5556 289.989 43.3514C290.004 43.7594 290.162 44.1522 290.469 44.4276L291.965 45.7692C292.123 45.912 292.164 46.1466 292.051 46.3302C291.888 46.6006 291.607 46.9576 291.229 47.0852C291.229 47.0852 291.214 49.3601 290.116 51.1709C289.769 51.7422 289.202 52.1503 288.564 52.339C281.686 54.3436 278.275 51.4515 277.269 44.5194C277.05 43.0045 277.422 41.4589 278.301 40.199C279.684 38.2148 282.528 35.1543 286.205 36.7101C287.88 37.4191 289.075 38.9187 289.529 40.6785H289.524Z" fill="#EBADAB"/>
<path d="M287.323 43.897C287.374 43.897 287.425 43.8664 287.451 43.8154C288.023 42.9024 288.881 43.3563 288.916 43.3767C288.998 43.4226 289.105 43.392 289.146 43.3104C289.192 43.2288 289.161 43.1268 289.08 43.0809C288.676 42.8565 287.757 42.6881 287.155 43.6369C287.104 43.7185 287.129 43.8205 287.211 43.8715C287.241 43.8919 287.282 43.9021 287.318 43.897H287.323Z" fill="#341D3F"/>
<path d="M290.249 48.0395C290.213 48.0038 290.157 47.9885 290.106 47.9987C289.044 48.1875 288.809 47.2438 288.799 47.203C288.778 47.1112 288.686 47.0551 288.594 47.0755C288.503 47.0959 288.446 47.1877 288.467 47.2795C288.569 47.7284 289.059 48.5292 290.167 48.3354C290.259 48.3201 290.32 48.2283 290.305 48.1364C290.3 48.1007 290.28 48.065 290.254 48.0395H290.249Z" fill="#341D3F"/>
<path d="M289.125 44.8412C289.212 45.1217 289.074 45.4125 288.819 45.4941C288.564 45.5706 288.288 45.4074 288.201 45.1268C288.114 44.8463 288.252 44.5555 288.508 44.4739C288.763 44.3974 289.044 44.5606 289.125 44.8412Z" fill="#341D3F"/>
<path d="M292.501 40.995C292.588 39.2811 291.5 37.1948 289.948 36.3685C289.488 36.1237 288.977 35.9757 288.462 35.9043C287.435 35.3279 286.087 34.9352 285.245 34.8536C283.519 34.6852 281.768 34.9097 280.2 35.6697C278.51 36.4858 277.315 38.0875 276.314 39.6177C275.267 41.2143 274.057 42.969 274.062 44.9532C274.062 46.2998 275.421 46.9884 275.599 48.3146C275.763 49.5439 274.696 50.6202 274.062 51.5639C273.332 52.6606 272.694 53.8541 272.699 55.1957C272.699 55.7772 272.674 56.425 273.184 56.8228C273.782 57.2921 274.205 56.6851 274.798 56.4964C275.523 56.2668 276.161 56.3995 276.743 56.8891C276.978 57.0881 277.228 57.5216 277.529 57.6135C277.964 57.7461 278.341 57.3941 278.719 57.2462C280.118 56.7157 281.446 56.7718 282.636 57.6339C283.509 58.2664 284.086 59.1437 284.857 59.8731C285.817 60.7811 287.466 61.0769 288.732 61.1585C289.396 61.1993 290.121 61.2044 290.78 61.1381C291.352 61.0769 291.924 60.8423 292.501 60.8831C289.846 60.7148 287.441 59.1743 286.036 56.9146C285.327 55.7772 284.877 54.4816 284.724 53.1502C284.647 52.4769 284.239 49.85 284.663 49.5899C282.804 50.7273 280.92 48.2381 281.257 46.4937C281.425 45.6214 282.207 44.9124 283.085 44.7441C284.31 44.5094 284.637 45.5092 285.505 46.0295C285.541 45.0603 285.475 44.0963 285.766 43.1577C286.133 41.9794 286.915 41.0103 287.446 39.8932C287.772 40.2349 287.977 40.7195 288.176 41.1531C288.206 41.4999 288.206 41.8519 288.212 42.1528C288.533 42.1988 288.789 42.0661 289.069 41.9233C289.314 41.7958 289.846 41.148 290.07 41.1429C290.458 41.1429 291.117 42.0814 291.158 42.4283C291.551 41.4999 291.342 40.5563 291.234 39.6228C291.648 40.1074 292.21 40.4237 292.511 41.0001L292.501 40.995Z" fill="#DF6F22"/>
<path d="M297.117 67.6117C297.117 67.5607 297.091 67.5352 297.055 67.5199C297.494 66.6629 297.704 65.6989 297.643 64.694C297.632 64.5512 297.413 64.5512 297.423 64.694C297.52 66.2957 296.938 67.7647 295.769 68.8665C295.666 68.9634 295.82 69.1216 295.927 69.0246C296.315 68.6625 296.632 68.2493 296.892 67.8106C296.749 71.3914 297.586 74.9161 297.449 78.502C297.443 78.6448 297.663 78.6448 297.668 78.502C297.806 74.8498 296.928 71.2639 297.117 67.6168V67.6117Z" fill="#341D3F"/>
<path d="M280.772 65.7704C279.771 67.3108 278.77 68.8564 277.764 70.3968C277.688 70.5141 277.877 70.6264 277.953 70.509L280.961 65.8826C281.037 65.7602 280.849 65.6531 280.772 65.7704Z" fill="#341D3F"/>
<path d="M283.172 58.5373C283.151 58.3945 282.937 58.4557 282.957 58.5986C283.238 60.3583 282.988 62.0722 282.227 63.6841C282.166 63.8116 282.355 63.9238 282.416 63.7963C283.208 62.1283 283.463 60.3634 283.172 58.5424V58.5373Z" fill="#341D3F"/>
<path d="M287.395 56.2519C287.369 56.1142 287.155 56.1703 287.18 56.3131C287.282 56.9099 287.134 57.5067 286.756 57.9811C286.67 58.0933 286.823 58.2515 286.915 58.1392C287.349 57.5935 287.517 56.9405 287.395 56.257V56.2519Z" fill="#341D3F"/>
<path d="M293.578 66.8875C291.975 68.8513 288.993 70.5397 286.491 69.2032C286.363 69.1369 286.251 69.3257 286.378 69.392C288.962 70.7743 292.057 69.091 293.731 67.0405C293.823 66.9334 293.665 66.7752 293.573 66.8824L293.578 66.8875Z" fill="#341D3F"/>
<path d="M287.435 37.5928C287.328 37.4959 287.17 37.654 287.277 37.7509C288.171 38.5467 288.457 39.6739 288.594 40.8216C288.61 40.9593 288.834 40.9644 288.814 40.8216C288.671 39.6127 288.37 38.4293 287.43 37.5928H287.435Z" fill="#341D3F"/>
<path d="M287.767 36.8437C287.635 36.7927 287.578 37.007 287.706 37.058C289.192 37.6395 289.948 39.0473 290.244 40.5418C290.269 40.6796 290.484 40.6234 290.458 40.4806C290.147 38.8994 289.325 37.4558 287.767 36.8437Z" fill="#341D3F"/>
<path d="M291.142 38.5111C290.55 37.5572 289.468 36.2055 288.201 36.3483C288.063 36.3636 288.058 36.5881 288.201 36.5677C289.381 36.43 290.402 37.7307 290.948 38.6182C291.025 38.7406 291.214 38.6284 291.137 38.506L291.142 38.5111Z" fill="#341D3F"/>
<path d="M287.282 36.5118C282.595 33.9103 278.055 37.333 277.131 42.1227C277.106 42.2604 277.32 42.3216 277.346 42.1839C278.239 37.5676 282.559 34.1399 287.175 36.7056C287.297 36.777 287.41 36.5832 287.287 36.5168L287.282 36.5118Z" fill="#341D3F"/>
<path d="M279.286 40.424C278.484 41.8573 276.988 43.4896 277.581 45.2086C277.958 46.3155 278.898 46.7439 278.576 48.2691C278.464 48.8098 278.009 49.4372 277.805 49.9421C277.31 51.1714 277.055 52.416 276.942 53.7321C276.932 53.8749 277.152 53.8749 277.162 53.7321C277.325 51.809 277.933 50.641 278.571 48.8455C278.791 48.2283 278.959 47.8712 278.826 47.2285C278.719 46.7184 278.377 46.3359 278.183 45.8717C277.274 43.7344 278.515 42.2654 279.48 40.5362C279.551 40.4138 279.357 40.3016 279.291 40.424H279.286Z" fill="#341D3F"/>
<path d="M281.89 38.9189C281.931 38.7811 281.722 38.725 281.676 38.8576C281.007 40.9643 280.874 43.1015 281.272 45.2745C281.298 45.4122 281.512 45.3561 281.487 45.2133C281.099 43.076 281.236 40.9847 281.89 38.9138V38.9189Z" fill="#341D3F"/>
<path d="M281.334 49.6613C281.39 49.5287 281.175 49.4726 281.119 49.6001C280.44 51.2732 280.215 53.0023 280.445 54.7927C280.465 54.9305 280.685 54.9356 280.665 54.7927C280.435 53.0278 280.659 51.3089 281.334 49.6562V49.6613Z" fill="#341D3F"/>
<path d="M284.479 38.4653C284.06 40.3322 283.677 42.2093 283.33 44.0915C283.304 44.2293 283.519 44.2905 283.544 44.1528C283.892 42.2705 284.275 40.3934 284.693 38.5265C284.724 38.3888 284.51 38.3276 284.479 38.4653Z" fill="#341D3F"/>
<path d="M284.913 58.3183C283.882 55.8546 283.299 53.3041 283.172 50.6364C283.167 50.4936 282.942 50.4936 282.952 50.6364C283.08 53.3246 283.657 55.8903 284.704 58.3795C284.76 58.507 284.974 58.4509 284.918 58.3183H284.913Z" fill="#341D3F"/>
<path d="M276.36 48.8051C275.201 50.2384 273.69 52.4981 273.843 54.4415C273.853 54.5843 274.078 54.5843 274.062 54.4415C273.919 52.5644 275.39 50.3558 276.518 48.9581C276.605 48.8459 276.452 48.6929 276.36 48.8V48.8051Z" fill="#341D3F"/>
<path d="M276.447 48.1566C274.813 46.3917 274.639 43.9637 275.982 41.9744C276.064 41.8571 275.87 41.7449 275.793 41.8622C274.394 43.9331 274.599 46.4784 276.294 48.3147C276.391 48.4218 276.549 48.2637 276.452 48.1566H276.447Z" fill="#341D3F"/>
<path d="M284.254 84.0566L297.959 85.3574C297.959 85.3574 306.149 101.155 308.069 114.585C308.069 114.585 295.069 118.865 275.564 114.437L277.249 109.857C278.683 105.949 279.378 101.797 279.179 97.6402C278.964 93.2177 279.628 87.0814 284.254 84.0566Z" fill="#E26B6D"/>
<path d="M282.447 98.4968C282.437 98.3539 282.217 98.3539 282.227 98.4968C282.544 103.644 281.696 108.663 279.71 113.422C279.654 113.554 279.868 113.611 279.924 113.483C281.921 108.698 282.768 103.669 282.447 98.5019V98.4968Z" fill="#341D3F"/>
<path d="M288.176 86.5666C283.371 95.1972 286.986 104.333 286.751 113.55C286.751 113.693 286.971 113.693 286.971 113.55C287.206 104.384 283.575 95.2788 288.365 86.6788C288.436 86.5564 288.242 86.4442 288.176 86.5666Z" fill="#341D3F"/>
<path d="M291.377 88.4482C291.352 88.3105 291.137 88.3666 291.163 88.5094C292.496 96.1862 293.828 103.858 295.156 111.535C295.181 111.672 295.396 111.616 295.37 111.473C294.038 103.797 292.705 96.125 291.377 88.4482Z" fill="#341D3F"/>
<path d="M297.786 92.7226C297.75 92.5849 297.535 92.641 297.571 92.7838C299.379 99.4914 301.084 106.225 302.682 112.983C302.713 113.121 302.927 113.065 302.897 112.922C301.299 106.163 299.593 99.4302 297.786 92.7226Z" fill="#341D3F"/>
<path d="M297.627 104.235C297.602 104.098 297.387 104.154 297.413 104.297C298.123 107.842 299.026 111.325 300.134 114.763C300.18 114.896 300.39 114.84 300.349 114.702C299.241 111.264 298.332 107.78 297.627 104.235Z" fill="#341D3F"/>
<path d="M303.045 102.476C303.019 102.338 302.805 102.394 302.83 102.537C303.596 106.587 304.495 110.606 305.516 114.6C305.552 114.738 305.767 114.682 305.731 114.539C304.704 110.545 303.811 106.526 303.045 102.476Z" fill="#341D3F"/>
<path d="M289.871 106.026C289.866 105.883 289.641 105.883 289.651 106.026C289.805 109.076 289.845 112.127 289.784 115.177C289.784 115.32 290.004 115.32 290.004 115.177C290.065 112.127 290.024 109.076 289.871 106.026Z" fill="#341D3F"/>
<path d="M283.31 107.179C282.962 109.332 282.452 111.438 281.778 113.509C281.732 113.647 281.946 113.703 281.992 113.571C282.666 111.5 283.177 109.393 283.524 107.24C283.544 107.103 283.335 107.041 283.31 107.179Z" fill="#341D3F"/>
<path d="M284.796 86.1682C282.482 88.3157 281.247 91.2078 281.293 94.3602C281.293 94.503 281.517 94.503 281.512 94.3602C281.461 91.2537 282.666 88.4381 284.949 86.3212C285.056 86.2243 284.898 86.0662 284.79 86.1631L284.796 86.1682Z" fill="#341D3F"/>
<path d="M296.805 86.51C296.754 86.3774 296.54 86.4335 296.591 86.5712C297.178 88.1065 297.637 89.6725 297.969 91.2844C298 91.4221 298.214 91.366 298.184 91.2232C297.852 89.6113 297.392 88.0453 296.805 86.51Z" fill="#341D3F"/>
<path d="M297.188 85.0609C294.87 84.8874 292.552 84.7191 290.234 84.5457C288.314 84.4029 286.419 83.9948 284.499 83.9336C284.356 83.9336 284.356 84.1529 284.499 84.1529C286.409 84.2141 288.319 84.6222 290.234 84.765C292.552 84.9385 294.87 85.1068 297.188 85.2802C297.331 85.2904 297.331 85.0711 297.188 85.0609Z" fill="#341D3F"/>
<path d="M158.495 14.1747C158.51 14.0778 158.526 13.9808 158.536 13.8839C159.169 8.29341 155.14 3.24869 149.544 2.62129C146.179 2.24383 143.013 3.54454 140.884 5.86032C139.965 5.1258 138.836 4.63102 137.58 4.4882C134.031 4.09033 130.825 6.64075 130.426 10.1858C130.426 10.2215 130.426 10.2572 130.421 10.2929C127.174 10.497 124.473 13.129 124.371 16.5619C124.268 19.9488 126.913 22.8002 130.283 23.1776C130.656 23.2184 131.003 23.4021 131.249 23.6877L136.554 29.8342C136.748 26.8757 139.321 24.6467 142.278 24.866L154.042 25.7536C156.161 25.978 158.306 25.2129 159.68 23.5857C160.471 22.6472 161.007 21.4689 161.155 20.1528C161.426 17.7453 160.333 15.4958 158.49 14.1747H158.495Z" fill="#E26B6D"/>
<path d="M136.13 21.7799C136.13 21.7799 136.778 16.1129 144.887 16.1129V18.2552C144.887 18.7857 145.484 19.0918 145.918 18.7908L150.938 15.2611C151.464 14.8887 151.464 14.1083 150.938 13.7359L146.082 10.3541C145.648 10.0531 145.056 10.3643 145.056 10.8896V12.879C145.056 12.879 137.437 12.0679 136.14 21.785L136.13 21.7799Z" fill="white"/>
<path d="M146.822 4.23271C146.552 4.32453 146.669 4.753 146.94 4.66118C151.06 3.25335 155.906 8.06854 155.207 12.1951C155.161 12.4757 155.584 12.593 155.635 12.3124C156.386 7.8645 151.311 2.70246 146.822 4.23271Z" fill="#341D3F"/>
<path d="M157.775 16.2409C157.545 16.0675 157.326 16.4552 157.55 16.6235C158.786 17.5519 159.409 19.3576 159.016 20.8725C158.704 22.0763 157.693 22.9179 156.779 23.6882C156.56 23.8718 156.876 24.1829 157.091 23.9993C158.347 22.9383 159.521 21.7958 159.552 20.0513C159.577 18.5516 158.97 17.1438 157.77 16.2409H157.775Z" fill="#341D3F"/>
<path d="M141.323 7.53877C140.062 5.62085 137.881 4.78942 135.655 5.37091C135.379 5.44233 135.497 5.8708 135.773 5.79938C137.8 5.2689 139.786 6.00852 140.94 7.7632C141.098 8.00294 141.481 7.77851 141.323 7.53877Z" fill="#341D3F"/>
<path d="M150.657 14.5262C149.263 13.3938 147.828 12.3125 146.363 11.277C146.128 11.1138 145.908 11.4963 146.138 11.6596C147.578 12.6695 148.977 13.7305 150.346 14.8374C150.565 15.0159 150.882 14.7047 150.657 14.5262Z" fill="#341D3F"/>
<path d="M144.816 13.5017C142.094 13.6904 139.275 14.5167 138.029 17.1641C137.907 17.4191 138.29 17.6435 138.412 17.3885C139.597 14.8738 142.237 14.1189 144.816 13.9454C145.096 13.925 145.101 13.4813 144.816 13.5017Z" fill="#341D3F"/>
<path d="M296.79 14.1747C296.805 14.0778 296.821 13.9808 296.831 13.8839C297.464 8.29341 293.435 3.24869 287.839 2.62129C284.474 2.24383 281.308 3.54454 279.179 5.86032C278.26 5.1258 277.131 4.63102 275.875 4.4882C272.326 4.09033 269.12 6.64075 268.721 10.1858C268.721 10.2215 268.721 10.2572 268.716 10.2929C265.469 10.497 262.768 13.129 262.665 16.5619C262.563 19.9488 265.208 22.8002 268.578 23.1776C268.951 23.2184 269.298 23.4021 269.543 23.6877L274.849 29.8342C275.043 26.8757 277.616 24.6467 280.573 24.866L292.337 25.7536C294.456 25.978 296.601 25.2129 297.974 23.5857C298.766 22.6472 299.302 21.4689 299.45 20.1528C299.721 17.7453 298.628 15.4958 296.785 14.1747H296.79Z" fill="#E26B6D"/>
<path d="M274.43 21.7799C274.43 21.7799 275.079 16.1129 283.187 16.1129V18.2552C283.187 18.7857 283.785 19.0918 284.219 18.7908L289.238 15.2611C289.764 14.8887 289.764 14.1083 289.238 13.7359L284.382 10.3541C283.948 10.0531 283.356 10.3643 283.356 10.8896V12.879C283.356 12.879 275.737 12.0679 274.44 21.785L274.43 21.7799Z" fill="white"/>
<path d="M285.117 4.23271C284.847 4.32453 284.964 4.753 285.235 4.66118C289.355 3.25335 294.201 8.06854 293.502 12.1951C293.456 12.4757 293.879 12.593 293.93 12.3124C294.681 7.8645 289.606 2.70246 285.117 4.23271Z" fill="#341D3F"/>
<path d="M296.07 16.2409C295.84 16.0675 295.621 16.4552 295.845 16.6235C297.081 17.5519 297.704 19.3576 297.311 20.8725C296.999 22.0763 295.988 22.9179 295.074 23.6882C294.855 23.8718 295.171 24.1829 295.386 23.9993C296.642 22.9383 297.816 21.7958 297.847 20.0513C297.872 18.5516 297.265 17.1438 296.065 16.2409H296.07Z" fill="#341D3F"/>
<path d="M279.618 7.53877C278.357 5.62085 276.176 4.78942 273.95 5.37091C273.674 5.44233 273.792 5.8708 274.067 5.79938C276.095 5.2689 278.081 6.00852 279.235 7.7632C279.393 8.00294 279.776 7.77851 279.618 7.53877Z" fill="#341D3F"/>
<path d="M288.952 14.5262C287.558 13.3938 286.123 12.3125 284.658 11.277C284.423 11.1138 284.203 11.4963 284.433 11.6596C285.873 12.6695 287.272 13.7305 288.641 14.8374C288.86 15.0159 289.177 14.7047 288.952 14.5262Z" fill="#341D3F"/>
<path d="M283.111 13.5017C280.389 13.6904 277.57 14.5167 276.324 17.1641C276.202 17.4191 276.585 17.6435 276.707 17.3885C277.892 14.8738 280.532 14.1189 283.111 13.9454C283.391 13.925 283.396 13.4813 283.111 13.5017Z" fill="#341D3F"/>
<path d="M228.209 10.8391C228.219 10.7473 228.23 10.6504 228.235 10.5586C228.602 5.10582 224.487 0.387548 219.044 0.0253895C215.771 -0.193946 212.763 1.20878 210.802 3.55006C209.878 2.87675 208.77 2.44318 207.545 2.36157C204.093 2.12693 201.101 4.74366 200.866 8.20202C200.866 8.23773 200.866 8.26833 200.866 8.30404C197.731 8.64579 195.229 11.3135 195.28 14.6495C195.331 17.9395 198.011 20.5919 201.295 20.8113C201.657 20.8368 201.999 20.9949 202.25 21.2601L207.652 26.9935C207.713 24.1166 210.103 21.8365 212.978 21.9233L224.405 22.265C226.468 22.3925 228.505 21.5509 229.767 19.9135C230.492 18.9648 230.961 17.8018 231.048 16.5164C231.207 14.1649 230.053 12.0327 228.209 10.834V10.8391Z" fill="#E26B6D"/>
<path d="M219.876 11.6655C220.468 11.7063 220.984 11.2166 220.953 10.6045C220.928 10.0893 220.499 9.68637 219.988 9.65067L216.215 9.39563C216.537 8.605 216.705 7.75826 216.7 6.90132C216.69 5.69242 216.337 4.99361 215.628 4.83548C215.214 4.74367 214.826 5.05482 214.795 5.47819C214.714 6.65648 214.356 7.80417 213.749 8.81413L212.972 10.1097C212.692 10.579 212.247 10.9412 211.732 11.1197L211.4 16.0726C212.232 16.4297 213.115 16.649 214.019 16.7102L218.104 17.001C218.656 17.0367 219.141 16.6133 219.176 16.0624C219.192 15.8023 219.11 15.5574 218.957 15.3687C219.498 15.3891 219.963 14.9708 219.999 14.4301C220.019 14.1445 219.917 13.8844 219.738 13.6854H219.748C220.3 13.7211 220.785 13.3029 220.821 12.7469C220.856 12.1909 220.438 11.7114 219.881 11.6706L219.876 11.6655Z" fill="white"/>
<path d="M209.155 10.1294L211.177 10.2653C211.631 10.2958 211.973 10.6869 211.942 11.1399L211.623 15.8831C211.592 16.336 211.201 16.6778 210.747 16.6473L208.725 16.5114C208.271 16.4809 207.929 16.0898 207.96 15.6368L208.279 10.8936C208.31 10.4406 208.701 10.0989 209.155 10.1294Z" fill="#95455C"/>
<path d="M220.77 1.31554C220.494 1.25433 220.371 1.6828 220.652 1.74401C224.691 2.62645 225.779 6.77343 225.998 10.3644C226.014 10.6501 226.458 10.6501 226.443 10.3644C226.208 6.57959 224.982 2.24389 220.77 1.32064V1.31554Z" fill="#341D3F"/>
<path d="M228.03 12.2314C227.847 12.0121 227.535 12.3283 227.719 12.5426C229.389 14.537 229.373 17.2149 227.683 19.1889C227.499 19.4032 227.811 19.7194 227.995 19.5001C229.848 17.3322 229.864 14.4095 228.03 12.2263V12.2314Z" fill="#341D3F"/>
<path d="M209.296 3.85105C208.474 3.24405 207.238 3.15223 206.253 3.21344C205.972 3.23385 205.967 3.67252 206.253 3.65721C207.106 3.60111 208.101 3.65721 208.857 4.10099C209.582 4.51925 209.745 5.36089 209.888 6.11581C209.945 6.39636 210.368 6.27904 210.317 5.9985C210.164 5.21807 209.97 4.35603 209.291 3.85615L209.296 3.85105Z" fill="#341D3F"/>
<path d="M211.533 10.6654C211.063 10.5379 210.593 10.5175 210.113 10.5838C209.832 10.6246 209.95 11.048 210.23 11.0123C210.547 10.9664 210.859 10.9817 211.17 11.0378C211.114 11.9866 211.058 12.9353 211.001 13.8841C210.986 14.1697 211.43 14.1697 211.446 13.8841C211.502 12.9353 211.558 11.9917 211.614 11.0429C211.727 10.9358 211.727 10.7165 211.533 10.6654Z" fill="#341D3F"/>
<path d="M216 5.35613C215.863 5.10619 215.48 5.33062 215.618 5.58056C216.358 6.91698 216.036 8.43703 215.388 9.73774C215.26 9.99278 215.643 10.2172 215.771 9.96218C216.491 8.50844 216.823 6.83537 216 5.35613Z" fill="#341D3F"/>
<path d="M219.953 11.1094C219.207 11.0277 218.462 10.9716 217.716 10.9359C217.43 10.9206 217.43 11.3644 217.716 11.3797C218.462 11.4154 219.207 11.4715 219.953 11.5531C220.234 11.5837 220.234 11.14 219.953 11.1094Z" fill="#341D3F"/>
<path d="M219.396 13.1904H217.844C217.558 13.1904 217.558 13.6342 217.844 13.6342H219.396C219.682 13.6342 219.682 13.1904 219.396 13.1904Z" fill="#341D3F"/>
<path d="M219.008 15.1289H218.145C217.859 15.1289 217.859 15.5727 218.145 15.5727H219.008C219.294 15.5727 219.294 15.1289 219.008 15.1289Z" fill="#341D3F"/>
</g>
<defs>
<clipPath id="clip0_139_1982">
<rect width="336" height="172" fill="white"/>
</clipPath>
</defs>
</svg>
