<svg width="67" height="8" viewBox="0 0 67 8" fill="none" xmlns="http://www.w3.org/2000/svg">
<path d="M3.135 7.96403C2.519 7.96403 1.92867 7.88336 1.364 7.72203C0.799335 7.55336 0.344668 7.33703 1.35228e-06 7.07303L0.605001 5.73103C0.935001 5.9657 1.32367 6.16003 1.771 6.31403C2.22567 6.4607 2.684 6.53403 3.146 6.53403C3.498 6.53403 3.78033 6.50103 3.993 6.43503C4.213 6.3617 4.37434 6.2627 4.477 6.13803C4.57967 6.01336 4.631 5.87036 4.631 5.70903C4.631 5.5037 4.55033 5.34236 4.389 5.22503C4.22767 5.10036 4.015 5.00136 3.751 4.92803C3.487 4.84736 3.19367 4.77403 2.871 4.70803C2.55567 4.6347 2.23667 4.5467 1.914 4.44403C1.59867 4.34136 1.309 4.20936 1.045 4.04803C0.781001 3.8867 0.564668 3.67403 0.396001 3.41003C0.234668 3.14603 0.154001 2.8087 0.154001 2.39803C0.154001 1.95803 0.271335 1.55836 0.506001 1.19903C0.748001 0.832364 1.10733 0.542697 1.584 0.330031C2.068 0.110031 2.673 3.11136e-05 3.399 3.11136e-05C3.883 3.11136e-05 4.35967 0.0586977 4.829 0.176031C5.29833 0.286031 5.71267 0.454697 6.072 0.682031L5.522 2.03503C5.16267 1.8297 4.80333 1.67936 4.444 1.58403C4.08467 1.48136 3.73267 1.43003 3.388 1.43003C3.04333 1.43003 2.761 1.47036 2.541 1.55103C2.321 1.6317 2.16333 1.73803 2.068 1.87003C1.97267 1.9947 1.925 2.14136 1.925 2.31003C1.925 2.50803 2.00567 2.66936 2.167 2.79403C2.32833 2.91136 2.541 3.0067 2.805 3.08003C3.069 3.15336 3.35867 3.2267 3.674 3.30003C3.99667 3.37336 4.31567 3.4577 4.631 3.55303C4.95367 3.64836 5.247 3.7767 5.511 3.93803C5.775 4.09936 5.98767 4.31203 6.149 4.57603C6.31767 4.84003 6.402 5.1737 6.402 5.57703C6.402 6.0097 6.281 6.4057 6.039 6.76503C5.797 7.12436 5.434 7.41403 4.95 7.63403C4.47333 7.85403 3.86833 7.96403 3.135 7.96403ZM9.10723 7.83203V1.58403H6.64323V0.132031H13.3532V1.58403H10.8892V7.83203H9.10723ZM15.951 3.23403H19.658V4.62003H15.951V3.23403ZM16.083 6.40203H20.274V7.83203H14.312V0.132031H20.131V1.56203H16.083V6.40203ZM21.6919 7.83203V0.132031H25.0249C25.7142 0.132031 26.3082 0.245697 26.8069 0.473031C27.3056 0.693031 27.6906 1.01203 27.9619 1.43003C28.2332 1.84803 28.3689 2.3467 28.3689 2.92603C28.3689 3.49803 28.2332 3.99303 27.9619 4.41103C27.6906 4.82903 27.3056 5.1517 26.8069 5.37903C26.3082 5.59903 25.7142 5.70903 25.0249 5.70903H22.6819L23.4739 4.90603V7.83203H21.6919ZM23.4739 5.10403L22.6819 4.25703H24.9259C25.4759 4.25703 25.8866 4.1397 26.1579 3.90503C26.4292 3.67036 26.5649 3.34403 26.5649 2.92603C26.5649 2.5007 26.4292 2.1707 26.1579 1.93603C25.8866 1.70136 25.4759 1.58403 24.9259 1.58403H22.6819L23.4739 0.737031V5.10403ZM33.5678 7.83203V0.792031L34.3378 1.56203H32.0278V0.132031H35.3498V7.83203H33.5678ZM44.0266 7.96403C43.418 7.96403 42.8533 7.86503 42.3326 7.66703C41.8193 7.46903 41.372 7.19036 40.9906 6.83103C40.6166 6.4717 40.3233 6.05003 40.1106 5.56603C39.9053 5.08203 39.8026 4.55403 39.8026 3.98203C39.8026 3.41003 39.9053 2.88203 40.1106 2.39803C40.3233 1.91403 40.6203 1.49236 41.0016 1.13303C41.383 0.773697 41.8303 0.495031 42.3436 0.297031C42.857 0.0990309 43.4143 3.11136e-05 44.0156 3.11136e-05C44.6243 3.11136e-05 45.1816 0.0990309 45.6876 0.297031C46.201 0.495031 46.6446 0.773697 47.0186 1.13303C47.4 1.49236 47.697 1.91403 47.9096 2.39803C48.1223 2.8747 48.2286 3.4027 48.2286 3.98203C48.2286 4.55403 48.1223 5.0857 47.9096 5.57703C47.697 6.06103 47.4 6.4827 47.0186 6.84203C46.6446 7.19403 46.201 7.46903 45.6876 7.66703C45.1816 7.86503 44.628 7.96403 44.0266 7.96403ZM44.0156 6.44603C44.3603 6.44603 44.6756 6.38736 44.9616 6.27003C45.255 6.1527 45.5116 5.98403 45.7316 5.76403C45.9516 5.54403 46.1203 5.2837 46.2376 4.98303C46.3623 4.68236 46.4246 4.3487 46.4246 3.98203C46.4246 3.61536 46.3623 3.2817 46.2376 2.98103C46.1203 2.68036 45.9516 2.42003 45.7316 2.20003C45.519 1.98003 45.266 1.81136 44.9726 1.69403C44.6793 1.5767 44.3603 1.51803 44.0156 1.51803C43.671 1.51803 43.352 1.5767 43.0586 1.69403C42.7726 1.81136 42.5196 1.98003 42.2996 2.20003C42.0796 2.42003 41.9073 2.68036 41.7826 2.98103C41.6653 3.2817 41.6066 3.61536 41.6066 3.98203C41.6066 4.34136 41.6653 4.67503 41.7826 4.98303C41.9073 5.2837 42.076 5.54403 42.2886 5.76403C42.5086 5.98403 42.7653 6.1527 43.0586 6.27003C43.352 6.38736 43.671 6.44603 44.0156 6.44603ZM51.2179 3.59703H54.9139V5.02703H51.2179V3.59703ZM51.3499 7.83203H49.5679V0.132031H55.3869V1.56203H51.3499V7.83203ZM59.1365 6.21503V5.01603L62.7665 0.132031H64.6365L61.0835 5.01603L60.2145 4.76303H66.2755V6.21503H59.1365ZM63.2835 7.83203V6.21503L63.3385 4.76303V3.32203H65.0215V7.83203H63.2835Z" fill="#2EC4B6"/>
</svg>
