<svg width="69" height="8" viewBox="0 0 69 8" fill="none" xmlns="http://www.w3.org/2000/svg">
<path d="M3.13499 7.96403C2.51899 7.96403 1.92865 7.88336 1.36399 7.72203C0.799319 7.55336 0.344653 7.33703 -1.39065e-05 7.07303L0.604986 5.73103C0.934986 5.9657 1.32365 6.16003 1.77099 6.31403C2.22565 6.4607 2.68399 6.53403 3.14599 6.53403C3.49799 6.53403 3.78032 6.50103 3.99299 6.43503C4.21299 6.3617 4.37432 6.2627 4.47699 6.13803C4.57965 6.01336 4.63099 5.87036 4.63099 5.70903C4.63099 5.5037 4.55032 5.34236 4.38899 5.22503C4.22765 5.10036 4.01499 5.00136 3.75099 4.92803C3.48699 4.84736 3.19365 4.77403 2.87099 4.70803C2.55565 4.6347 2.23665 4.5467 1.91399 4.44403C1.59865 4.34136 1.30899 4.20936 1.04499 4.04803C0.780986 3.8867 0.564653 3.67403 0.395986 3.41003C0.234653 3.14603 0.153986 2.8087 0.153986 2.39803C0.153986 1.95803 0.271319 1.55836 0.505986 1.19903C0.747986 0.832364 1.10732 0.542697 1.58399 0.330031C2.06799 0.110031 2.67299 3.11136e-05 3.39899 3.11136e-05C3.88299 3.11136e-05 4.35965 0.0586977 4.82899 0.176031C5.29832 0.286031 5.71265 0.454697 6.07199 0.682031L5.52199 2.03503C5.16265 1.8297 4.80332 1.67936 4.44399 1.58403C4.08465 1.48136 3.73265 1.43003 3.38799 1.43003C3.04332 1.43003 2.76099 1.47036 2.54099 1.55103C2.32099 1.6317 2.16332 1.73803 2.06799 1.87003C1.97265 1.9947 1.92499 2.14136 1.92499 2.31003C1.92499 2.50803 2.00565 2.66936 2.16699 2.79403C2.32832 2.91136 2.54099 3.0067 2.80499 3.08003C3.06899 3.15336 3.35865 3.2267 3.67399 3.30003C3.99665 3.37336 4.31565 3.4577 4.63099 3.55303C4.95365 3.64836 5.24699 3.7767 5.51099 3.93803C5.77499 4.09936 5.98765 4.31203 6.14899 4.57603C6.31765 4.84003 6.40199 5.1737 6.40199 5.57703C6.40199 6.0097 6.28099 6.4057 6.03899 6.76503C5.79699 7.12436 5.43399 7.41403 4.94999 7.63403C4.47332 7.85403 3.86832 7.96403 3.13499 7.96403ZM9.10721 7.83203V1.58403H6.64321V0.132031H13.3532V1.58403H10.8892V7.83203H9.10721ZM15.951 3.23403H19.658V4.62003H15.951V3.23403ZM16.083 6.40203H20.274V7.83203H14.312V0.132031H20.131V1.56203H16.083V6.40203ZM21.6919 7.83203V0.132031H25.0249C25.7142 0.132031 26.3082 0.245697 26.8069 0.473031C27.3056 0.693031 27.6906 1.01203 27.9619 1.43003C28.2332 1.84803 28.3689 2.3467 28.3689 2.92603C28.3689 3.49803 28.2332 3.99303 27.9619 4.41103C27.6906 4.82903 27.3056 5.1517 26.8069 5.37903C26.3082 5.59903 25.7142 5.70903 25.0249 5.70903H22.6819L23.4739 4.90603V7.83203H21.6919ZM23.4739 5.10403L22.6819 4.25703H24.9259C25.4759 4.25703 25.8866 4.1397 26.1579 3.90503C26.4292 3.67036 26.5649 3.34403 26.5649 2.92603C26.5649 2.5007 26.4292 2.1707 26.1579 1.93603C25.8866 1.70136 25.4759 1.58403 24.9259 1.58403H22.6819L23.4739 0.737031V5.10403ZM32.3138 7.83203V6.67703L35.2838 3.87203C35.5184 3.65936 35.6908 3.4687 35.8008 3.30003C35.9108 3.13136 35.9841 2.97736 36.0208 2.83803C36.0648 2.6987 36.0868 2.57036 36.0868 2.45303C36.0868 2.14503 35.9804 1.91036 35.7678 1.74903C35.5624 1.58036 35.2581 1.49603 34.8548 1.49603C34.5321 1.49603 34.2314 1.55836 33.9528 1.68303C33.6814 1.8077 33.4504 2.00203 33.2598 2.26603L31.9618 1.43003C32.2551 0.990031 32.6658 0.641698 33.1938 0.385031C33.7218 0.128364 34.3304 3.11136e-05 35.0198 3.11136e-05C35.5918 3.11136e-05 36.0904 0.0953643 36.5158 0.286031C36.9484 0.469364 37.2821 0.729698 37.5168 1.06703C37.7588 1.40436 37.8798 1.8077 37.8798 2.27703C37.8798 2.52636 37.8468 2.7757 37.7808 3.02503C37.7221 3.26703 37.5974 3.5237 37.4068 3.79503C37.2234 4.06636 36.9521 4.3707 36.5928 4.70803L34.1288 7.02903L33.7878 6.38003H38.1328V7.83203H32.3138ZM46.2073 7.96403C45.5986 7.96403 45.034 7.86503 44.5133 7.66703C44 7.46903 43.5526 7.19036 43.1713 6.83103C42.7973 6.4717 42.504 6.05003 42.2913 5.56603C42.086 5.08203 41.9833 4.55403 41.9833 3.98203C41.9833 3.41003 42.086 2.88203 42.2913 2.39803C42.504 1.91403 42.801 1.49236 43.1823 1.13303C43.5636 0.773697 44.011 0.495031 44.5243 0.297031C45.0376 0.0990309 45.595 3.11136e-05 46.1963 3.11136e-05C46.805 3.11136e-05 47.3623 0.0990309 47.8683 0.297031C48.3816 0.495031 48.8253 0.773697 49.1993 1.13303C49.5806 1.49236 49.8776 1.91403 50.0903 2.39803C50.303 2.8747 50.4093 3.4027 50.4093 3.98203C50.4093 4.55403 50.303 5.0857 50.0903 5.57703C49.8776 6.06103 49.5806 6.4827 49.1993 6.84203C48.8253 7.19403 48.3816 7.46903 47.8683 7.66703C47.3623 7.86503 46.8086 7.96403 46.2073 7.96403ZM46.1963 6.44603C46.541 6.44603 46.8563 6.38736 47.1423 6.27003C47.4356 6.1527 47.6923 5.98403 47.9123 5.76403C48.1323 5.54403 48.301 5.2837 48.4183 4.98303C48.543 4.68236 48.6053 4.3487 48.6053 3.98203C48.6053 3.61536 48.543 3.2817 48.4183 2.98103C48.301 2.68036 48.1323 2.42003 47.9123 2.20003C47.6996 1.98003 47.4466 1.81136 47.1533 1.69403C46.86 1.5767 46.541 1.51803 46.1963 1.51803C45.8516 1.51803 45.5326 1.5767 45.2393 1.69403C44.9533 1.81136 44.7003 1.98003 44.4803 2.20003C44.2603 2.42003 44.088 2.68036 43.9633 2.98103C43.846 3.2817 43.7873 3.61536 43.7873 3.98203C43.7873 4.34136 43.846 4.67503 43.9633 4.98303C44.088 5.2837 44.2566 5.54403 44.4693 5.76403C44.6893 5.98403 44.946 6.1527 45.2393 6.27003C45.5326 6.38736 45.8516 6.44603 46.1963 6.44603ZM53.3985 3.59703H57.0945V5.02703H53.3985V3.59703ZM53.5305 7.83203H51.7485V0.132031H57.5675V1.56203H53.5305V7.83203ZM61.3172 6.21503V5.01603L64.9472 0.132031H66.8172L63.2642 5.01603L62.3952 4.76303H68.4562V6.21503H61.3172ZM65.4642 7.83203V6.21503L65.5192 4.76303V3.32203H67.2022V7.83203H65.4642Z" fill="#2EC4B6"/>
</svg>
