<svg width="28" height="28" viewBox="0 0 28 28" fill="none" xmlns="http://www.w3.org/2000/svg">
<mask id="mask0_17_850" style="mask-type:luminance" maskUnits="userSpaceOnUse" x="0" y="0" width="28" height="28">
<path d="M28 0H0V28H28V0Z" fill="white"/>
</mask>
<g mask="url(#mask0_17_850)">
<path d="M17.3132 12.7172L23.9166 8.29551C24.5816 7.85217 24.7566 6.94217 24.3132 6.28884L22.1899 3.12717C21.7466 2.46217 20.8366 2.28717 20.1832 2.73051L13.5799 7.15217L17.3132 12.7172Z" fill="#94A3B8"/>
<path d="M16.9399 12.1559L14.8866 13.5325L11.7716 15.6209L11.3633 15.8892L11.1766 15.6092L8.56325 11.7125L8.37659 11.4326L13.9532 7.69922L16.9399 12.1559Z" fill="#94A3B8"/>
<path d="M6.58012 18.6886L11.1885 15.6086L8.57512 11.7119L3.96679 14.7919C3.43012 15.1536 3.29012 15.8769 3.65179 16.4136L4.97012 18.3736C5.32012 18.9102 6.04346 19.0502 6.58012 18.6886Z" fill="#94A3B8"/>
<path d="M19.3199 25.4444C19.2032 25.491 19.0749 25.526 18.9582 25.526C18.6199 25.526 18.3049 25.3277 18.1532 25.001L13.8015 15.3877L9.39154 25.0127C9.23988 25.3277 8.92488 25.526 8.58654 25.526C8.46988 25.526 8.34154 25.491 8.22488 25.4444C7.79321 25.2344 7.59488 24.721 7.79321 24.2777L11.7715 15.621L14.8865 13.5327L19.7515 24.2894C19.9499 24.721 19.7515 25.246 19.3199 25.4444Z" fill="#94A3B8"/>
</g>
</svg>
