<svg width="20" height="20" viewBox="0 0 20 20" fill="none" xmlns="http://www.w3.org/2000/svg">
<path d="M5.16833 14.9998C4.2075 14.9998 3.24833 14.7057 2.43667 14.1281L0.7075 12.8981C0.334167 12.6331 0.0825 12.2215 0.0175 11.7706C-0.0441667 11.3465 0.0625 10.934 0.318333 10.6073C0.75 10.0556 1.47583 9.84482 2.12583 10.0823L4.83167 11.0756L17.0442 5.19148C18.0875 4.70898 19.325 5.16648 19.8067 6.20815C20.2883 7.24815 19.8383 8.49565 18.8042 8.98982L7.18 14.5456C6.5425 14.8498 5.85583 14.9998 5.16833 14.9998ZM20 19.1665C20 18.7057 19.6267 18.3331 19.1667 18.3331H0.833333C0.373333 18.3331 0 18.7057 0 19.1665C0 19.6273 0.373333 19.9998 0.833333 19.9998H19.1667C19.6267 19.9998 20 19.6273 20 19.1665ZM7.17833 8.09565L11.6942 5.91982L6.82 2.90982C6.20833 2.45565 5.3975 2.37232 4.70167 2.69315L4.05083 2.99898C3.66917 3.17815 3.40583 3.53482 3.34583 3.95232C3.28583 4.37065 3.43833 4.78648 3.75417 5.06648L7.1775 8.09648L7.17833 8.09565Z" fill="#2EC4B6"/>
</svg>
