<svg width="22" height="22" viewBox="0 0 22 22" fill="none" xmlns="http://www.w3.org/2000/svg">
<path fill-rule="evenodd" clip-rule="evenodd" d="M2.75 2.0625C2.56766 2.0625 2.3928 2.13493 2.26386 2.26386C2.13493 2.3928 2.0625 2.56766 2.0625 2.75C2.0625 2.93234 2.13493 3.1072 2.26386 3.23614C2.3928 3.36507 2.56766 3.4375 2.75 3.4375V18.5625H2.0625C1.88016 18.5625 1.7053 18.6349 1.57636 18.7639C1.44743 18.8928 1.375 19.0677 1.375 19.25C1.375 19.4323 1.44743 19.6072 1.57636 19.7361C1.7053 19.8651 1.88016 19.9375 2.0625 19.9375H13.75V3.4375C13.9323 3.4375 14.1072 3.36507 14.2361 3.23614C14.3651 3.1072 14.4375 2.93234 14.4375 2.75C14.4375 2.56766 14.3651 2.3928 14.2361 2.26386C14.1072 2.13493 13.9323 2.0625 13.75 2.0625H2.75ZM6.1875 17.875V15.8125C6.1875 15.6302 6.25993 15.4553 6.38886 15.3264C6.5178 15.1974 6.69266 15.125 6.875 15.125H9.625C9.80734 15.125 9.9822 15.1974 10.1111 15.3264C10.2401 15.4553 10.3125 15.6302 10.3125 15.8125V17.875C10.3125 18.0573 10.2401 18.2322 10.1111 18.3611C9.9822 18.4901 9.80734 18.5625 9.625 18.5625H6.875C6.69266 18.5625 6.5178 18.4901 6.38886 18.3611C6.25993 18.2322 6.1875 18.0573 6.1875 17.875ZM5.5 6.1875C5.5 6.00516 5.57243 5.8303 5.70136 5.70136C5.8303 5.57243 6.00516 5.5 6.1875 5.5H6.875C7.05734 5.5 7.2322 5.57243 7.36114 5.70136C7.49007 5.8303 7.5625 6.00516 7.5625 6.1875C7.5625 6.36984 7.49007 6.5447 7.36114 6.67364C7.2322 6.80257 7.05734 6.875 6.875 6.875H6.1875C6.00516 6.875 5.8303 6.80257 5.70136 6.67364C5.57243 6.5447 5.5 6.36984 5.5 6.1875ZM6.1875 8.25C6.00516 8.25 5.8303 8.32243 5.70136 8.45136C5.57243 8.5803 5.5 8.75516 5.5 8.9375C5.5 9.11984 5.57243 9.2947 5.70136 9.42364C5.8303 9.55257 6.00516 9.625 6.1875 9.625H6.875C7.05734 9.625 7.2322 9.55257 7.36114 9.42364C7.49007 9.2947 7.5625 9.11984 7.5625 8.9375C7.5625 8.75516 7.49007 8.5803 7.36114 8.45136C7.2322 8.32243 7.05734 8.25 6.875 8.25H6.1875ZM5.5 11.6875C5.5 11.5052 5.57243 11.3303 5.70136 11.2014C5.8303 11.0724 6.00516 11 6.1875 11H6.875C7.05734 11 7.2322 11.0724 7.36114 11.2014C7.49007 11.3303 7.5625 11.5052 7.5625 11.6875C7.5625 11.8698 7.49007 12.0447 7.36114 12.1736C7.2322 12.3026 7.05734 12.375 6.875 12.375H6.1875C6.00516 12.375 5.8303 12.3026 5.70136 12.1736C5.57243 12.0447 5.5 11.8698 5.5 11.6875ZM9.625 5.5C9.44266 5.5 9.2678 5.57243 9.13886 5.70136C9.00993 5.8303 8.9375 6.00516 8.9375 6.1875C8.9375 6.36984 9.00993 6.5447 9.13886 6.67364C9.2678 6.80257 9.44266 6.875 9.625 6.875H10.3125C10.4948 6.875 10.6697 6.80257 10.7986 6.67364C10.9276 6.5447 11 6.36984 11 6.1875C11 6.00516 10.9276 5.8303 10.7986 5.70136C10.6697 5.57243 10.4948 5.5 10.3125 5.5H9.625ZM8.9375 8.9375C8.9375 8.75516 9.00993 8.5803 9.13886 8.45136C9.2678 8.32243 9.44266 8.25 9.625 8.25H10.3125C10.4948 8.25 10.6697 8.32243 10.7986 8.45136C10.9276 8.5803 11 8.75516 11 8.9375C11 9.11984 10.9276 9.2947 10.7986 9.42364C10.6697 9.55257 10.4948 9.625 10.3125 9.625H9.625C9.44266 9.625 9.2678 9.55257 9.13886 9.42364C9.00993 9.2947 8.9375 9.11984 8.9375 8.9375ZM9.625 11C9.44266 11 9.2678 11.0724 9.13886 11.2014C9.00993 11.3303 8.9375 11.5052 8.9375 11.6875C8.9375 11.8698 9.00993 12.0447 9.13886 12.1736C9.2678 12.3026 9.44266 12.375 9.625 12.375H10.3125C10.4948 12.375 10.6697 12.3026 10.7986 12.1736C10.9276 12.0447 11 11.8698 11 11.6875C11 11.5052 10.9276 11.3303 10.7986 11.2014C10.6697 11.0724 10.4948 11 10.3125 11H9.625ZM15.125 6.1875V19.9375H19.9375C20.1198 19.9375 20.2947 19.8651 20.4236 19.7361C20.5526 19.6072 20.625 19.4323 20.625 19.25C20.625 19.0677 20.5526 18.8928 20.4236 18.7639C20.2947 18.6349 20.1198 18.5625 19.9375 18.5625H19.25V7.5625C19.4323 7.5625 19.6072 7.49007 19.7361 7.36114C19.8651 7.2322 19.9375 7.05734 19.9375 6.875C19.9375 6.69266 19.8651 6.5178 19.7361 6.38886C19.6072 6.25993 19.4323 6.1875 19.25 6.1875H15.125ZM16.5 10.3125C16.5 10.1302 16.5724 9.9553 16.7014 9.82636C16.8303 9.69743 17.0052 9.625 17.1875 9.625H17.1948C17.3772 9.625 17.552 9.69743 17.681 9.82636C17.8099 9.9553 17.8823 10.1302 17.8823 10.3125V10.3198C17.8823 10.5022 17.8099 10.677 17.681 10.806C17.552 10.9349 17.3772 11.0073 17.1948 11.0073H17.1875C17.0052 11.0073 16.8303 10.9349 16.7014 10.806C16.5724 10.677 16.5 10.5022 16.5 10.3198V10.3125ZM17.1875 12.375C17.0052 12.375 16.8303 12.4474 16.7014 12.5764C16.5724 12.7053 16.5 12.8802 16.5 13.0625V13.0698C16.5 13.4493 16.808 13.7573 17.1875 13.7573H17.1948C17.3772 13.7573 17.552 13.6849 17.681 13.556C17.8099 13.427 17.8823 13.2522 17.8823 13.0698V13.0625C17.8823 12.8802 17.8099 12.7053 17.681 12.5764C17.552 12.4474 17.3772 12.375 17.1948 12.375H17.1875ZM16.5 15.8125C16.5 15.6302 16.5724 15.4553 16.7014 15.3264C16.8303 15.1974 17.0052 15.125 17.1875 15.125H17.1948C17.3772 15.125 17.552 15.1974 17.681 15.3264C17.8099 15.4553 17.8823 15.6302 17.8823 15.8125V15.8198C17.8823 16.0022 17.8099 16.177 17.681 16.306C17.552 16.4349 17.3772 16.5073 17.1948 16.5073H17.1875C17.0052 16.5073 16.8303 16.4349 16.7014 16.306C16.5724 16.177 16.5 16.0022 16.5 15.8198V15.8125Z" fill="#2EC4B6"/>
</svg>
