<svg width="33" height="33" viewBox="0 0 33 33" fill="none" xmlns="http://www.w3.org/2000/svg">
<g clip-path="url(#clip0_6_794)">
<mask id="mask0_6_794" style="mask-type:luminance" maskUnits="userSpaceOnUse" x="0" y="0" width="33" height="33">
<path d="M33 0H0V33H33V0Z" fill="white"/>
</mask>
<g mask="url(#mask0_6_794)">
<path d="M28.9987 9.59686C27.83 8.30436 25.8775 7.65811 23.045 7.65811H22.715V7.60311C22.715 5.29311 22.715 2.43311 17.545 2.43311H15.455C10.2851 2.43311 10.2851 5.30686 10.2851 7.60311V7.67185H9.95505C7.1088 7.67185 5.17005 8.31811 4.0013 9.61061C2.64005 11.1231 2.6813 13.1581 2.8188 14.5468L2.83255 14.6431L2.93905 15.7614C2.95867 15.9673 3.06957 16.1534 3.24267 16.2667C3.57241 16.4824 4.12425 16.8381 4.45505 17.0218C4.64755 17.1456 4.8538 17.2556 5.06005 17.3656C7.4113 18.6581 9.9963 19.5243 12.6226 19.9506C12.7463 21.2431 13.3101 22.7556 16.3212 22.7556C19.3325 22.7556 19.9237 21.2568 20.02 19.9231C22.825 19.4693 25.5337 18.4931 27.9812 17.0631C28.0637 17.0218 28.1187 16.9806 28.1875 16.9393C28.7331 16.631 29.2989 16.2511 29.8148 15.8791C29.9702 15.7669 30.0696 15.5936 30.0908 15.4032L30.1125 15.2068L30.1812 14.5606C30.195 14.4781 30.195 14.4093 30.2087 14.3131C30.3187 12.9244 30.2912 11.0269 28.9987 9.59686ZM17.9987 19.0156C17.9987 20.4731 17.9987 20.6931 16.3075 20.6931C14.6162 20.6931 14.6162 20.4318 14.6162 19.0293V17.2968H17.9987V19.0156ZM12.2513 7.65811V7.60311C12.2513 5.26561 12.2513 4.39936 15.455 4.39936H17.545C20.7487 4.39936 20.7487 5.27936 20.7487 7.60311V7.67185H12.2513V7.65811Z" fill="#2EC4B6"/>
<path d="M28.7012 18.8855C29.1874 18.6541 29.7473 19.0395 29.6986 19.5757L29.2051 25.0122C28.9164 27.7622 27.7889 30.5672 21.7389 30.5672H11.2614C5.21137 30.5672 4.08387 27.7622 3.79512 25.0259L3.32664 19.8727C3.27845 19.3427 3.82564 18.9577 4.31052 19.1771C5.87721 19.8859 8.76903 21.1435 10.5554 21.6114C10.7813 21.6705 10.9641 21.8322 11.063 22.0438C11.8976 23.8287 13.7076 24.7784 16.3214 24.7784C18.9093 24.7784 20.7421 23.7922 21.5795 22.0029C21.6787 21.7911 21.8615 21.6294 22.0876 21.57C23.9845 21.0709 27.0626 19.6651 28.7012 18.8855Z" fill="#2EC4B6"/>
</g>
</g>
<defs>
<clipPath id="clip0_6_794">
<rect width="33" height="33" fill="white"/>
</clipPath>
</defs>
</svg>
