<svg width="147" height="468" viewBox="0 0 147 468" fill="none" xmlns="http://www.w3.org/2000/svg">
<path d="M141 307.702C138.371 306.12 135.32 305.414 132.323 304.747C130.413 304.321 128.503 303.906 126.593 303.487C121.068 302.281 115.544 301.076 110.02 299.87C107.822 299.389 105.202 298.497 104.783 296.291C104.534 294.996 105.186 293.72 105.485 292.437C105.784 291.154 105.505 289.463 104.243 289.068C102.95 285.447 99.0252 283.221 95.5002 281.674C91.9751 280.127 88.1745 279.162 84.9057 277.13C81.9241 275.277 79.4861 272.563 77.9682 269.403C75.6233 264.525 67.4823 264.735 62.0938 265.274C59.8577 265.499 57.6759 266.076 55.5019 266.654C51.2353 267.786 46.9688 268.918 42.7023 270.05C42.2597 270.167 41.8016 270.279 41.3435 270.384C41.3318 270.384 41.3241 270.392 41.3085 270.395C41.2503 270.411 41.196 270.415 41.1377 270.426C40.765 270.508 40.3923 270.578 40.0158 270.64C35.1591 271.454 31.7738 269.546 31.0168 269.271V269.259C29.7046 268.697 28.4546 267.794 27.5811 266.898C26.0942 265.374 25.4032 263.215 25.2673 261.09C25.1314 258.965 25.112 256.914 25.2867 254.794C25.4303 253.049 23.6911 251.669 21.9713 251.339C20.2515 251.009 18.4773 251.366 16.7264 251.258C14.9794 251.149 13.0461 250.343 12.5259 248.672C12.2076 247.644 12.5026 246.535 12.8365 245.512C13.6789 242.933 14.0827 239.614 16.3343 238.098C17.6815 237.191 19.277 235.888 18.8578 234.318C18.6171 233.415 17.7047 232.798 16.773 232.686C15.8413 232.573 14.9057 232.876 14.071 233.299C9.69965 235.505 7.05586 240.933 2.20312 241.603C-1.86932 242.166 -5.65446 238.812 -7.01711 234.939C-8.37977 231.065 -8.08472 226.638 -7.90614 222.535C-7.7198 218.166 -4.45099 214.103 -0.219383 212.978C1.84595 212.428 4.0161 212.528 6.14355 212.369C8.271 212.207 10.049 210.9 12.0523 210.163C14.9134 209.113 18.2754 209.531 20.7911 211.253C24.7238 213.944 26.0787 219.027 28.8195 222.923C29.561 223.978 30.7218 225.059 31.9641 224.714C32.9113 224.451 33.4665 223.4 33.4781 222.419C33.4898 221.434 33.6101 220.135 33.5597 219.155C33.4238 216.526 33.2879 213.878 33.6722 211.272C34.0566 208.667 35.0038 206.081 36.7819 204.138C39.6431 201.017 44.6783 200.059 45.6838 195.95C46.4913 192.654 49.1661 190.149 51.9729 188.234C54.7759 186.319 57.87 184.752 60.2459 182.329C62.2414 180.297 63.3633 177.673 64.6638 175.137C66.4264 171.702 69.9126 169.209 73.7366 168.647C76.4463 168.247 79.7113 168.561 81.3884 166.402C82.6967 164.719 82.3162 162.226 81.2215 160.4C80.1267 158.574 78.4496 157.186 77.0597 155.573C75.6699 153.96 74.4819 151.963 74.7692 149.854C75.0565 147.772 76.7026 146.07 78.6165 145.197C80.5304 144.325 82.6812 144.154 84.7853 144.116C88.5782 144.042 92.4682 144.337 96.0709 143.15C99.6736 141.964 102.973 138.769 102.795 134.985C102.628 131.422 99.6192 128.762 97.0608 126.273C95.9893 125.23 94.9761 123.892 94.2307 122.454C94.1997 122.396 94.1647 122.361 94.1337 122.299C94.0599 122.155 94.0133 122.02 93.9434 121.876C93.8852 121.748 93.8231 121.62 93.7726 121.492C91.8703 117.274 92.6584 113.571 92.7244 112.486C92.8292 111.16 92.7438 109.597 91.649 108.841C90.3291 107.93 88.52 108.833 87.3243 109.903C86.1286 110.973 84.8979 112.315 83.2906 112.307C81.2991 112.299 79.952 110.144 79.7734 108.159C79.5948 106.177 80.1694 104.192 80.0529 102.203C79.8472 98.7022 76.6405 96.5503 73.9423 94.3016C72.0129 92.6925 69.14 91.9791 66.9311 93.1849C65.351 94.0457 64.3843 95.6857 63.4953 97.2482C61.7056 100.389 59.8771 103.661 59.5937 107.263C59.3879 109.872 60.0169 112.497 59.7529 115.099C59.617 116.429 59.1511 117.983 58.3825 119.236C58.3747 119.247 58.3747 119.259 58.3669 119.271C57.2023 121.089 55.3621 124.303 55.2612 125.842C55.0399 128.231 54.5663 130.592 53.7704 132.856C53.421 133.853 52.9435 134.911 51.9962 135.384C50.6569 136.051 48.9759 135.171 48.1956 133.895C47.4152 132.62 47.2832 131.069 47.0658 129.592C45.5673 119.356 38.5444 109.803 29.2815 105.173C25.64 103.351 24.6617 98.2951 26.1408 94.5032C27.6199 90.7113 30.8693 87.9314 34.0721 85.4112C40.1943 80.5957 46.6427 76.6914 52.928 72.0853C55.4514 70.2359 57.9748 68.3865 60.4983 66.541C62.781 64.8699 65.188 63.0321 66.1042 60.3569C66.5894 58.9378 66.605 57.4102 66.9 55.9407C67.1951 54.4713 67.8783 52.9476 69.2138 52.2652C71.4655 51.1137 74.0821 52.8972 75.8291 54.7233C78.4107 57.4141 80.0257 60.7368 81.9241 63.9277C81.9358 63.9471 81.9397 63.9588 81.9474 63.9782C84.5446 68.4524 82.2852 71.7635 80.1306 72.9344C77.0753 74.6016 74.0161 76.2649 70.9608 77.9321C69.7418 78.5951 68.3209 79.7118 68.7208 81.0378C69.1478 82.4452 71.0695 82.4801 72.5292 82.6856C75.0837 83.0423 77.2849 84.7676 78.7873 86.8574C80.2936 88.9472 82.1998 91.1882 82.786 93.6967C83.2712 95.7594 85.6355 97.0544 87.7242 96.6822C89.8128 96.31 91.486 94.5536 92.1304 92.5336C92.7749 90.5136 92.5031 88.2919 91.7772 86.2991C91.0512 84.3062 91.0784 81.7705 89.4789 80.3786C88.5316 79.5528 88.9587 77.7034 90.1738 77.3816C91.1055 77.1334 92.0761 77.6917 92.7361 78.4013C93.396 79.1069 93.8736 79.9715 94.5879 80.6229C95.7603 81.6891 97.6781 81.9024 99.297 81.3944C100.132 81.0494 101.704 79.8979 100.737 76.8155C99.5843 73.3183 98.4313 69.8211 97.2782 66.3238C96.1679 62.9623 95.0615 59.6008 93.9512 56.2393C93.0544 53.5214 91.6529 50.9508 89.2149 49.4542C84.4048 46.5037 80.3596 42.3241 77.5683 37.4233C76.3532 35.287 75.3516 32.9878 73.7094 31.1578C72.0711 29.3239 68.7673 26.3811 66.7292 27.7575C62.8781 30.3591 59.9315 34.2673 58.495 38.6834C57.936 40.3971 57.606 42.2698 58.1534 43.9835C58.7163 45.7515 60.1217 47.0969 61.1582 48.6361C62.1948 50.1754 62.1831 52.176 61.527 53.9091C60.9952 55.3126 60.4439 56.7511 59.4539 57.8793C58.464 59.0076 56.9227 59.7792 55.4553 59.4418C53.6073 59.0154 52.5553 57.0807 51.9768 55.2778C51.1033 52.556 51.0723 49.6636 51.3401 46.8139C51.7361 42.5373 52.136 38.2608 52.532 33.9843C52.6523 32.6932 52.8076 31.3168 53.6306 30.3165C54.8108 28.8858 56.8878 28.7229 58.7047 28.3624C60.5216 28.0018 62.5985 26.9201 62.6373 25.0668C62.6606 24.0238 61.9541 23.0506 61.0262 22.5699C60.0984 22.0891 58.9958 22.0464 57.9709 22.2442C54.7992 22.8568 52.4737 25.5437 50.7268 28.2538C47.8966 32.6389 47.7336 38.2026 45.3227 42.832C44.162 45.0575 44.0882 47.6707 44.0804 50.1793C44.0727 52.6878 44.0921 55.2816 43.0905 57.5847C42.0927 59.8877 39.7595 61.8224 37.2672 61.5045C34.9495 61.2098 33.3151 59.1937 31.5642 57.6428C28.936 55.3165 25.1819 55.2622 22.0023 53.7734C20.6242 53.1298 19.0208 53.8703 17.7086 54.6419C16.3965 55.4135 14.8979 56.2664 13.4421 55.8244C12.1493 55.4328 11.3768 54.165 10.4838 53.153C8.08076 50.4313 4.04327 50.7221 0.506592 49.8885C-0.188316 49.7256 -0.902649 49.5512 -1.46557 49.1092C-2.0246 48.671 -2.38564 47.8879 -2.11389 47.2326C-1.8499 46.5929 -1.11617 46.2943 -0.43679 46.1431C0.238716 45.9919 0.976341 45.9027 1.50043 45.453C2.02842 45.0032 2.24583 43.747 1.83043 43.1887C0.24649 41.0524 -1.71014 39.1293 -3.99287 37.7839C-3.99287 37.7839 -3.99288 37.78 -3.99677 37.7762C-4.80038 37.2682 -6.42313 36.3842 -7.08699 35.8104C-7.09864 35.7988 -7.11417 35.7872 -7.12582 35.7755C-7.16463 35.7406 -7.21511 35.7019 -7.24229 35.6709L-7.2578 35.6825C-7.99155 35.0815 -8.99704 34.7558 -9.95594 34.562C-11.3186 34.2867 -12.8055 34.0734 -13.7838 33.0848C-14.7582 32.1038 -14.9679 30.615 -15.655 29.4131C-16.6527 27.6683 -18.6171 26.6525 -20.6009 26.3191C-22.5848 25.9856 -24.817 25.4584 -26.7465 26.0322C-29.6892 26.9084 -32.6396 27.7847 -35.6717 28.2732C-36.9761 28.4826 -38.3232 28.6183 -39.6121 28.3236C-40.901 28.0289 -41.8909 26.4625 -42.9275 25.6406C-50.028 19.9993 -57.8817 14.5441 -62.521 6.75483C-64.1825 3.96326 -66.9156 1.82693 -70.0253 0.880903C-73.1349 -0.0612523 -77.1996 -0.654465 -79.8123 1.27637C-82.4599 3.23435 -85.1115 5.18845 -87.7592 7.14643C-88.9471 8.02267 -90.1816 8.92218 -91.6258 9.2401C-93.2214 9.58905 -95.046 9.23235 -96.3776 10.1745C-97.2705 10.8065 -97.7248 11.9192 -97.8179 13.0087C-97.9072 14.0982 -98.1751 15.3699 -97.783 16.3935C-96.4553 19.8752 -95.2751 24.5472 -96.9056 27.901C-97.5656 29.258 -99.398 29.6108 -100.865 29.2541C-102.333 28.8974 -103.626 28.0328 -105.062 27.5675C-107.31 26.8386 -109.876 27.1721 -111.864 28.4477C-113.851 29.7233 -114.286 31.8634 -115.016 34.1083C-115.532 35.6902 -114.744 37.59 -113.261 38.3461C-110.722 39.6411 -107.209 37.2954 -104.468 38.0824C-103.715 37.7839 -102.884 38.5671 -102.842 39.3736C-102.799 40.18 -103.28 40.9167 -103.8 41.537C-106.526 44.8094 -110.559 46.6394 -114.395 48.4927C-118.231 50.346 -122.548 52.4009 -124.128 56.3517C-125.149 58.9029 -124.951 61.9077 -123.611 64.3038C-123.145 65.1374 -122.548 65.9051 -122.163 66.7775C-121.779 67.6537 -121.189 69.0262 -121.837 69.728C-122.598 70.5538 -122.85 71.8139 -122.47 72.8724C-122.089 73.9309 -120.991 74.4116 -119.869 74.4892C-118.887 74.5551 -117.881 74.6288 -116.98 75.0281C-116.08 75.4275 -115.292 76.2223 -115.187 77.1993C-115.036 78.599 -116.243 79.7311 -117.338 80.6151C-119.485 82.3444 -121.627 84.0736 -123.774 85.8028C-124.392 86.303 -125.075 86.9388 -124.993 87.7298C-124.92 88.4625 -124.17 88.9743 -123.437 89.0402C-122.703 89.1061 -121.985 88.8348 -121.297 88.5711C-118.153 87.3537 -115.113 85.6089 -111.809 84.9304C-109.069 84.3682 -107.135 81.8752 -106.037 79.3046C-104.938 76.7341 -104.41 73.9309 -103.113 71.4572C-101.852 69.0534 -99.8716 67.0295 -97.4918 65.7151C-96.5601 65.1995 -95.4614 64.7846 -94.4482 65.1142C-93.4349 65.4398 -93.07 66.6224 -93.5475 67.5723C-94.1958 68.8556 -95.4032 69.7435 -96.5135 70.6624C-97.6199 71.5813 -98.7225 72.6708 -98.9981 74.0859C-99.2738 75.4972 -98.6021 76.4976 -97.1618 76.4665C-95.0266 76.7961 -93.0661 75.3073 -91.5055 73.8146C-89.9448 72.3218 -88.027 70.5383 -85.8646 70.5383C-79.6648 70.5383 -74.649 76.8039 -70.5105 81.4138C-67.3543 84.9343 -64.2252 88.5866 -62.2958 92.9019C-58.8911 100.517 -57.4159 109.504 -59.7491 117.51C-61.0729 122.043 -59.6171 127.265 -56.1386 130.464C-54.9351 131.573 -53.4521 132.538 -52.9125 134.085C-52.3612 135.656 -52.9474 137.373 -53.5337 138.936C-56.7792 147.613 -61.3912 155.584 -62.4977 164.777C-63.5264 173.303 -63.6351 183.027 -58.1651 189.649C-52.105 196.981 -50.292 206.057 -47.5085 215.149C-46.2041 219.414 -44.2746 223.485 -41.8016 227.196C-41.0368 228.347 -40.0236 229.573 -38.6415 229.631C-37.7836 229.666 -36.9217 229.181 -36.5102 228.429C-36.0987 227.677 -36.3239 226.506 -36.4248 225.653C-36.6694 223.567 -37.9039 221.748 -39.0569 219.992C-41.5609 216.181 -45.2452 211.819 -45.5091 207.267C-45.5946 205.825 -45.6761 204.382 -45.7615 202.94C-45.7887 202.502 -45.812 202.052 -45.6567 201.641C-45.5053 201.23 -45.1248 200.87 -44.6861 200.881C-44.2474 200.893 -43.2497 201.541 -43.471 201.917C-43.1876 207.418 -39.7053 212.168 -36.3627 216.553C-34.4177 219.104 -31.2226 221.888 -30.4423 224.997C-29.0176 230.67 -26.9328 236.265 -23.4544 240.968C-19.9759 245.671 -15.1503 249.602 -9.44349 250.901C-4.42381 252.041 1.11221 253.425 6.19402 254.255C11.3185 255.092 15.9034 258.706 17.9105 263.486C19.1645 266.468 19.5566 269.969 21.8471 272.253C24.3472 274.749 28.6098 274.544 32.1271 274.908C34.4176 275.145 36.5684 276.471 37.8107 278.406C39.053 280.34 39.3597 282.845 38.6221 285.024C37.8961 287.164 36.2772 288.862 35.0271 290.747C32.065 295.209 32.9191 300.715 32.0029 305.992C30.5626 314.285 35.1902 322.295 39.6353 329.445C43.203 335.183 45.1946 342.127 50.5288 346.276C56.9422 351.258 60.3818 359.299 61.4727 367.337C62.5636 375.378 64.3766 384.799 61.298 392.309C57.6875 401.115 54.0189 410.757 56.6432 419.903C58.0136 424.676 61.0107 428.86 62.3967 433.629C63.507 437.451 63.538 441.495 64.1126 445.438C64.6833 449.382 65.9333 453.457 68.8916 456.128C72.0478 458.978 74.1559 462.956 77.4169 465.685C78.6165 466.689 79.9675 467.651 81.5281 467.798C83.0849 467.946 84.8513 466.968 85.0338 465.418C85.1308 464.584 84.7814 463.774 84.4359 463.01C82.5336 458.795 80.6352 454.577 78.733 450.363C77.9953 448.726 78.535 447.179 79.358 445.586C80.1849 443.992 81.4854 442.701 82.4482 441.189C83.411 439.677 84.0205 437.735 83.2868 436.098C82.5492 434.462 80.6352 433.512 80.1422 431.787C79.7307 430.356 80.4489 428.829 81.4117 427.693C82.3745 426.557 83.5935 425.646 84.4786 424.447C86.6294 421.536 86.2644 417.054 83.6672 414.533C83.015 412.052 84.5563 409.206 86.3615 407.388C88.1706 405.569 90.5193 404.406 92.7749 403.189C95.0305 401.968 97.3093 400.599 98.8039 398.517C98.5438 395.904 99.5649 393.383 101.553 391.666C103.54 389.948 105.908 388.692 107.815 386.881C113.04 381.919 113.781 373.986 116.86 367.472C119.803 361.249 125.117 356.178 131.48 353.53C134.439 349.056 135.836 342.98 136.077 337.622C136.197 334.966 135.964 332.271 136.543 329.677C137.117 327.084 138.729 324.501 141.271 323.714C144.202 322.807 146.322 318.011 146.058 314.956C145.794 311.901 143.605 309.276 140.976 307.698L141 307.702Z" fill="black"/>
</svg>
