<svg width="236" height="401" viewBox="0 0 236 401" fill="none" xmlns="http://www.w3.org/2000/svg">
<path d="M422.856 34.585C422.344 33.9491 421.692 33.4335 421.195 32.786C420.073 31.3243 419.871 29.3702 419.809 27.5285C419.747 25.6869 419.77 23.7715 418.99 22.1043C418.209 20.4333 416.323 19.1034 414.556 19.6385C411.901 20.441 408.682 20.6271 406.058 19.7315C401.97 18.3396 399.571 13.877 395.537 12.3377C391.95 10.9691 388.134 10.5116 384.38 9.68961C380.253 8.78622 375.944 7.88284 371.848 8.92192C367.752 9.96101 363.983 13.5901 364.29 17.7968C364.336 18.4365 363.734 19.0336 363.195 19.3709C362.655 19.7082 362.015 19.8595 361.39 20.0029C358.61 20.6426 355.834 21.2863 353.054 21.926C351.882 22.1974 350.69 22.4688 349.491 22.4223C348.287 22.3757 347.049 21.9686 346.245 21.0769C344.215 18.8242 341.031 17.4905 338.659 15.5946C338.03 15.0905 337.308 14.5593 336.505 14.6408C335.852 14.7067 335.321 15.1681 334.796 15.5635C332.386 17.3936 329.237 18.2233 326.24 17.8123C319.827 16.9438 313.27 15.1603 307.07 13.307C304.519 12.5432 301.724 12.6363 299.228 13.5629C298.731 13.7451 298.211 13.9972 297.978 14.4702C297.636 15.1642 298.059 15.9784 298.471 16.6336C299.391 18.0992 300.365 20.0998 301.091 21.6701C301.406 22.3525 301.118 23.19 300.594 23.7289C300.074 24.2678 299.364 24.578 298.673 24.8765C295.411 26.2762 292.154 27.672 288.893 29.0716C287.162 29.8161 285.302 30.5721 283.45 30.2348C281.921 29.9518 280.605 28.9359 279.65 27.7107C278.695 26.4856 277.67 25.1557 277.029 23.7405C276.552 22.6898 275.519 21.9725 274.42 21.6119C273.322 21.2514 272.149 21.1971 270.996 21.1467C269.222 21.0691 267.079 21.104 265.472 20.348C264.8 20.0339 263.993 20.5806 263.69 21.2591C263.387 21.9376 263.403 22.7092 263.255 23.4381C262.859 25.4426 261.198 27.0516 259.272 27.7379C257.346 28.4241 255.2 28.2884 253.235 27.7301C251.267 27.1718 249.011 26.7841 247.233 25.7722C244.873 24.4229 241.511 25.2681 240.071 27.575C239.271 28.8545 238.774 30.6729 237.283 30.9404C235.769 31.2118 234.573 29.4322 234.705 27.9007C234.834 26.3692 235.777 25.051 236.452 23.6707C238.902 18.6614 235.956 13.0821 233.149 8.26281C232.178 6.59562 229.585 6.18464 228.145 7.47186C227.36 8.17363 226.906 9.25536 225.955 9.70899C224.93 10.1975 223.653 9.74389 222.861 8.92968C222.069 8.11935 221.828 6.87866 221.234 5.91324C220.097 4.05994 218.901 2.14074 217.076 0.9582C215.252 -0.22434 212.6 -0.445339 211.024 1.05513C209.762 2.25318 209.522 4.24992 210.05 5.90548C210.578 7.56103 211.863 9.21271 213.427 9.97652C214.766 10.6318 215.248 12.4385 214.747 13.8421C214.246 15.2456 212.988 16.2614 211.641 16.9012C210.294 17.537 208.823 17.8666 207.41 18.3474C203.679 19.623 201.52 23.2404 198.057 25.1208C196.87 25.7644 195.988 26.9508 195.713 28.2729C195.437 29.5951 195.775 31.0335 196.609 32.0958C197.262 32.9256 198.178 33.5149 198.849 34.3291C199.521 35.1433 199.917 36.3607 199.335 37.2409C198.904 37.8883 198.057 38.152 197.281 38.09C196.508 38.0279 195.74 37.6092 194.963 37.5782C193.756 37.5239 192.63 38.404 192.16 39.5168C191.691 40.6295 191.792 41.9206 192.184 43.0644C192.576 44.2082 193.209 44.8634 193.911 45.8482C194.513 46.6934 195.13 47.5658 195.379 48.5738C195.627 49.5819 195.433 50.7684 194.626 51.4275C193.725 52.1641 192.362 52.0129 191.322 51.4895C190.278 50.97 189.42 50.1441 188.418 49.5509C187.416 48.9577 186.042 48.1202 185.254 48.9771C183.569 50.8032 183.62 53.6646 184.415 56.018C185.211 58.3676 186.632 60.4691 187.444 62.8148C188.259 65.1604 188.787 68.394 186.861 69.9643C185.374 71.1778 183.01 70.6079 181.655 69.2431C180.304 67.8783 179.71 65.9591 179.163 64.1175C178.274 61.1165 177.381 58.1156 176.492 55.1147C176.17 54.029 175.836 52.9202 175.172 52.0013C174.508 51.0824 173.44 50.3729 172.311 50.4427C170.304 50.5706 169.22 52.9163 169.127 54.9208C168.852 60.787 174.015 66.2771 172.94 72.0502C172.718 73.2405 171.352 73.9423 170.148 73.8182C168.945 73.6941 167.897 72.9575 166.977 72.1704C166.056 71.3833 165.179 70.511 164.077 70.0108C162.974 69.5106 161.553 69.4757 160.66 70.2938C159.523 71.3329 160.222 72.8411 160.198 74.3804C160.179 75.6172 159.03 76.5555 157.869 76.9858C156.708 77.4201 155.431 77.548 154.34 78.1374C153.272 78.7151 152.449 79.7115 151.32 80.1574C149.778 80.77 147.212 80.2349 147.17 78.5755C147.139 77.3309 146.036 76.2104 144.79 76.16C143.249 76.0941 142.022 77.424 141.226 78.7461C140.43 80.0643 139.832 81.8052 138.485 82.5535C138.136 83.5034 137.002 83.9338 135.989 83.9144C134.976 83.8989 133.997 83.5577 132.988 83.484C132.079 83.422 131.093 83.6119 130.461 84.2672C129.828 84.9224 129.715 86.6362 130.414 87.2177C130.659 87.9389 130.903 88.6755 130.907 89.4355C130.915 90.1954 130.639 91.0019 130.022 91.4477C128.966 92.2154 127.347 91.8936 126.171 91.3353C124.645 90.6103 122.817 91.8161 122.048 93.3204C121.279 94.8248 121.178 96.5734 120.639 98.1747C120.099 99.7759 118.822 101.373 117.133 101.358C115.39 101.342 114.175 99.6906 113.255 98.2134C112.164 96.4648 111.077 94.7162 109.986 92.9676C109.605 92.355 109.209 91.6997 109.221 90.9825C109.237 89.7999 110.374 88.8849 111.535 88.66C112.696 88.4352 113.891 88.7182 115.056 88.9082C116.225 89.102 117.49 89.1912 118.531 88.629C120.355 87.6442 120.681 84.9922 119.726 83.1506C118.771 81.3089 117.673 79.7697 115.642 79.3509C110.366 78.2576 104.659 76.9122 101.259 72.7365C100.063 71.267 99.1622 69.4563 97.5317 68.4909C95.9323 67.5449 93.8941 67.607 92.1393 68.2234C90.3846 68.836 89.0802 70.4218 87.3332 71.0576C79.7901 73.7949 74.5918 79.9984 69.8283 86.45C67.3088 89.862 66.4586 94.1773 65.0222 98.1669C63.5858 102.157 60.9303 106.379 57.1063 108.224C56.4114 108.562 55.7049 108.903 55.1458 109.438C54.5907 109.973 54.1986 110.737 54.3034 111.501C54.4121 112.268 54.9828 112.885 55.2274 113.617C55.4758 114.362 55.371 115.176 55.2662 115.952C54.9944 117.921 55.01 119.914 54.9517 121.899C54.9207 122.934 55.2002 124.008 55.8912 124.78C56.5784 125.551 57.7159 125.959 58.6981 125.625C60.2587 125.098 60.8643 123.062 62.3823 122.423C63.9584 121.763 65.8064 123.004 66.4353 124.59C67.0603 126.176 66.5129 127.963 66.9555 129.611C67.336 131.041 67.7164 132.472 68.0969 133.903C68.3958 135.019 68.8151 136.283 69.8827 136.725C70.8921 137.144 72.0257 136.64 73.0001 136.148C74.487 135.396 76.0049 134.616 77.1346 133.391C78.2605 132.166 79.0447 130.386 78.8545 128.735C77.8296 119.829 74.9917 109.151 80.5743 102.129C81.735 100.668 82.9929 99.2835 84.3361 97.9846C85.264 97.0851 86.25 96.2205 87.4108 95.6583C88.5755 95.0961 89.9459 94.8674 91.1688 95.2823C92.3917 95.6971 93.4011 96.8486 93.4088 98.1397C93.4166 99.3533 92.613 100.4 91.8443 101.342C90.5477 102.936 89.6276 104.673 88.1717 106.123C86.285 108.007 85.9239 111.225 87.3448 113.478C88.7657 115.731 91.7278 116.227 94.3872 116.033C96.9261 115.851 99.4922 116.076 101.957 116.704C102.792 116.917 103.778 117.363 103.825 118.22C103.875 119.077 102.94 119.639 102.105 119.84C100.292 120.278 98.3004 119.984 96.6116 120.775C94.4337 121.794 93.1565 124.784 94.1193 126.982C94.6395 128.172 93.405 129.436 92.1627 129.816C90.9165 130.196 89.515 130.158 88.4318 130.883C86.4558 132.201 86.6732 135.109 85.8385 137.326C84.7127 140.32 81.471 142.099 78.2876 142.437C75.1042 142.774 71.7423 142.378 68.6249 141.649C66.1364 141.068 64.1021 138.889 63.6906 136.369C63.5896 135.741 63.578 135.093 63.3567 134.496C63.1354 133.899 62.6424 133.341 62.0057 133.302C61.2176 133.251 60.577 134.035 60.4916 134.822C60.4062 135.605 60.7207 136.373 61.0274 137.102C61.5515 138.338 61.9863 139.176 61.9319 140.517C61.8776 141.874 60.9847 143.08 59.8977 143.894C58.8106 144.712 57.5295 145.216 56.3027 145.806C51.5354 148.093 46.8263 151.439 44.8891 156.352C44.2058 158.085 42.2647 158.903 40.5138 159.543C38.6077 160.237 36.7015 160.935 34.7992 161.632C33.1221 162.245 31.2004 163.129 30.851 164.878C30.5327 166.463 31.709 167.952 32.9552 168.98C34.2052 170.007 35.6727 170.922 36.3172 172.403C36.8374 173.597 36.7054 175.059 35.9755 176.141C35.2457 177.223 33.9257 177.835 32.6213 177.847C30.0202 177.866 27.3337 177.905 24.9617 178.967C21.7628 180.402 20.3458 183.589 19.3714 186.954C18.1795 191.064 19.6703 195.821 23.0012 198.512C26.3321 201.203 31.3013 201.672 35.0748 199.648C42.2686 195.794 43.4604 185.21 50.4911 181.061C54.086 178.94 58.504 178.948 62.6773 179.018C69.6886 179.134 74.1259 187.462 76.0127 194.205C76.3388 195.376 76.7076 196.74 77.8218 197.229C78.6992 197.613 79.7629 197.268 80.4811 196.632C81.1993 195.996 81.6458 195.12 82.0767 194.263C82.7832 192.863 83.5053 191.316 83.1637 189.789C82.6745 187.598 80.3181 186.485 78.3808 185.349C75.8108 183.837 73.5708 181.771 71.8626 179.332C71.222 178.413 70.6397 177.211 71.1638 176.222C71.6219 175.362 72.7749 175.071 73.7183 175.307C74.6656 175.54 75.4536 176.176 76.2107 176.792C82.7483 182.131 88.4901 188.773 90.4545 196.977C90.6874 197.942 90.8854 198.943 91.4134 199.788C91.9375 200.633 92.8809 201.3 93.8708 201.187C95.1908 201.032 96.0022 199.555 95.9711 198.225C95.94 196.899 95.3189 195.666 94.853 194.422C94.391 193.177 94.0882 191.747 94.6744 190.552C95.777 189.668 97.4619 189.889 98.6343 190.68C99.8067 191.471 100.583 192.712 101.325 193.914C103.114 196.81 104.9 199.71 106.69 202.607C107.703 204.247 109.237 205.309 111.158 205.487C113.08 205.662 114.994 205.169 116.888 204.801C118.783 204.433 120.794 204.192 122.607 204.851C125.01 205.724 126.703 208.24 126.606 210.791C126.516 213.125 125.34 215.331 123.228 216.343C121.12 217.355 118.678 217.32 116.337 217.262C112.591 217.169 108.841 217.076 105.094 216.983C102.544 216.921 99.9542 216.851 97.5317 216.053C95.1519 215.269 92.6673 213.784 90.3264 214.668C88.8667 215.219 87.8922 216.568 86.9566 217.817C86.021 219.065 84.9185 220.356 83.3966 220.69C81.8709 221.023 79.9764 219.786 80.2948 218.259C78.6332 215.537 74.7859 213.498 71.618 213.118C70.5543 212.99 69.3819 212.993 68.5588 212.307C67.1884 211.163 67.6621 209.023 67.6621 207.236C67.6621 204.142 65.6433 201.145 62.7744 199.974C58.7097 198.314 53.9268 199.191 49.7496 200.548C45.5723 201.905 41.562 203.882 37.2178 204.533C35.3971 204.805 33.5336 204.844 31.7672 205.359C30.0008 205.875 28.281 206.992 27.6404 208.713C24.5075 217.146 16.2733 223.256 10.9159 230.487C7.3637 235.287 3.76102 240.173 1.75004 245.794C0.725135 248.656 0.860995 251.727 0.616417 254.755C0.457246 256.736 0.294198 258.721 0.135027 260.702C0.0379723 261.923 -0.0629536 263.153 0.0496303 264.378C0.239858 266.487 1.06676 268.534 2.39836 270.182C6.29221 271.264 8.37696 276.18 9.63479 280.018C10.8926 283.857 11.9253 288.098 15.0582 290.646C17.7602 292.84 21.557 293.29 24.9772 292.642C28.3975 291.995 31.5459 290.374 34.6362 288.773C41.6901 285.121 50.8133 288.92 57.7042 292.867C58.9543 293.581 60.3092 294.124 61.4272 295.031C63.0539 296.353 64.8281 297.977 64.7854 300.071C64.7504 301.727 63.5625 303.111 63.0034 304.673C62.0523 307.329 63.1781 310.574 65.5696 312.075C72.8176 316.623 75.3372 327.584 72.4216 335.621C71.354 338.564 69.5915 341.247 68.8228 344.283C68.0542 347.318 68.6054 351.041 71.2492 352.723C74.7354 354.941 75.4575 359.578 76.2068 363.641C76.8202 366.98 76.5873 370.415 76.9949 373.784C77.3986 377.153 78.6021 380.666 81.3391 382.678C85.3455 385.621 81.3546 393.294 84.4021 397.218C86.285 399.641 89.6742 400.3 92.745 400.261C99.7951 400.168 106.764 397.202 111.717 392.189C114.237 389.638 117.253 387.238 118.313 383.814C119 381.608 119.132 379.158 120.448 377.262C121.776 375.347 124.055 374.366 125.895 372.935C127.739 371.504 129.253 368.996 128.189 366.921C126.248 363.13 127.432 357.992 129.933 354.546C131.959 351.754 135.053 349.959 137.549 347.578C140.046 345.198 142.026 341.631 140.849 338.389C138.365 331.538 138.229 323.827 139.918 316.739C141.61 309.652 146.261 303.053 152.966 300.18C157.485 298.245 160.847 294.492 163.405 290.297C165.963 286.102 166.534 280.294 163.444 276.471C161.763 274.389 158.618 273.427 155.982 272.942C153.35 272.458 150.594 272.248 148.233 270.992C146.145 269.883 144.499 267.972 143.707 265.746C143.14 264.153 141.304 263.501 140.12 262.292C138.823 260.97 137.926 259.318 137.041 257.693C135.519 254.894 134.001 252.095 132.479 249.296C129.304 243.449 126.606 236.982 123.461 231.119C122.968 230.197 122.459 229.235 122.424 228.188C122.389 227.141 122.98 225.998 124.001 225.761C125.208 225.482 126.291 226.513 127.083 227.463C133.745 235.427 139.265 244.337 143.423 253.847C144.895 257.209 145.578 260.981 147.74 263.947C149.899 266.913 153.319 269.22 156.988 269.081C159.853 268.972 162.442 267.433 164.888 265.94C168.611 263.668 172.334 261.396 176.057 259.124C178.425 257.678 180.828 256.205 182.703 254.158C184.575 252.11 185.879 249.373 185.58 246.616C185.281 243.86 183.057 241.243 180.281 241.099C176.352 241.142 172.225 240.351 168.553 238.943C166.464 238.141 164.255 236.877 163.665 234.721C162.955 232.131 161.231 230.034 158.995 228.541C158.343 228.107 157.64 227.731 157.1 227.165C156.561 226.598 156.2 225.78 156.425 225.032C156.611 224.42 157.158 223.966 157.76 223.757C158.366 223.543 159.018 223.539 159.659 223.582C160.816 223.663 161.984 223.896 162.997 224.466C165.179 225.687 166.421 228.262 168.409 229.778C170.397 231.294 172.881 232.313 175.37 232.069C176.686 231.937 177.986 231.464 179.295 231.65C180.871 231.875 182.133 233.011 183.41 233.961C184.687 234.911 186.294 235.753 187.812 235.28C192.122 233.934 197.009 235.97 201.509 236.311C202.743 236.404 204.021 236.512 205.104 237.11C206.187 237.707 207.021 238.943 206.75 240.149C206.233 242.433 206.979 244.93 208.92 246.24C210.861 247.551 213.633 247.481 215.504 246.07C216.875 245.035 218.812 246.446 219.476 248.028C220.136 249.613 219.965 251.401 219.949 253.115C219.914 256.662 220.613 260.218 221.987 263.49C223.975 268.228 226.2 273.016 229.092 277.266C229.973 278.56 231.076 279.976 232.64 280.1C234.313 280.232 235.742 278.747 236.243 277.145C236.744 275.544 236.584 273.826 236.658 272.148C236.887 266.979 239.516 261.97 243.642 258.845C246.387 256.763 248.631 253.968 251.422 251.948C252.657 251.056 253.977 250.04 254.357 248.567C254.676 247.334 254.299 245.884 255.064 244.868C255.588 244.17 256.539 243.895 257.412 243.961C258.286 244.026 259.109 244.379 259.913 244.724C262.599 245.887 265.371 247.105 267.366 249.245C268.601 250.571 269.754 252.017 270.15 253.785C270.546 255.553 270.631 257.407 271.33 259.078C272.029 260.749 273.578 262.261 275.387 262.164C276.272 262.117 277.111 261.691 278 261.703C279.262 261.722 280.372 262.649 280.966 263.761C281.56 264.874 281.742 266.154 281.913 267.406C282.759 273.559 281.804 280.185 284.409 285.826C285.201 287.54 286.234 289.13 287.259 290.715C288.823 293.127 290.388 295.535 291.952 297.946C292.818 299.28 294.099 299.842 295.606 300.346C296.522 300.653 297.671 300.777 298.331 300.071C298.793 299.575 298.847 298.803 298.641 298.156C298.436 297.508 298.009 296.958 297.593 296.423C296.149 294.573 295.151 292.514 293.866 290.553C292.589 288.606 291.304 286.668 290.011 284.737C288.893 283.07 287.756 281.379 287.131 279.472C286.506 277.564 286.451 275.377 287.449 273.636C288.039 272.609 288.575 271.752 289.755 271.613C290.931 271.473 292.17 272.039 292.83 273.02C292.911 274.257 294.41 274.947 295.59 275.331C296.77 275.715 298.113 276.036 298.777 277.083C299.406 278.08 299.204 279.456 299.892 280.418C300.416 281.154 301.448 281.484 302.302 281.189C303.156 280.898 303.77 280.007 303.735 279.107C303.692 277.952 304.857 276.374 305.804 275.715C306.751 275.056 307.823 274.536 308.592 273.675C310.044 272.051 310.001 269.31 308.498 267.728C304.5 263.521 300.59 258.888 299.348 253.219C299.123 252.184 298.96 251.102 299.197 250.071C299.433 249.04 300.148 248.055 301.169 247.772C303.731 247.058 306.441 246.95 309.089 246.69C310.754 246.527 312.435 246.361 314.031 245.849C315.622 245.333 317.14 244.434 318.103 243.065C320.118 240.192 323.437 238.598 326.353 236.644C327.719 235.729 329.125 234.415 329.02 232.779C328.903 230.941 329.478 229.278 330.534 227.769C331.594 226.261 332.921 224.935 333.768 223.303C334.614 221.667 334.882 219.542 333.779 218.065C332.813 216.766 331.842 215.32 331.465 213.746C331.167 212.497 331.213 211.194 331.05 209.919C330.705 207.236 329.392 204.689 327.409 202.851C325.751 201.315 325.487 198.245 326.966 196.539C327.789 195.589 329.101 194.93 329.357 193.697C329.629 192.386 328.534 191.2 327.416 190.467C326.298 189.734 324.982 189.114 324.392 187.912C323.651 186.408 324.443 184.457 325.863 183.566C327.284 182.674 329.136 182.697 330.72 183.248C333.418 184.182 335.437 186.431 337.087 188.761C339.11 191.615 340.045 195.093 341.408 198.311C341.8 199.241 342.231 200.218 343.042 200.819C344.475 201.878 346.676 201.3 347.782 199.904C348.885 198.508 349.056 196.566 348.71 194.821C348.291 192.673 346.447 190.587 345.108 188.858C344.137 187.602 343.139 186.299 342.759 184.756C342.111 182.162 343.31 179.502 344.483 177.095C345.705 174.578 346.971 172.008 348.974 170.054C350.36 168.704 352.049 167.704 353.509 166.429C354.964 165.153 356.234 163.466 356.335 161.536C356.777 152.986 360.182 144.964 358.354 136.598C357.519 132.782 355.722 129.254 353.641 125.951C352.13 123.555 350.217 121.236 347.573 120.216C347.115 120.042 346.645 119.906 346.195 119.72C344.187 118.887 342.685 116.952 342.382 114.804C342.079 112.656 342.984 110.38 344.681 109.023C346.726 107.391 347.025 104.634 346.591 102.056C346.354 100.648 345.795 99.2215 346.121 97.8335C346.396 96.6703 347.274 95.7204 348.295 95.0923C349.316 94.4642 350.477 94.1152 351.626 93.774C356.444 92.3395 361.677 93.3359 366.541 92.0642C368.37 91.5873 370.268 90.9398 371.514 89.5208C372.76 88.1017 373.052 85.6824 371.65 84.4107C371.479 82.0882 371.305 79.5874 371.13 77.265C371.056 76.2414 370.982 75.1946 371.246 74.2059C371.514 73.2134 372.19 72.2712 373.172 71.9688C375.49 71.2554 377.811 74.3067 380.082 73.4576C380.944 73.9423 381.771 72.8838 382.039 71.9339C382.307 70.984 382.462 69.8131 383.359 69.3943C384.271 68.9678 385.382 69.72 385.712 70.6699C386.042 71.6198 385.82 72.6628 385.599 73.6437C385.114 75.78 384.625 77.9164 384.139 80.0527C382.746 86.1748 381.352 92.2968 379.958 98.4189C379.182 101.831 380.02 105.549 382.027 108.414C385.774 113.753 388.491 119.918 391.527 125.691C391.911 126.42 392.358 127.207 393.134 127.49C394.586 128.021 395.992 126.327 396.027 124.784C396.061 123.241 395.301 121.794 395.072 120.271C394.509 116.572 397.028 113.187 398.119 109.608C399.722 104.343 398.119 98.5119 395.087 93.9175C393.22 91.0833 390.339 88.9702 389.9 85.6048C389.466 82.2394 391.119 78.4863 394.268 77.2146C395.537 76.7028 396.927 76.6136 398.286 76.4353C399.645 76.2608 401.042 75.97 402.129 75.1403C403.216 74.3106 403.892 72.7985 403.372 71.5345C402.448 69.278 403.62 66.7501 404.979 64.7262C406.338 62.7023 407.991 60.6396 408.015 58.2048C408.026 56.9447 407.642 55.4946 408.484 54.5564C408.9 54.095 409.525 53.8856 410.01 53.494C411.35 52.4123 410.988 49.9115 409.401 49.2485C407.529 48.4692 405.775 46.9764 405.204 45.034C404.649 43.1342 404.917 41.1064 405.192 39.1484C405.445 37.3417 405.72 35.4767 406.687 33.9297C407.654 32.3827 409.509 31.2312 411.284 31.6693C413.05 32.1036 414.91 32.3362 416.171 33.6428C416.948 34.4454 417.499 35.4341 418.178 36.322C418.858 37.206 419.735 38.024 420.826 38.2567C421.921 38.4893 423.233 37.9349 423.52 36.8531C423.73 36.0622 423.357 35.2286 422.845 34.5927L422.856 34.585ZM136.49 183.802C135.787 185.69 133.508 186.547 131.493 186.439C129.478 186.334 127.576 185.52 125.6 185.101C121.089 184.143 116.159 185.38 112.633 188.35C111.123 189.626 108.763 191.983 106.709 190.234C105.265 189.001 105.323 186.435 105.902 184.83C107.583 180.13 109.757 176.137 113.476 172.76C114.33 171.985 115.188 171.205 116.042 170.43C116.539 169.976 117.048 169.519 117.661 169.236C119.722 168.29 122.059 169.639 123.919 170.934C126.741 172.896 129.568 174.861 132.39 176.823C133.586 177.657 134.809 178.51 135.67 179.685C136.532 180.859 136.99 182.434 136.482 183.798L136.49 183.802ZM165.4 198.392C162.776 200.121 159.379 198.21 157.954 195.833C156.44 193.309 156.444 190.01 155.978 187.175C155.016 181.301 148.33 175.164 151.164 169.084C152.24 166.781 154.934 165.273 157.419 165.8C159.907 166.328 161.794 169.022 161.212 171.496C160.777 173.357 159.197 174.757 158.603 176.571C157.721 179.258 159.177 182.162 161.021 184.302C162.865 186.443 165.167 188.253 166.491 190.75C167.815 193.247 167.757 196.837 165.397 198.396L165.4 198.392ZM181.721 176.765C180.984 178.041 179.726 179.549 178.122 179.634C175.983 179.751 174.263 177.366 174.671 175.354C174.772 174.846 174.997 174.373 175.218 173.904C175.49 173.334 175.758 172.76 176.03 172.19C176.232 171.764 176.434 171.333 176.635 170.903C177.105 169.91 177.657 168.836 178.674 168.418C183.589 166.401 182.998 174.563 181.721 176.765Z" fill="black"/>
</svg>
