<svg width="99" height="135" viewBox="0 0 99 135" fill="none" xmlns="http://www.w3.org/2000/svg">
<path d="M73.7442 94.6759C75.5222 92.0627 76.2909 88.5849 75.037 85.6847C73.7403 82.6838 70.4016 79.8496 71.7526 76.8719C72.7309 74.7123 75.5261 74.2858 77.7467 73.4367C82.8674 71.4787 86.109 65.5389 84.9793 60.1806C82.4132 48.014 86.6098 34.8161 95.0536 25.6815C96.1367 24.5106 97.3131 23.3746 97.9924 21.9284C98.6718 20.4861 98.7378 18.6173 97.6857 17.4192C96.5055 16.0777 94.4053 16.0467 92.6777 16.5081C90.9501 16.9695 89.2963 17.8186 87.5066 17.8767C85.7169 17.9387 83.6787 16.8105 83.6089 15.0231C83.539 13.2125 85.3675 12.0144 86.7612 10.8513C88.151 9.68811 89.2109 7.33854 87.7628 6.24517C80.5147 0.770592 70.8092 -1.66428 62.1946 1.2281C56.81 3.03486 51.7748 6.59799 46.099 6.36148C42.9583 6.22966 39.9807 4.92305 36.8633 4.5586C33.742 4.19026 30.0345 5.16731 28.8193 8.05969C22.6117 12.2393 16.2294 18.0551 10.0217 22.2347C5.95317 24.972 1.58958 28.1125 0.327868 32.8465C-0.592214 36.3011 0.463747 40.2132 2.99883 42.7411C4.73029 44.4625 7.00524 45.5094 9.02399 46.8819C11.0427 48.2544 12.9373 50.193 13.1857 52.6201C13.8302 58.8779 16.6836 64.8759 17.6968 71.0833C18.4073 75.4335 18.7761 79.8767 18.2442 84.254C17.46 90.7095 14.6687 96.9092 10.3517 101.779C8.73284 103.609 7.94863 106.424 7.33524 108.789C6.72185 111.154 6.74515 113.779 7.92534 115.919C9.0473 117.958 11.1553 119.494 11.6328 121.77C11.8541 122.832 11.6833 123.933 11.6484 125.019C11.6134 126.104 11.7454 127.275 12.4559 128.097C13.1624 128.923 15.9498 129.074 16.8932 128.539C18.9896 127.353 21.416 129.396 22.864 131.319C24.3121 133.242 26.3658 135.499 28.6602 134.762C30.8653 134.056 31.3001 131.218 31.7659 128.954C33.3343 121.378 39.3556 115.45 45.9554 111.402C52.5551 107.354 59.9352 104.714 66.5971 100.771C69.3185 99.1618 71.9739 97.2775 73.752 94.6643L73.7442 94.6759Z" fill="black"/>
</svg>
