<svg width="26" height="26" viewBox="0 0 26 26" fill="none" xmlns="http://www.w3.org/2000/svg">
<mask id="mask0_145_1517" style="mask-type:luminance" maskUnits="userSpaceOnUse" x="0" y="0" width="26" height="26">
<path d="M26 0H0V26H26V0Z" fill="white"/>
</mask>
<g mask="url(#mask0_145_1517)">
<path d="M21.8725 15.2325L20.6483 13.1959C20.3775 12.7517 20.1392 11.8959 20.1392 11.3759V9.35001C20.1392 5.41751 16.9433 2.22168 13.0217 2.22168C9.08912 2.23251 5.89329 5.41751 5.89329 9.35001V11.365C5.89329 11.885 5.65496 12.7409 5.39496 13.185L4.17079 15.2217C3.70496 16.0125 3.59662 16.9117 3.88912 17.6917C4.18162 18.4825 4.84245 19.1109 5.70912 19.3925C6.87912 19.7825 8.05996 20.0642 9.26246 20.27C9.38162 20.2917 9.50079 20.3025 9.61996 20.3242C9.77162 20.3459 9.93412 20.3675 10.0966 20.3892C10.3783 20.4325 10.66 20.465 10.9525 20.4867C11.635 20.5517 12.3283 20.5842 13.0217 20.5842C13.7042 20.5842 14.3867 20.5517 15.0583 20.4867C15.3075 20.465 15.5567 20.4434 15.795 20.4109C15.99 20.3892 16.185 20.3675 16.38 20.335C16.4992 20.3242 16.6183 20.3025 16.7375 20.2809C17.9508 20.0859 19.1533 19.7825 20.3233 19.3925C21.1575 19.1109 21.7967 18.4825 22.1 17.6809C22.4033 16.8684 22.3167 15.98 21.8725 15.2325ZM13.8125 10.8342C13.8125 11.2892 13.4442 11.6575 12.9892 11.6575C12.5342 11.6575 12.1658 11.2892 12.1658 10.8342V7.47585C12.1658 7.02085 12.5342 6.65251 12.9892 6.65251C13.4442 6.65251 13.8125 7.02085 13.8125 7.47585V10.8342Z" fill="#475569"/>
<path d="M16.0657 21.6776C15.6107 22.9342 14.4082 23.8334 12.9999 23.8334C12.1441 23.8334 11.2991 23.4867 10.7033 22.8692C10.3566 22.5442 10.0966 22.1109 9.94495 21.6667C10.0858 21.6884 10.2266 21.6992 10.3783 21.7209C10.6274 21.7534 10.8874 21.7859 11.1474 21.8076C11.7649 21.8617 12.3932 21.8942 13.0216 21.8942C13.6391 21.8942 14.2566 21.8617 14.8632 21.8076C15.0907 21.7859 15.3182 21.7751 15.5349 21.7426C15.7082 21.7209 15.8816 21.6992 16.0657 21.6776Z" fill="#475569"/>
</g>
</svg>
