<svg width="25" height="27" viewBox="0 0 25 27" fill="none" xmlns="http://www.w3.org/2000/svg">
<path d="M3.84199 26.0098V4.21576L1.12199 6.79977L-8.69483e-06 5.47376L5.74599 -0.000235915L11.492 5.47376L10.37 6.79977L7.64999 4.21576V8.15976C6.17666 9.06643 5.43999 10.6644 5.43999 12.9538C5.43999 15.2204 6.17666 16.8184 7.64999 17.7478V26.0098H3.84199ZM19.006 26.5198L13.26 21.0458L14.382 19.7198L17.102 22.3038V20.1618C17.102 19.3231 17 18.7678 16.796 18.4958C16.6147 18.2011 16.1727 18.0538 15.47 18.0538H12.546C10.9593 18.0538 9.73533 17.6344 8.87399 16.7958C8.01266 15.9344 7.58199 14.7218 7.58199 13.1578C7.58199 11.5938 8.01266 10.3924 8.87399 9.55376C9.73533 8.69243 10.9593 8.26177 12.546 8.26177H15.47C16.1727 8.26177 16.6147 8.12576 16.796 7.85376C17 7.5591 17.102 6.99243 17.102 6.15376V0.917764H20.91V8.12576C20.91 9.44043 20.6493 10.4038 20.128 11.0158C19.6067 11.6051 18.734 11.8998 17.51 11.8998H12.546C12.206 11.8998 11.9227 12.0244 11.696 12.2738C11.492 12.5231 11.39 12.8178 11.39 13.1578C11.39 13.4978 11.492 13.7924 11.696 14.0418C11.9227 14.2911 12.206 14.4158 12.546 14.4158H17.51C18.734 14.4158 19.6067 14.7104 20.128 15.2998C20.6493 15.8891 20.91 16.8524 20.91 18.1898V22.3038L23.63 19.7198L24.752 21.0458L19.006 26.5198Z" fill="black"/>
</svg>
