<svg width="14" height="14" viewBox="0 0 14 14" fill="none" xmlns="http://www.w3.org/2000/svg">
<g clip-path="url(#clip0_96_2011)">
<mask id="mask0_96_2011" style="mask-type:luminance" maskUnits="userSpaceOnUse" x="0" y="0" width="14" height="14">
<path d="M14 0H0V14H14V0Z" fill="white"/>
</mask>
<g mask="url(#mask0_96_2011)">
<path d="M12.8333 2.82882V9.76466C12.8333 10.3305 12.3725 10.8497 11.8067 10.9197L11.6258 10.943C10.6692 11.0713 9.32167 11.468 8.23667 11.923C7.8575 12.0805 7.4375 11.7947 7.4375 11.3805V3.26632C7.4375 3.05049 7.56 2.85216 7.7525 2.74716C8.82 2.16966 10.4358 1.65632 11.5325 1.56299H11.5675C12.2675 1.56299 12.8333 2.12882 12.8333 2.82882Z" fill="#2EC4B6"/>
<path d="M6.2475 2.74716C5.17999 2.16966 3.56416 1.65632 2.46749 1.56299H2.42666C1.72666 1.56299 1.16083 2.12882 1.16083 2.82882V9.76466C1.16083 10.3305 1.62166 10.8497 2.18749 10.9197L2.36833 10.943C3.32499 11.0713 4.67249 11.468 5.75749 11.923C6.13667 12.0805 6.55667 11.7947 6.55667 11.3805V3.26632C6.55667 3.04465 6.44 2.85216 6.2475 2.74716ZM2.91666 4.51465H4.22916C4.46833 4.51465 4.66666 4.71299 4.66666 4.95215C4.66666 5.19715 4.46833 5.38965 4.22916 5.38965H2.91666C2.67749 5.38965 2.47916 5.19715 2.47916 4.95215C2.47916 4.71299 2.67749 4.51465 2.91666 4.51465ZM4.66666 7.13966H2.91666C2.67749 7.13966 2.47916 6.94716 2.47916 6.70216C2.47916 6.46299 2.67749 6.26466 2.91666 6.26466H4.66666C4.90583 6.26466 5.10416 6.46299 5.10416 6.70216C5.10416 6.94716 4.90583 7.13966 4.66666 7.13966Z" fill="#2EC4B6"/>
</g>
</g>
<defs>
<clipPath id="clip0_96_2011">
<rect width="14" height="14" fill="white"/>
</clipPath>
</defs>
</svg>
