<svg width="23" height="21" viewBox="0 0 23 21" fill="none" xmlns="http://www.w3.org/2000/svg">
<path d="M5.94358 14.3748C4.83862 14.3748 3.73558 14.0365 2.80217 13.3724L0.813625 11.9579C0.384292 11.6531 0.094875 11.1797 0.020125 10.6612C-0.0507917 10.1735 0.071875 9.69908 0.366083 9.32341C0.8625 8.689 1.69721 8.44654 2.44471 8.71966L5.55642 9.862L19.6008 3.0952C20.8006 2.54033 22.2237 3.06645 22.7777 4.26437C23.3316 5.46037 22.8141 6.895 21.6248 7.46329L8.257 13.8525C7.52388 14.2023 6.73421 14.3748 5.94358 14.3748ZM23 19.1665C23 18.6365 22.5707 18.2081 22.0417 18.2081H0.958333C0.429333 18.2081 0 18.6365 0 19.1665C0 19.6964 0.429333 20.1248 0.958333 20.1248H22.0417C22.5707 20.1248 23 19.6964 23 19.1665ZM8.25508 6.435L13.4483 3.93279L7.843 0.471288C7.13958 -0.051004 6.20713 -0.146837 5.40692 0.222121L4.65846 0.573829C4.21954 0.779871 3.91671 1.19004 3.84771 1.67016C3.77871 2.15125 3.95408 2.62945 4.31729 2.95145L8.25412 6.43595L8.25508 6.435Z" fill="#2E48F0"/>
</svg>
