<svg width="17" height="21" viewBox="0 0 17 21" fill="none" xmlns="http://www.w3.org/2000/svg">
<path d="M14.1643 19.9442C13.0658 21.0406 11.8665 20.8675 10.712 20.3481C9.49031 19.8172 8.36946 19.7941 7.08049 20.3481C5.46647 21.0637 4.61462 20.856 3.65069 19.9442C-1.81905 14.1387 -1.01204 5.29767 5.19746 4.9745C6.71061 5.05529 7.76421 5.82859 8.64968 5.89784C9.97228 5.62083 11.2388 4.82445 12.6511 4.92833C14.3436 5.06683 15.6214 5.75934 16.462 7.00585C12.9649 9.16415 13.7944 13.9078 17 15.2351C16.3611 16.9664 15.5317 18.6861 14.153 19.9557L14.1643 19.9442ZM8.53759 4.90525C8.36946 2.33143 10.3982 0.207752 12.7296 0C13.0546 2.97777 10.1068 5.19379 8.53759 4.90525Z" fill="white"/>
</svg>
