<svg width="21" height="21" viewBox="0 0 21 21" fill="none" xmlns="http://www.w3.org/2000/svg">
<g clip-path="url(#clip0_100_2432)">
<path d="M16.625 3.5H15.6625C15.4594 2.51249 14.9221 1.62518 14.1411 0.987628C13.3601 0.350079 12.3832 0.00127271 11.375 0L9.625 0C8.61682 0.00127271 7.6399 0.350079 6.85891 0.987628C6.07791 1.62518 5.54058 2.51249 5.3375 3.5H4.375C3.2151 3.50139 2.10311 3.96277 1.28294 4.78294C0.462772 5.60311 0.00138938 6.7151 0 7.875L0 10.5H21V7.875C20.9986 6.7151 20.5372 5.60311 19.7171 4.78294C18.8969 3.96277 17.7849 3.50139 16.625 3.5ZM7.161 3.5C7.34132 2.98996 7.67483 2.54808 8.11589 2.23483C8.55695 1.92157 9.08402 1.75224 9.625 1.75H11.375C11.916 1.75224 12.4431 1.92157 12.8841 2.23483C13.3252 2.54808 13.6587 2.98996 13.839 3.5H7.161Z" fill="#3F90ED"/>
<path d="M11.375 13.125C11.375 13.3571 11.2828 13.5796 11.1187 13.7437C10.9546 13.9078 10.7321 14 10.5 14C10.2679 14 10.0454 13.9078 9.88128 13.7437C9.71719 13.5796 9.625 13.3571 9.625 13.125V12.25H0V16.625C0.00138938 17.7849 0.462772 18.8969 1.28294 19.7171C2.10311 20.5372 3.2151 20.9986 4.375 21H16.625C17.7849 20.9986 18.8969 20.5372 19.7171 19.7171C20.5372 18.8969 20.9986 17.7849 21 16.625V12.25H11.375V13.125Z" fill="#3F90ED"/>
</g>
<defs>
<clipPath id="clip0_100_2432">
<rect width="21" height="21" fill="white"/>
</clipPath>
</defs>
</svg>
