<svg width="20" height="20" viewBox="0 0 20 20" fill="none" xmlns="http://www.w3.org/2000/svg">
<g clip-path="url(#clip0_6_1177)">
<path d="M16.6668 6.66667C15.7828 6.66667 14.9349 6.31548 14.3098 5.69036C13.6847 5.06524 13.3335 4.21739 13.3335 3.33333C13.3335 2.44928 13.6847 1.60143 14.3098 0.976311C14.9349 0.35119 15.7828 0 16.6668 0C17.5509 0 18.3987 0.35119 19.0238 0.976311C19.649 1.60143 20.0002 2.44928 20.0002 3.33333C20.0002 4.21739 19.649 5.06524 19.0238 5.69036C18.3987 6.31548 17.5509 6.66667 16.6668 6.66667ZM16.6668 1.66667C16.2248 1.66667 15.8009 1.84226 15.4883 2.15482C15.1757 2.46738 15.0002 2.89131 15.0002 3.33333C15.0002 3.77536 15.1757 4.19928 15.4883 4.51185C15.8009 4.82441 16.2248 5 16.6668 5C17.1088 5 17.5328 4.82441 17.8453 4.51185C18.1579 4.19928 18.3335 3.77536 18.3335 3.33333C18.3335 2.89131 18.1579 2.46738 17.8453 2.15482C17.5328 1.84226 17.1088 1.66667 16.6668 1.66667ZM17.8768 20H10.491C10.1174 20.0033 9.74951 19.9079 9.42454 19.7236C9.09957 19.5392 8.829 19.2724 8.64015 18.95C8.45508 18.6393 8.35538 18.2853 8.35114 17.9237C8.34689 17.5621 8.43826 17.2058 8.61598 16.8908L12.3127 10.2583C12.503 9.92961 12.7764 9.65671 13.1055 9.46699C13.4346 9.27727 13.8078 9.1774 14.1877 9.1774C14.5675 9.1774 14.9407 9.27727 15.2698 9.46699C15.5989 9.65671 15.8723 9.92961 16.0627 10.2583L19.7502 16.8858C19.9282 17.2012 20.0198 17.5581 20.0157 17.9202C20.0116 18.2824 19.912 18.637 19.7268 18.9483C19.5381 19.2707 19.2677 19.5377 18.9429 19.7223C18.6181 19.9069 18.2504 20.0027 17.8768 20ZM14.186 10.8333C14.1017 10.8313 14.0185 10.8522 13.9451 10.8937C13.8717 10.9353 13.811 10.9959 13.7693 11.0692L10.0727 17.7017C10.0369 17.7632 10.0185 17.8333 10.0194 17.9044C10.0203 17.9756 10.0404 18.0452 10.0777 18.1058C10.1203 18.1776 10.1815 18.2366 10.2548 18.2766C10.3281 18.3167 10.4109 18.3362 10.4943 18.3333H17.8802C17.9637 18.3358 18.0465 18.3159 18.1197 18.2756C18.193 18.2353 18.2542 18.1761 18.2968 18.1042C18.3334 18.0425 18.3527 17.9721 18.3527 17.9004C18.3527 17.8287 18.3334 17.7583 18.2968 17.6967L14.6035 11.07C14.562 10.9963 14.5012 10.9353 14.4276 10.8936C14.3541 10.8519 14.2705 10.8311 14.186 10.8333ZM6.66682 19.1667C6.66682 18.9457 6.57902 18.7337 6.42274 18.5774C6.26646 18.4211 6.0545 18.3333 5.83348 18.3333H2.79182C2.59693 18.3332 2.40542 18.2824 2.23608 18.186C2.06674 18.0895 1.92539 17.9507 1.82589 17.7831C1.72639 17.6155 1.67216 17.425 1.66852 17.2301C1.66489 17.0353 1.71197 16.8428 1.80515 16.6717L7.34848 6.42167C7.44329 6.24301 7.58522 6.09372 7.75886 5.99001C7.9325 5.88629 8.13123 5.83211 8.33348 5.83333C8.53594 5.83168 8.73495 5.88567 8.9088 5.98943C9.08266 6.09318 9.22466 6.2427 9.31932 6.42167L10.3418 8.31083C10.3939 8.40714 10.4645 8.49224 10.5494 8.56127C10.6344 8.63031 10.7322 8.68194 10.8371 8.7132C10.942 8.74446 11.0521 8.75475 11.161 8.74348C11.2699 8.7322 11.3755 8.69959 11.4718 8.6475C11.5681 8.59541 11.6532 8.52486 11.7223 8.43988C11.7913 8.3549 11.8429 8.25716 11.8742 8.15223C11.9054 8.0473 11.9157 7.93724 11.9045 7.82833C11.8932 7.71942 11.8606 7.6138 11.8085 7.5175L10.7868 5.62917C10.548 5.18687 10.194 4.8174 9.76235 4.55989C9.33067 4.30239 8.83738 4.16643 8.33473 4.16643C7.83209 4.16643 7.3388 4.30239 6.90712 4.55989C6.47545 4.8174 6.12146 5.18687 5.88265 5.62917L0.338484 15.8792C0.108571 16.3043 -0.00705604 16.7819 0.00291357 17.2651C0.0128832 17.7483 0.148108 18.2207 0.395361 18.636C0.642614 19.0513 0.993429 19.3953 1.41349 19.6344C1.83355 19.8735 2.30848 19.9995 2.79182 20H5.83348C6.0545 20 6.26646 19.9122 6.42274 19.7559C6.57902 19.5996 6.66682 19.3877 6.66682 19.1667Z" fill="#2EC4B6"/>
</g>
<defs>
<clipPath id="clip0_6_1177">
<rect width="20" height="20" fill="white"/>
</clipPath>
</defs>
</svg>
