<svg width="21" height="21" viewBox="0 0 21 21" fill="none" xmlns="http://www.w3.org/2000/svg">
<g clip-path="url(#clip0_100_2396)">
<path d="M17.5 0V7H12.25V5.25C12.25 4.28312 11.4669 3.5 10.5 3.5C9.53312 3.5 8.75 4.28312 8.75 5.25V7H3.5V0H5.25V1.75H7V0H8.75V1.75H12.25V0H14V1.75H15.75V0H17.5ZM1.75 8.75V14H8.75V12.25C8.75 11.2831 9.53312 10.5 10.5 10.5C11.4669 10.5 12.25 11.2831 12.25 12.25V14H19.25V8.75H1.75ZM0 15.75V21H8.75V19.25C8.75 18.2831 9.53312 17.5 10.5 17.5C11.4669 17.5 12.25 18.2831 12.25 19.25V21H21V15.75H0Z" fill="#70CDBB"/>
</g>
<defs>
<clipPath id="clip0_100_2396">
<rect width="21" height="21" fill="white"/>
</clipPath>
</defs>
</svg>
