<svg width="34" height="34" viewBox="0 0 34 34" fill="none" xmlns="http://www.w3.org/2000/svg">
<g clip-path="url(#clip0_139_1930)">
<mask id="mask0_139_1930" style="mask-type:luminance" maskUnits="userSpaceOnUse" x="0" y="0" width="34" height="34">
<path d="M34 0H0V34H34V0Z" fill="white"/>
</mask>
<g mask="url(#mask0_139_1930)">
<path opacity="0.4" d="M29.8775 30.458C29.8775 30.8547 29.5658 31.1663 29.1692 31.1663H4.83089C4.43423 31.1663 4.12256 30.8547 4.12256 30.458C4.12256 24.593 9.90256 19.833 17 19.833C18.4592 19.833 19.8758 20.0313 21.1792 20.4138C20.3433 21.4055 19.8333 22.6947 19.8333 24.083C19.8333 25.1455 20.1308 26.1513 20.655 27.0013C20.9383 27.483 21.3067 27.9222 21.7317 28.2905C22.7233 29.1972 24.0408 29.7497 25.5 29.7497C27.0867 29.7497 28.5175 29.098 29.5375 28.0497C29.7642 28.8147 29.8775 29.6222 29.8775 30.458Z" fill="#E63D4F"/>
<path d="M30.9967 22.7225C30.8551 22.17 30.6284 21.6175 30.3167 21.1217C30.1042 20.7534 29.8209 20.3992 29.5092 20.0734C28.4892 19.0534 27.1576 18.5009 25.7976 18.43C24.2534 18.3309 22.6809 18.8975 21.4909 20.0734C20.3717 21.1925 19.8051 22.68 19.8334 24.1675C19.8476 25.5842 20.4142 27.0009 21.4909 28.0917C22.2417 28.8425 23.1626 29.3384 24.1401 29.565C24.6784 29.7067 25.2451 29.7634 25.8117 29.7209C27.1576 29.6642 28.4751 29.1259 29.5092 28.0917C30.9684 26.6325 31.4642 24.5784 30.9967 22.7225ZM27.7667 26.3492C27.3559 26.76 26.6759 26.76 26.2651 26.3492L25.4859 25.57L24.7351 26.3209C24.3242 26.7317 23.6442 26.7317 23.2334 26.3209C22.8226 25.8959 22.8226 25.23 23.2334 24.8192L23.9842 24.0684L23.2617 23.36C22.8509 22.935 22.8509 22.2692 23.2617 21.8442C23.6867 21.4334 24.3526 21.4334 24.7776 21.8442L25.4859 22.5667L26.2367 21.8159C26.6476 21.405 27.3134 21.405 27.7384 21.8159C28.1492 22.2267 28.1492 22.9067 27.7384 23.3175L26.9876 24.0684L27.7667 24.8475C28.1776 25.2584 28.1776 25.9384 27.7667 26.3492Z" fill="#E63D4F"/>
<path d="M17 16.9997C20.9119 16.9997 24.0833 13.8284 24.0833 9.91634C24.0833 6.00433 20.9119 2.83301 17 2.83301C13.0879 2.83301 9.91663 6.00433 9.91663 9.91634C9.91663 13.8284 13.0879 16.9997 17 16.9997Z" fill="#E63D4F"/>
</g>
</g>
<defs>
<clipPath id="clip0_139_1930">
<rect width="34" height="34" fill="white"/>
</clipPath>
</defs>
</svg>
