<svg width="13" height="13" viewBox="0 0 13 13" fill="none" xmlns="http://www.w3.org/2000/svg">
<g clip-path="url(#clip0_100_2954)">
<mask id="mask0_100_2954" style="mask-type:luminance" maskUnits="userSpaceOnUse" x="0" y="0" width="13" height="13">
<path d="M13 0H0V13H13V0Z" fill="white"/>
</mask>
<g mask="url(#mask0_100_2954)">
<path d="M11.375 11.917H1.625C1.40292 11.917 1.21875 11.7328 1.21875 11.5107C1.21875 11.2887 1.40292 11.1045 1.625 11.1045H11.375C11.5971 11.1045 11.7812 11.2887 11.7812 11.5107C11.7812 11.7328 11.5971 11.917 11.375 11.917Z" fill="#2EC4B6"/>
<path d="M10.3026 1.88523C9.25173 0.834394 8.22256 0.807311 7.14464 1.88523L6.48923 2.54064C6.43506 2.59481 6.41339 2.68148 6.43506 2.75731C6.84673 4.19273 7.99506 5.34106 9.43048 5.75274C9.45214 5.75816 9.47381 5.76358 9.49548 5.76358C9.55506 5.76358 9.60923 5.74191 9.65256 5.69858L10.3026 5.04314C10.8388 4.51231 11.0988 3.99773 11.0988 3.47773C11.1042 2.94148 10.8442 2.42148 10.3026 1.88523Z" fill="#2EC4B6"/>
<path d="M8.45546 6.24607C8.29838 6.17023 8.14671 6.0944 8.00046 6.00773C7.8813 5.93732 7.76755 5.86148 7.6538 5.78023C7.56171 5.72065 7.45338 5.63398 7.35046 5.54732C7.33963 5.5419 7.30171 5.5094 7.25838 5.46607C7.07963 5.31439 6.87921 5.11939 6.70046 4.90272C6.68421 4.89189 6.65713 4.85397 6.61921 4.80522C6.56505 4.74022 6.47296 4.63189 6.39171 4.50731C6.32671 4.42606 6.25088 4.30689 6.18046 4.18772C6.0938 4.04147 6.01796 3.89522 5.94213 3.74356C5.93065 3.71897 5.91954 3.6945 5.90876 3.67018C5.82881 3.48963 5.5934 3.43685 5.45376 3.57647L2.35086 6.6794C2.28045 6.74982 2.21545 6.88523 2.1992 6.97732L1.9067 9.0519C1.85253 9.42023 1.95545 9.7669 2.18295 9.99982C2.37795 10.1894 2.64878 10.2923 2.94128 10.2923C3.00628 10.2923 3.07128 10.2869 3.13628 10.2761L5.21628 9.98357C5.31378 9.96732 5.44921 9.90232 5.51421 9.8319L8.61325 6.73286C8.75381 6.59224 8.70078 6.35099 8.51792 6.27293C8.49733 6.26416 8.47653 6.25517 8.45546 6.24607Z" fill="#2EC4B6"/>
</g>
</g>
<defs>
<clipPath id="clip0_100_2954">
<rect width="13" height="13" fill="white"/>
</clipPath>
</defs>
</svg>
