<svg width="26" height="26" viewBox="0 0 26 26" fill="none" xmlns="http://www.w3.org/2000/svg">
<path d="M12.5493 2.57394C12.6828 2.48497 12.8396 2.4375 13 2.4375C13.1604 2.4375 13.3172 2.48497 13.4507 2.57394L23.2007 9.07394C23.2907 9.13256 23.3683 9.20845 23.4288 9.29724C23.4893 9.38602 23.5316 9.48593 23.5533 9.59117C23.5749 9.69642 23.5755 9.80492 23.5549 9.91038C23.5344 10.0158 23.4931 10.1162 23.4335 10.2056C23.3739 10.295 23.2971 10.3717 23.2077 10.4312C23.1182 10.4908 23.0179 10.532 22.9124 10.5525C22.8069 10.573 22.6984 10.5723 22.5932 10.5506C22.488 10.5289 22.3881 10.4865 22.2993 10.4259L13 4.22602L3.70067 10.4259C3.52136 10.5426 3.30326 10.5839 3.09371 10.5408C2.88416 10.4977 2.70007 10.3737 2.58139 10.1957C2.46272 10.0177 2.41905 9.80004 2.45985 9.59002C2.50065 9.38001 2.62264 9.19456 2.79933 9.07394L12.5493 2.57394Z" fill="#2563EB"/>
<path fill-rule="evenodd" clip-rule="evenodd" d="M21.9375 11.193V21.9375H22.75C22.9655 21.9375 23.1722 22.0231 23.3245 22.1755C23.4769 22.3279 23.5625 22.5345 23.5625 22.75C23.5625 22.9655 23.4769 23.1722 23.3245 23.3245C23.1722 23.4769 22.9655 23.5625 22.75 23.5625H3.25C3.03451 23.5625 2.82785 23.4769 2.67548 23.3245C2.5231 23.1722 2.4375 22.9655 2.4375 22.75C2.4375 22.5345 2.5231 22.3279 2.67548 22.1755C2.82785 22.0231 3.03451 21.9375 3.25 21.9375H4.0625V11.193C4.06275 10.9995 4.13207 10.8124 4.25799 10.6654C4.3839 10.5185 4.55813 10.4213 4.74933 10.3913C7.47873 9.96366 10.2373 9.74923 13 9.75C15.8058 9.75 18.5618 9.96884 21.2507 10.3913C21.4419 10.4213 21.6161 10.5185 21.742 10.6654C21.8679 10.8124 21.9372 10.9995 21.9375 11.193ZM13.8125 13.8125C13.8125 13.597 13.7269 13.3904 13.5745 13.238C13.4222 13.0856 13.2155 13 13 13C12.7845 13 12.5778 13.0856 12.4255 13.238C12.2731 13.3904 12.1875 13.597 12.1875 13.8125V21.125C12.1875 21.3405 12.2731 21.5472 12.4255 21.6995C12.5778 21.8519 12.7845 21.9375 13 21.9375C13.2155 21.9375 13.4222 21.8519 13.5745 21.6995C13.7269 21.5472 13.8125 21.3405 13.8125 21.125V13.8125ZM17.0625 13C17.278 13 17.4847 13.0856 17.637 13.238C17.7894 13.3904 17.875 13.597 17.875 13.8125V21.125C17.875 21.3405 17.7894 21.5472 17.637 21.6995C17.4847 21.8519 17.278 21.9375 17.0625 21.9375C16.847 21.9375 16.6404 21.8519 16.488 21.6995C16.3356 21.5472 16.25 21.3405 16.25 21.125V13.8125C16.25 13.597 16.3356 13.3904 16.488 13.238C16.6404 13.0856 16.847 13 17.0625 13ZM9.75 13.8125C9.75 13.597 9.6644 13.3904 9.51202 13.238C9.35965 13.0856 9.15299 13 8.9375 13C8.72201 13 8.51535 13.0856 8.36298 13.238C8.2106 13.3904 8.125 13.597 8.125 13.8125V21.125C8.125 21.3405 8.2106 21.5472 8.36298 21.6995C8.51535 21.8519 8.72201 21.9375 8.9375 21.9375C9.15299 21.9375 9.35965 21.8519 9.51202 21.6995C9.6644 21.5472 9.75 21.3405 9.75 21.125V13.8125Z" fill="#2563EB"/>
<path d="M13 8.53125C13.3232 8.53125 13.6332 8.40285 13.8618 8.17429C14.0903 7.94573 14.2188 7.63573 14.2188 7.3125C14.2188 6.98927 14.0903 6.67927 13.8618 6.45071C13.6332 6.22215 13.3232 6.09375 13 6.09375C12.6768 6.09375 12.3668 6.22215 12.1382 6.45071C11.9097 6.67927 11.7812 6.98927 11.7812 7.3125C11.7812 7.63573 11.9097 7.94573 12.1382 8.17429C12.3668 8.40285 12.6768 8.53125 13 8.53125Z" fill="#2563EB"/>
</svg>
