<svg width="19" height="30" viewBox="0 0 19 30" fill="none" xmlns="http://www.w3.org/2000/svg">
<path d="M7.77273 30V26.4706H4.31818V22.9412H7.77273V19.2353C5.49849 18.8235 3.63418 17.7129 2.17982 15.9035C0.725456 14.0941 -0.00115015 11.9988 1.36651e-06 9.61765C1.36651e-06 6.94118 0.928698 4.66941 2.78609 2.80235C4.64349 0.935295 6.88145 0.00117758 9.5 1.10988e-06C12.1185 -0.00117536 14.3571 0.932942 16.2156 2.80235C18.0742 4.67177 19.0023 6.94353 19 9.61765C19 12 18.2728 14.0959 16.8185 15.9053C15.3641 17.7147 13.5004 18.8247 11.2273 19.2353V22.9412H14.6818V26.4706H11.2273V30H7.77273ZM9.5 15.8824C11.1697 15.8824 12.5947 15.2794 13.775 14.0735C14.9553 12.8676 15.5455 11.4118 15.5455 9.70588C15.5455 8 14.9553 6.54412 13.775 5.33824C12.5947 4.13235 11.1697 3.52941 9.5 3.52941C7.8303 3.52941 6.4053 4.13235 5.225 5.33824C4.0447 6.54412 3.45455 8 3.45455 9.70588C3.45455 11.4118 4.0447 12.8676 5.225 14.0735C6.4053 15.2794 7.8303 15.8824 9.5 15.8824Z" fill="#9BB3B4"/>
</svg>
