<svg width="24" height="23" viewBox="0 0 24 23" fill="none" xmlns="http://www.w3.org/2000/svg">
<path d="M23.9888 15.8068V16.2859H8.9888C8.92679 15.6823 8.99678 15.0728 9.19429 14.4965C9.3918 13.9202 9.71251 13.3897 10.1359 12.9389C10.5594 12.488 11.0762 12.1267 11.6535 11.8779C12.2308 11.6292 12.8559 11.4985 13.4888 11.4943H19.4888C20.6823 11.4943 21.8269 11.9486 22.6708 12.7574C23.5147 13.5661 23.9888 14.663 23.9888 15.8068ZM18.1888 19.9554C18.0246 20.0602 17.8316 20.1162 17.6343 20.1162C17.437 20.1162 17.244 20.0602 17.0798 19.9554L14.3318 18.2026H8.9888C8.92695 18.8062 8.99704 19.4156 9.19461 19.9918C9.39219 20.568 9.7129 21.0985 10.1363 21.5493C10.5597 22.0002 11.0765 22.3615 11.6537 22.6103C12.2309 22.8591 12.8559 22.9898 13.4888 22.9943H19.4888C20.1217 22.99 20.7468 22.8593 21.3241 22.6106C21.9014 22.3618 22.4182 22.0005 22.8417 21.5496C23.2651 21.0988 23.5858 20.5683 23.7833 19.992C23.9808 19.4157 24.0508 18.8062 23.9888 18.2026H20.9388L18.1888 19.9554ZM6.9888 15.8068V18.6817C6.98897 20.2961 7.64622 21.8467 8.8208 23.0038H6.5208C5.30263 23.0025 4.1268 22.5754 3.2137 21.8027C2.3006 21.0299 1.71291 19.9646 1.5608 18.8063L0.0477951 7.25075C-0.0300479 6.83644 -0.012639 6.41083 0.0988075 6.00363C0.210254 5.59643 0.413055 5.21742 0.693066 4.89306C0.973076 4.56869 1.32356 4.30677 1.72006 4.12556C2.11656 3.94436 2.54954 3.84823 2.9888 3.84388H9.6058L9.7788 2.51754C9.86965 1.82267 10.222 1.18347 10.7698 0.719935C11.3176 0.256399 12.023 0.000401878 12.7538 0H15.9888C16.254 3.78737e-09 16.5084 0.100967 16.6959 0.280689C16.8834 0.460412 16.9888 0.704168 16.9888 0.958333C16.9888 1.2125 16.8834 1.45625 16.6959 1.63598C16.5084 1.8157 16.254 1.91667 15.9888 1.91667H12.7538C11.6638 1.91667 11.7268 3.10979 11.6198 3.84483H13.9888C14.4371 3.84788 14.879 3.94663 15.2825 4.13391C15.686 4.32118 16.0408 4.59227 16.3213 4.92747C16.6017 5.26266 16.8006 5.65353 16.9037 6.07166C17.0067 6.48979 17.0112 6.92467 16.9168 7.34467L16.6238 9.57758H13.4888C11.7654 9.57911 10.113 10.2359 8.89436 11.4037C7.67571 12.5716 6.99038 14.1551 6.9888 15.8068ZM11.3688 5.7615L11.1218 7.66092H14.8618L14.9468 7.01404C14.9933 6.86973 15.0039 6.71701 14.9778 6.56807C14.9517 6.41913 14.8896 6.27809 14.7966 6.15622C14.7035 6.03435 14.582 5.93502 14.4417 5.86615C14.3015 5.79728 14.1464 5.76079 13.9888 5.75958L11.3688 5.7615ZM9.1068 7.66092L9.3558 5.75767H2.9888C2.83944 5.75864 2.69218 5.79147 2.55772 5.85378C2.42325 5.91609 2.30495 6.00631 2.2114 6.11789C2.11785 6.22947 2.0514 6.35962 2.01687 6.49888C1.98235 6.63814 1.98061 6.78302 2.0118 6.923L2.1118 7.66092H9.1068Z" fill="#F02E2E"/>
</svg>
