<svg width="21" height="21" viewBox="0 0 21 21" fill="none" xmlns="http://www.w3.org/2000/svg">
<path d="M14.875 0H6.125C4.67775 0 3.5 1.17775 3.5 2.625V21H17.5V2.625C17.5 1.17775 16.3223 0 14.875 0ZM9.625 16.625H7V14.875H9.625V16.625ZM9.625 13.125H7V11.375H9.625V13.125ZM7.875 7V5.25H9.625V3.5H11.375V5.25H13.125V7H11.375V8.75H9.625V7H7.875ZM14 16.625H11.375V14.875H14V16.625ZM14 13.125H11.375V11.375H14V13.125ZM21 7.875V21H19.25V5.411C20.2659 5.77325 21 6.73575 21 7.875ZM1.75 5.411V21H0V7.875C0 6.73575 0.734125 5.77325 1.75 5.411Z" fill="#5EC768"/>
</svg>
