<svg width="18" height="18" viewBox="0 0 18 18" fill="none" xmlns="http://www.w3.org/2000/svg">
<path d="M0.75 9.60938C0.75 9.066 1.191 8.625 1.73438 8.625H3.70312C4.2465 8.625 4.6875 9.066 4.6875 9.60938V15.5156C4.6875 16.059 4.2465 16.5 3.70312 16.5H1.73438C1.4733 16.5 1.22292 16.3963 1.03832 16.2117C0.853711 16.0271 0.75 15.7767 0.75 15.5156V9.60938ZM6.65625 5.67188C6.65625 5.1285 7.09725 4.6875 7.64062 4.6875H9.60938C10.1527 4.6875 10.5938 5.1285 10.5938 5.67188V15.5156C10.5938 16.059 10.1527 16.5 9.60938 16.5H7.64062C7.37955 16.5 7.12917 16.3963 6.94457 16.2117C6.75996 16.0271 6.65625 15.7767 6.65625 15.5156V5.67188ZM12.5625 1.73438C12.5625 1.191 13.0035 0.75 13.5469 0.75H15.5156C16.059 0.75 16.5 1.191 16.5 1.73438V15.5156C16.5 16.059 16.059 16.5 15.5156 16.5H13.5469C13.2858 16.5 13.0354 16.3963 12.8508 16.2117C12.6662 16.0271 12.5625 15.7767 12.5625 15.5156V1.73438Z" stroke="#2EC4B6" stroke-width="1.5" stroke-linecap="round" stroke-linejoin="round"/>
</svg>
