<svg width="28" height="28" viewBox="0 0 28 28" fill="none" xmlns="http://www.w3.org/2000/svg">
<mask id="mask0_144_985" style="mask-type:luminance" maskUnits="userSpaceOnUse" x="0" y="0" width="28" height="28">
<path d="M28 0H0V27.6923H28V0Z" fill="white"/>
</mask>
<g mask="url(#mask0_144_985)">
<path d="M18.6667 14.6423V20.8615C18.6667 23.5615 16.8467 25.35 14.1283 25.35H6.87168C4.15334 25.35 2.33334 23.5615 2.33334 20.8615V11.8962C2.33334 9.19618 4.15334 7.40771 6.87168 7.40771H11.34C12.5417 7.40771 13.6967 7.88079 14.5483 8.7231L17.3367 11.4693C18.1883 12.3115 18.6667 13.4538 18.6667 14.6423Z" fill="white"/>
<path d="M25.6667 9.52008V15.7393C25.6667 18.4278 23.8467 20.2278 21.1283 20.2278H19.8333V14.6432C19.8333 13.1547 19.2267 11.7008 18.165 10.6508L15.3767 7.9047C14.315 6.85469 12.845 6.25469 11.34 6.25469H9.35669C9.56669 3.8547 11.3284 2.27393 13.8717 2.27393H18.34C19.5417 2.27393 20.6967 2.747 21.5483 3.58931L24.3367 6.347C25.1883 7.18931 25.6667 8.33162 25.6667 9.52008Z" fill="white"/>
</g>
</svg>
