<svg width="33" height="33" viewBox="0 0 33 33" fill="none" xmlns="http://www.w3.org/2000/svg">
<g clip-path="url(#clip0_159_2467)">
<path d="M33.3126 0H0.0645294V33.023H33.3126V0Z" fill="url(#paint0_linear_159_2467)"/>
<mask id="mask0_159_2467" style="mask-type:luminance" maskUnits="userSpaceOnUse" x="0" y="0" width="34" height="34">
<path d="M33.3126 0H0.0645294V33.023H33.3126V0Z" fill="white"/>
</mask>
<g mask="url(#mask0_159_2467)">
<g opacity="0.1">
<path d="M12.5786 26.3268C12.3707 26.2024 12.1293 26.1468 11.8923 26.0944C11.7412 26.0608 11.5901 26.0282 11.439 25.9952C11.002 25.9004 10.565 25.8055 10.128 25.7107C9.95413 25.6728 9.74684 25.6027 9.71367 25.4291C9.69402 25.3272 9.74561 25.2269 9.76926 25.1259C9.79291 25.025 9.77079 24.892 9.67099 24.8609C9.56872 24.576 9.25824 24.4009 8.97939 24.2792C8.70054 24.1575 8.39989 24.0815 8.14131 23.9217C7.90546 23.7759 7.7126 23.5624 7.59252 23.3138C7.40703 22.9301 6.76304 22.9465 6.33678 22.9889C6.15989 23.0066 5.9873 23.0521 5.81532 23.0975C5.47782 23.1866 5.14031 23.2757 4.80281 23.3647C4.7678 23.3739 4.73156 23.3827 4.69532 23.391C4.6944 23.391 4.69379 23.3916 4.69256 23.3919C4.68795 23.3931 4.68365 23.3934 4.67905 23.3943C4.64956 23.4007 4.62008 23.4062 4.59029 23.4111C4.20611 23.4751 3.93832 23.3251 3.87843 23.3034V23.3025C3.77463 23.2583 3.67575 23.1872 3.60665 23.1167C3.48903 22.9969 3.43436 22.827 3.42361 22.6598C3.41287 22.4927 3.41133 22.3313 3.42515 22.1645C3.43651 22.0272 3.29893 21.9186 3.16288 21.8927C3.02684 21.8668 2.88649 21.8948 2.74799 21.8863C2.60979 21.8777 2.45686 21.8143 2.41571 21.6828C2.39052 21.602 2.41386 21.5148 2.44027 21.4342C2.50692 21.2314 2.53885 20.9703 2.71697 20.851C2.82354 20.7797 2.94976 20.6772 2.91659 20.5536C2.89755 20.4826 2.82538 20.4341 2.75168 20.4252C2.67797 20.4164 2.60396 20.4402 2.53793 20.4734C2.19214 20.647 1.983 21.074 1.59912 21.1268C1.27697 21.171 0.977549 20.9072 0.869756 20.6024C0.761963 20.2977 0.785302 19.9494 0.799429 19.6267C0.81417 19.2829 1.07275 18.9632 1.40749 18.8748C1.57087 18.8315 1.74254 18.8394 1.91083 18.8269C2.07912 18.8141 2.21978 18.7113 2.37824 18.6533C2.60457 18.5707 2.87052 18.6036 3.06953 18.7391C3.38062 18.9507 3.4878 19.3506 3.70461 19.6572C3.76327 19.7401 3.85509 19.8252 3.95337 19.7981C4.0283 19.7774 4.07221 19.6947 4.07313 19.6175C4.07406 19.54 4.08358 19.4379 4.07958 19.3607C4.06884 19.1539 4.05809 18.9456 4.08849 18.7406C4.11889 18.5356 4.19383 18.3322 4.33448 18.1793C4.56081 17.9338 4.95912 17.8585 5.03866 17.5351C5.10254 17.2759 5.31413 17.0788 5.53617 16.9281C5.75789 16.7775 6.00266 16.6542 6.1906 16.4636C6.34845 16.3038 6.4372 16.0973 6.54008 15.8978C6.67951 15.6275 6.95529 15.4314 7.25778 15.3872C7.47214 15.3557 7.73041 15.3804 7.86308 15.2105C7.96657 15.0782 7.93648 14.882 7.84987 14.7384C7.76327 14.5947 7.6306 14.4855 7.52066 14.3586C7.41072 14.2317 7.31674 14.0746 7.33947 13.9087C7.3622 13.7449 7.49241 13.611 7.64381 13.5424C7.79521 13.4737 7.96534 13.4603 8.13179 13.4573C8.43183 13.4515 8.73955 13.4747 9.02454 13.3813C9.30953 13.288 9.57056 13.0366 9.55644 12.7389C9.54323 12.4586 9.30523 12.2494 9.10285 12.0536C9.01809 11.9715 8.93793 11.8663 8.87897 11.7531C8.87651 11.7485 8.87375 11.7458 8.87129 11.7409C8.86546 11.7296 8.86177 11.7189 8.85625 11.7077C8.85164 11.6976 8.84672 11.6875 8.84273 11.6775C8.69225 11.3456 8.75459 11.0543 8.75982 10.9689C8.76811 10.8646 8.76135 10.7417 8.67475 10.6822C8.57033 10.6105 8.42722 10.6816 8.33264 10.7658C8.23805 10.8499 8.1407 10.9555 8.01356 10.9549C7.85601 10.9543 7.74945 10.7847 7.73532 10.6285C7.7212 10.4726 7.76665 10.3165 7.75743 10.16C7.74116 9.88454 7.48749 9.71525 7.27406 9.53834C7.12143 9.41175 6.89417 9.35563 6.71943 9.45049C6.59444 9.51821 6.51797 9.64723 6.44765 9.77016C6.30607 10.0172 6.16143 10.2747 6.13901 10.558C6.12273 10.7633 6.17248 10.9698 6.1516 11.1745C6.14085 11.2791 6.104 11.4014 6.04319 11.4999C6.04258 11.5009 6.04258 11.5018 6.04196 11.5027C5.94983 11.6457 5.80427 11.8986 5.79628 12.0197C5.77878 12.2076 5.74131 12.3934 5.67836 12.5715C5.65072 12.6499 5.61294 12.7332 5.53801 12.7704C5.43206 12.8228 5.29909 12.7536 5.23736 12.6532C5.17563 12.5529 5.16519 12.4309 5.14799 12.3147C5.02945 11.5094 4.4739 10.7578 3.74116 10.3936C3.4531 10.2503 3.37571 9.85251 3.49271 9.5542C3.60972 9.25589 3.86676 9.03719 4.12012 8.83892C4.60442 8.46008 5.11452 8.15292 5.61172 7.79056C5.81133 7.64506 6.01095 7.49957 6.21056 7.35437C6.39114 7.22291 6.58154 7.07833 6.65402 6.86786C6.69241 6.75622 6.69363 6.63604 6.71697 6.52044C6.74031 6.40484 6.79436 6.28496 6.90001 6.23128C7.07813 6.14069 7.28511 6.281 7.42331 6.42466C7.62753 6.63635 7.75529 6.89775 7.90546 7.14879C7.90638 7.15031 7.90669 7.15123 7.9073 7.15275C8.11275 7.50475 7.93402 7.76524 7.76358 7.85736C7.52189 7.98852 7.27989 8.11937 7.0382 8.25053C6.94177 8.30269 6.82937 8.39054 6.861 8.49485C6.89479 8.60558 7.0468 8.60832 7.16227 8.62449C7.36434 8.65255 7.53847 8.78829 7.65732 8.95269C7.77648 9.1171 7.92726 9.29341 7.97363 9.49076C8.01202 9.65303 8.19905 9.75491 8.36427 9.72562C8.52949 9.69634 8.66185 9.55817 8.71283 9.39925C8.76381 9.24033 8.74231 9.06555 8.68488 8.90877C8.62745 8.75199 8.6296 8.5525 8.50308 8.443C8.42814 8.37803 8.46193 8.23254 8.55805 8.20722C8.63175 8.1877 8.70853 8.23162 8.76074 8.28744C8.81294 8.34295 8.85072 8.41097 8.90722 8.46222C8.99997 8.5461 9.15168 8.56288 9.27974 8.52292C9.34577 8.49577 9.47014 8.40518 9.39367 8.16268C9.30246 7.88755 9.21126 7.61242 9.12005 7.33729C9.03222 7.07284 8.94469 6.80838 8.85686 6.54393C8.78592 6.33011 8.67505 6.12788 8.48219 6.01014C8.1017 5.77801 7.7817 5.4492 7.56089 5.06365C7.46477 4.89558 7.38554 4.7147 7.25563 4.57073C7.12603 4.42646 6.86469 4.19495 6.70346 4.30323C6.39882 4.5079 6.16573 4.81536 6.0521 5.16278C6.00788 5.2976 5.98177 5.44493 6.02507 5.57975C6.0696 5.71884 6.18077 5.82468 6.26277 5.94578C6.34477 6.06687 6.34385 6.22426 6.29195 6.36061C6.24987 6.47103 6.20626 6.58419 6.12795 6.67295C6.04964 6.76171 5.92772 6.82241 5.81164 6.79588C5.66546 6.76232 5.58223 6.61012 5.53648 6.46828C5.46738 6.25416 5.46492 6.02661 5.48611 5.80242C5.51744 5.46598 5.54907 5.12954 5.58039 4.7931C5.58991 4.69152 5.60219 4.58324 5.6673 4.50454C5.76066 4.39199 5.92496 4.37918 6.06868 4.35081C6.21241 4.32244 6.37671 4.23734 6.37978 4.09154C6.38162 4.00949 6.32573 3.93293 6.25233 3.89511C6.17893 3.85728 6.09171 3.85393 6.01064 3.86949C5.75974 3.91768 5.57578 4.12906 5.43759 4.34227C5.21371 4.68725 5.20081 5.12496 5.0101 5.48916C4.91828 5.66424 4.91244 5.86983 4.91183 6.06718C4.91122 6.26453 4.91275 6.46859 4.83352 6.64977C4.75459 6.83095 4.57003 6.98316 4.37287 6.95815C4.18953 6.93497 4.06024 6.77636 3.92173 6.65435C3.71383 6.47133 3.41686 6.46706 3.16534 6.34993C3.05632 6.2993 2.92949 6.35756 2.82569 6.41826C2.72189 6.47896 2.60334 6.54606 2.48818 6.51129C2.38592 6.48048 2.3248 6.38074 2.25417 6.30113C2.06407 6.087 1.74469 6.10988 1.46492 6.0443C1.40995 6.03149 1.35344 6.01776 1.30891 5.98299C1.26469 5.94852 1.23613 5.88691 1.25763 5.83536C1.27851 5.78503 1.33655 5.76154 1.39029 5.74965C1.44373 5.73775 1.50208 5.73074 1.54354 5.69535C1.5853 5.65997 1.6025 5.56114 1.56964 5.51722C1.44434 5.34915 1.28956 5.19786 1.10899 5.09202C1.10899 5.09202 1.10899 5.09171 1.10868 5.09141C1.04511 5.05145 0.916742 4.9819 0.864228 4.93676C0.863307 4.93585 0.862079 4.93493 0.861157 4.93402C0.858086 4.93127 0.854094 4.92822 0.851943 4.92578L0.850716 4.9267C0.792673 4.87942 0.713134 4.8538 0.63728 4.83854C0.529487 4.81689 0.411867 4.80011 0.334477 4.72233C0.257395 4.64516 0.240811 4.52803 0.186455 4.43347C0.107529 4.29621 -0.0478649 4.2163 -0.204794 4.19006C-0.361723 4.16383 -0.538306 4.12235 -0.690936 4.16749C-0.923719 4.23643 -1.15712 4.30536 -1.39696 4.3438C-1.50015 4.36027 -1.60671 4.37094 -1.70867 4.34776C-1.81063 4.32458 -1.88894 4.20135 -1.97094 4.13669C-2.53263 3.69288 -3.15389 3.26371 -3.52088 2.65092C-3.65232 2.4313 -3.86852 2.26323 -4.11451 2.18881C-4.3605 2.11469 -4.68203 2.06802 -4.88871 2.21992C-5.09815 2.37396 -5.3079 2.52769 -5.51735 2.68173C-5.61132 2.75066 -5.70898 2.82143 -5.82322 2.84644C-5.94944 2.87389 -6.09378 2.84583 -6.19911 2.91995C-6.26975 2.96967 -6.30568 3.05721 -6.31305 3.14292C-6.32011 3.22863 -6.3413 3.32868 -6.31028 3.40921C-6.20526 3.68312 -6.1119 4.05067 -6.24088 4.31451C-6.29309 4.42127 -6.43804 4.44903 -6.55412 4.42097C-6.67021 4.3929 -6.77247 4.32488 -6.8861 4.28828C-7.06391 4.23094 -7.26691 4.25717 -7.42414 4.35752C-7.58138 4.45788 -7.61577 4.62625 -7.67351 4.80286C-7.71435 4.92731 -7.65201 5.07677 -7.5347 5.13625C-7.33386 5.23812 -7.05593 5.05359 -6.83911 5.1155C-6.77954 5.09202 -6.71382 5.15363 -6.71044 5.21708C-6.70706 5.28052 -6.74514 5.33848 -6.78629 5.38728C-7.00188 5.64472 -7.32096 5.78869 -7.62437 5.93449C-7.92779 6.08029 -8.26929 6.24195 -8.39428 6.55277C-8.47505 6.75348 -8.45938 6.98987 -8.35343 7.17838C-8.31658 7.24396 -8.26929 7.30435 -8.23888 7.37298C-8.20848 7.44192 -8.1618 7.54989 -8.21309 7.6051C-8.27328 7.67007 -8.29324 7.76921 -8.26315 7.85248C-8.23305 7.93575 -8.14614 7.97357 -8.05739 7.97967C-7.97969 7.98486 -7.90015 7.99065 -7.8289 8.02207C-7.75766 8.05349 -7.69531 8.11602 -7.68702 8.19288C-7.67505 8.303 -7.77055 8.39206 -7.85716 8.46161C-8.02698 8.59765 -8.1965 8.73369 -8.36633 8.86973C-8.41516 8.90908 -8.46921 8.9591 -8.46276 9.02133C-8.45693 9.07897 -8.39766 9.11924 -8.33961 9.12442C-8.28157 9.12961 -8.22476 9.10826 -8.1704 9.08751C-7.92165 8.99174 -7.68119 8.85448 -7.41984 8.8011C-7.20303 8.75687 -7.05009 8.56074 -6.96318 8.35851C-6.87627 8.15628 -6.83451 7.93575 -6.73194 7.74114C-6.63213 7.55203 -6.47551 7.39281 -6.28725 7.2894C-6.21355 7.24884 -6.12664 7.2162 -6.04648 7.24213C-5.96633 7.26775 -5.93746 7.36078 -5.97524 7.43551C-6.02652 7.53647 -6.12203 7.60632 -6.20986 7.67861C-6.29739 7.7509 -6.3846 7.83662 -6.40641 7.94795C-6.42821 8.05898 -6.37508 8.13767 -6.26115 8.13523C-6.09224 8.16116 -5.93716 8.04403 -5.8137 7.9266C-5.69025 7.80916 -5.53854 7.66885 -5.36748 7.66885C-4.87704 7.66885 -4.48026 8.16177 -4.15289 8.52444C-3.90322 8.8014 -3.6557 9.08874 -3.50307 9.42823C-3.23374 10.0273 -3.11704 10.7343 -3.30161 11.3642C-3.40633 11.7208 -3.29117 12.1316 -3.016 12.3833C-2.9208 12.4705 -2.80349 12.5465 -2.7608 12.6682C-2.71719 12.7917 -2.76357 12.9268 -2.80994 13.0498C-3.06668 13.7324 -3.43151 14.3595 -3.51904 15.0827C-3.60042 15.7535 -3.60902 16.5185 -3.17631 17.0395C-2.69692 17.6163 -2.55351 18.3303 -2.33332 19.0456C-2.23013 19.3811 -2.0775 19.7014 -1.88188 19.9933C-1.82138 20.0839 -1.74122 20.1803 -1.6319 20.1849C-1.56403 20.1876 -1.49585 20.1495 -1.4633 20.0903C-1.43074 20.0311 -1.44856 19.939 -1.45654 19.8719C-1.47589 19.7078 -1.57355 19.5648 -1.66476 19.4266C-1.86284 19.1267 -2.15428 18.7836 -2.17516 18.4255C-2.18192 18.312 -2.18836 18.1986 -2.19512 18.0851C-2.19727 18.0506 -2.19911 18.0152 -2.18683 17.9829C-2.17485 17.9506 -2.14476 17.9222 -2.11005 17.9231C-2.07535 17.924 -1.99643 17.975 -2.01393 18.0046C-1.99151 18.4374 -1.71604 18.811 -1.45163 19.156C-1.29777 19.3567 -1.04502 19.5757 -0.983297 19.8204C-0.870591 20.2666 -0.705677 20.7068 -0.430513 21.0768C-0.15535 21.4467 0.226377 21.756 0.677817 21.8582C1.0749 21.9479 1.51283 22.0568 1.91482 22.1221C2.3202 22.188 2.68288 22.4722 2.84166 22.8483C2.94085 23.0829 2.97187 23.3583 3.15306 23.538C3.35083 23.7344 3.68803 23.7183 3.96626 23.7469C4.14745 23.7655 4.31759 23.8698 4.41586 24.0221C4.51413 24.1743 4.53839 24.3713 4.48004 24.5427C4.42262 24.7111 4.29455 24.8447 4.19567 24.9929C3.96135 25.344 4.02891 25.7772 3.95644 26.1923C3.8425 26.8447 4.20857 27.4749 4.5602 28.0374C4.84242 28.4888 4.99997 29.0351 5.42193 29.3615C5.92926 29.7534 6.20135 30.3861 6.28765 31.0184C6.37394 31.651 6.51736 32.3922 6.27383 32.983C5.98822 33.6757 5.69801 34.4343 5.90561 35.1539C6.01402 35.5294 6.2511 35.8585 6.36074 36.2337C6.44857 36.5344 6.45102 36.8525 6.49648 37.1628C6.54162 37.473 6.64051 37.7935 6.87452 38.0037C7.12419 38.2279 7.29095 38.5408 7.54891 38.7556C7.64381 38.8346 7.75068 38.9102 7.87413 38.9218C7.99728 38.9334 8.13701 38.8565 8.15145 38.7345C8.15912 38.669 8.13148 38.6052 8.10415 38.5451C7.95367 38.2136 7.8035 37.8817 7.65302 37.5501C7.59467 37.4214 7.63736 37.2997 7.70247 37.1743C7.76788 37.049 7.87076 36.9474 7.94692 36.8284C8.02308 36.7095 8.07129 36.5567 8.01325 36.428C7.9549 36.2992 7.8035 36.2245 7.7645 36.0888C7.73195 35.9762 7.78876 35.856 7.86492 35.7667C7.94108 35.6773 8.03751 35.6056 8.10753 35.5114C8.27767 35.2823 8.2488 34.9297 8.04335 34.7314C7.99175 34.5362 8.11367 34.3123 8.25648 34.1693C8.39959 34.0262 8.58538 33.9347 8.76381 33.8389C8.94223 33.7428 9.1225 33.6352 9.24074 33.4714C9.22016 33.2658 9.30093 33.0675 9.45817 32.9324C9.6154 32.7973 9.80273 32.6984 9.95352 32.556C10.3669 32.1656 10.4255 31.5415 10.6691 31.029C10.9018 30.5395 11.3223 30.1405 11.8256 29.9322C12.0596 29.5802 12.1702 29.1022 12.1892 28.6807C12.1987 28.4717 12.1803 28.2597 12.2261 28.0557C12.2715 27.8516 12.399 27.6485 12.6001 27.5866C12.832 27.5152 12.9997 27.1379 12.9788 26.8975C12.9579 26.6571 12.7847 26.4506 12.5768 26.3265L12.5786 26.3268Z" fill="black"/>
<path d="M-0.433895 3.67094C-0.550593 3.79966 -0.604643 3.98206 -0.576697 4.15318C-0.548751 4.3243 -0.43973 4.48047 -0.288021 4.56618C-0.229365 4.59943 -0.163645 4.62322 -0.114202 4.66897C-0.0647582 4.71472 -0.0355831 4.79281 -0.071514 4.84985C-0.114815 4.91878 -0.218616 4.91299 -0.294778 4.8834C-0.370939 4.85382 -0.448943 4.80806 -0.528789 4.82545C-0.615392 4.84405 -0.670977 4.93434 -0.678348 5.02188C-0.685718 5.10942 -0.655622 5.19544 -0.625833 5.27841C-0.567791 5.44037 -0.490401 5.62217 -0.326102 5.67677C-0.0899404 5.75546 0.154819 5.51694 0.398965 5.56543C0.520885 5.58953 0.6167 5.68134 0.701153 5.77224C0.785606 5.86314 0.871595 5.96044 0.988294 6.00345C1.10499 6.04615 1.26223 6.00985 1.30553 5.89394C1.34484 5.78932 1.27851 5.67311 1.29417 5.56269C1.31444 5.41811 1.46062 5.3324 1.56718 5.23204C1.85739 4.95874 1.8838 4.51615 1.89117 4.11901C1.89271 4.04306 1.89363 3.96498 1.86783 3.8933C1.84204 3.82162 1.78307 3.75665 1.70722 3.74597C1.56872 3.72645 1.47781 3.87713 1.39029 3.98541C1.3172 4.0757 1.13662 4.24956 1.00733 4.20656C0.869138 4.1605 0.702382 3.91007 0.599503 3.80759C0.485261 3.69381 0.36672 3.57699 0.21624 3.51812C-0.00425887 3.4321 -0.27543 3.49585 -0.433895 3.67094Z" fill="black"/>
<path d="M-1.16879 3.90213C-1.09018 3.91006 -1.01432 3.86492 -0.961807 3.80636C-0.909292 3.74779 -0.874283 3.67611 -0.833131 3.60901C-0.706912 3.40373 -0.515281 3.23901 -0.292939 3.14385C-0.115742 3.0682 0.0900168 3.02885 0.215929 2.88397C0.35781 2.72047 0.336927 2.44321 0.172013 2.30259C-0.0924014 2.07718 -0.491327 2.30534 -0.710598 2.48713C-1.00603 2.73206 -1.22837 3.06484 -1.33555 3.4324C-1.36227 3.5239 -1.38192 3.6209 -1.36012 3.71363C-1.33831 3.80636 -1.2643 3.89268 -1.1691 3.90213H-1.16879Z" fill="black"/>
<path d="M1.36726 20.4609C1.30062 20.4603 1.21218 20.4832 1.21187 20.5494C1.21187 20.5982 1.26254 20.6296 1.30676 20.651C1.45632 20.723 1.60588 20.7949 1.75544 20.8669C1.96887 20.9697 2.18323 21.0728 2.40957 21.1439C2.48665 21.168 2.57018 21.1884 2.64696 21.1643C3.0339 21.0432 2.37548 20.7105 2.26584 20.6607C1.98454 20.5329 1.67651 20.4634 1.36726 20.4609Z" fill="black"/>
<path d="M3.35205 21.2646C3.26944 21.2631 3.17117 21.2695 3.12818 21.3394C3.09378 21.3949 3.11251 21.4711 3.15643 21.5193C3.20065 21.5675 3.26453 21.5929 3.32779 21.6096C3.45616 21.6441 3.59159 21.6511 3.72303 21.6304C3.85539 21.6093 4.03566 21.4937 3.90791 21.3546C3.78814 21.2244 3.50683 21.2671 3.35205 21.2643V21.2646Z" fill="black"/>
<path d="M15.9435 7.54991C16.0842 7.34432 16.145 7.07071 16.0458 6.84256C15.9432 6.60647 15.6791 6.3835 15.786 6.14924C15.8634 5.97934 16.0845 5.94579 16.2602 5.87899C16.6652 5.72495 16.9217 5.25766 16.8323 4.83612C16.6293 3.87895 16.9613 2.84065 17.6292 2.12202C17.7149 2.0299 17.808 1.94053 17.8617 1.82676C17.9154 1.71329 17.9207 1.56627 17.8374 1.47202C17.7441 1.36648 17.5779 1.36404 17.4413 1.40034C17.3046 1.43663 17.1738 1.50343 17.0322 1.50801C16.8906 1.51289 16.7294 1.42413 16.7239 1.28351C16.7184 1.14107 16.863 1.04681 16.9732 0.955307C17.0832 0.8638 17.167 0.678956 17.0525 0.59294C16.4791 0.162247 15.7114 -0.0293075 15.0299 0.19824C14.604 0.34038 14.2056 0.620697 13.7567 0.60209C13.5082 0.591719 13.2727 0.488927 13.0261 0.460255C12.7792 0.431277 12.4859 0.508143 12.3898 0.73569C11.8987 1.06451 11.3938 1.52204 10.9028 1.85085C10.5809 2.0662 10.2357 2.31327 10.1359 2.6857C10.0632 2.95748 10.1467 3.26525 10.3472 3.46412C10.4842 3.59955 10.6642 3.68191 10.8238 3.78989C10.9835 3.89786 11.1334 4.05038 11.1531 4.24132C11.204 4.73363 11.4298 5.2055 11.5099 5.69384C11.5661 6.03608 11.5953 6.38563 11.5532 6.73C11.4912 7.23787 11.2704 7.7256 10.9289 8.10871C10.8008 8.25268 10.7388 8.47413 10.6903 8.66019C10.6417 8.84625 10.6436 9.05276 10.7369 9.22113C10.8257 9.38157 10.9924 9.50236 11.0302 9.68141C11.0477 9.76498 11.0342 9.85161 11.0314 9.93702C11.0287 10.0224 11.0391 10.1145 11.0953 10.1792C11.1512 10.2442 11.3717 10.2561 11.4463 10.214C11.6122 10.1206 11.8041 10.2814 11.9187 10.4327C12.0332 10.584 12.1957 10.7615 12.3772 10.7035C12.5516 10.648 12.586 10.4247 12.6228 10.2466C12.7469 9.6506 13.2232 9.18422 13.7453 8.86578C14.2674 8.54733 14.8512 8.33961 15.3782 8.0294C15.5934 7.90282 15.8035 7.75458 15.9442 7.54899L15.9435 7.54991Z" fill="black"/>
<path d="M14.3389 11.4435C14.4366 11.3417 14.4796 11.2166 14.596 11.1239C14.7204 11.0248 14.9252 10.9698 15.0026 10.8237C15.0465 10.7411 15.0351 10.6352 14.9832 10.5575C14.931 10.4797 14.8423 10.4297 14.7495 10.4147C14.4578 10.3674 14.182 10.6374 13.8918 10.5831C13.7336 10.5535 13.5746 10.4303 13.429 10.4986C13.3111 10.5538 13.2791 10.7161 13.327 10.8369C13.3746 10.9576 13.4787 11.0458 13.5789 11.1291C13.7588 11.2785 14.1031 11.6906 14.3392 11.4439L14.3389 11.4435Z" fill="black"/>
<path d="M47.3266 4.3063C47.286 4.25627 47.2344 4.2157 47.1951 4.16477C47.1064 4.04977 47.0904 3.89604 47.0855 3.75116C47.0806 3.60627 47.0824 3.45559 47.0207 3.32443C46.959 3.19296 46.8097 3.08834 46.67 3.13043C46.4599 3.19357 46.2053 3.20821 45.9977 3.13775C45.6744 3.02825 45.4846 2.67717 45.1655 2.55607C44.8817 2.4484 44.5799 2.41241 44.2829 2.34774C43.9564 2.27667 43.6156 2.2056 43.2916 2.28735C42.9676 2.3691 42.6694 2.6546 42.6936 2.98555C42.6973 3.03588 42.6497 3.08285 42.607 3.10939C42.5643 3.13592 42.5137 3.14782 42.4642 3.15911C42.2443 3.20943 42.0248 3.26007 41.8049 3.3104C41.7121 3.33175 41.6179 3.3531 41.523 3.34944C41.4278 3.34578 41.3298 3.31375 41.2662 3.2436C41.1056 3.06638 40.8538 2.96145 40.6661 2.81229C40.6164 2.77264 40.5593 2.73085 40.4957 2.73726C40.4441 2.74244 40.402 2.77874 40.3606 2.80985C40.1699 2.95382 39.9208 3.0191 39.6837 2.98677C39.1764 2.91844 38.6577 2.77813 38.1673 2.63233C37.9655 2.57224 37.7444 2.57956 37.5469 2.65246C37.5076 2.6668 37.4665 2.68662 37.448 2.72384C37.421 2.77844 37.4545 2.84249 37.487 2.89404C37.5598 3.00934 37.6369 3.16673 37.6943 3.29027C37.7192 3.34395 37.6965 3.40983 37.655 3.45223C37.6139 3.49463 37.5577 3.51903 37.503 3.54252C37.245 3.65263 36.9874 3.76244 36.7294 3.87255C36.5924 3.93112 36.4453 3.9906 36.2989 3.96406C36.1779 3.94179 36.0737 3.86188 35.9982 3.76549C35.9227 3.6691 35.8416 3.56448 35.7909 3.45315C35.7531 3.37049 35.6714 3.31406 35.5845 3.28569C35.4976 3.25732 35.4049 3.25305 35.3137 3.24909C35.1733 3.24299 35.0038 3.24573 34.8767 3.18625C34.8235 3.16155 34.7597 3.20455 34.7357 3.25793C34.7118 3.31131 34.713 3.37201 34.7013 3.42936C34.67 3.58705 34.5385 3.71364 34.3862 3.76763C34.2339 3.82162 34.0641 3.81094 33.9087 3.76702C33.753 3.72309 33.5746 3.69259 33.4339 3.61298C33.2472 3.50683 32.9812 3.57333 32.8673 3.75482C32.804 3.85547 32.7647 3.99853 32.6468 4.01958C32.527 4.04093 32.4324 3.90092 32.4429 3.78044C32.453 3.65995 32.5276 3.55625 32.5811 3.44766C32.7749 3.05357 32.5418 2.61464 32.3197 2.2355C32.243 2.10434 32.0378 2.072 31.9239 2.17327C31.8618 2.22848 31.8259 2.31358 31.7507 2.34927C31.6696 2.3877 31.5686 2.35201 31.5059 2.28796C31.4433 2.22421 31.4242 2.1266 31.3772 2.05065C31.2873 1.90485 31.1927 1.75386 31.0483 1.66083C30.904 1.5678 30.6942 1.55041 30.5696 1.66846C30.4698 1.76271 30.4507 1.9198 30.4925 2.05004C30.5342 2.18029 30.6359 2.31023 30.7597 2.37032C30.8656 2.42186 30.9037 2.56401 30.8641 2.67442C30.8245 2.78484 30.725 2.86476 30.6184 2.91509C30.5118 2.96511 30.3954 2.99104 30.2837 3.02886C29.9885 3.12921 29.8178 3.4138 29.5438 3.56174C29.4499 3.61237 29.3802 3.70571 29.3584 3.80972C29.3365 3.91373 29.3633 4.0269 29.4293 4.11047C29.4809 4.17575 29.5534 4.22211 29.6065 4.28617C29.6596 4.35022 29.6909 4.446 29.6449 4.51524C29.6108 4.56618 29.5438 4.58692 29.4824 4.58204C29.4213 4.57716 29.3605 4.54421 29.2991 4.54177C29.2036 4.5375 29.1145 4.60674 29.0774 4.69429C29.0402 4.78183 29.0482 4.8834 29.0792 4.97338C29.1102 5.06336 29.1603 5.11491 29.2159 5.19239C29.2635 5.25888 29.3123 5.32751 29.3319 5.40682C29.3516 5.48613 29.3362 5.57946 29.2724 5.63132C29.2011 5.68927 29.0933 5.67738 29.011 5.6362C28.9284 5.59532 28.8605 5.53035 28.7813 5.48369C28.7021 5.43702 28.5934 5.37113 28.531 5.43854C28.3977 5.58221 28.4017 5.80732 28.4647 5.99246C28.5276 6.17731 28.64 6.34263 28.7042 6.52717C28.7687 6.71171 28.8105 6.9661 28.6582 7.08963C28.5405 7.1851 28.3535 7.14027 28.2463 7.0329C28.1395 6.92553 28.0925 6.77454 28.0492 6.62966C27.9789 6.39357 27.9082 6.15748 27.8379 5.92139C27.8124 5.83599 27.786 5.74875 27.7335 5.67646C27.681 5.60417 27.5965 5.54835 27.5071 5.55384C27.3484 5.56391 27.2627 5.74845 27.2553 5.90614C27.2335 6.36764 27.642 6.79956 27.5569 7.25373C27.5394 7.34738 27.4313 7.40259 27.3361 7.39282C27.2409 7.38306 27.158 7.32511 27.0852 7.26319C27.0124 7.20127 26.943 7.13264 26.8558 7.09329C26.7686 7.05394 26.6562 7.0512 26.5855 7.11556C26.4955 7.19731 26.5508 7.31596 26.549 7.43705C26.5475 7.53436 26.4565 7.60817 26.3647 7.64203C26.2729 7.67619 26.1719 7.68626 26.0856 7.73262C26.0011 7.77807 25.936 7.85646 25.8466 7.89154C25.7247 7.93973 25.5217 7.89764 25.5184 7.76709C25.5159 7.66918 25.4287 7.58102 25.3301 7.57706C25.2082 7.57187 25.1111 7.6765 25.0482 7.78051C24.9852 7.88422 24.9379 8.02117 24.8314 8.08004C24.8037 8.15477 24.7141 8.18863 24.6339 8.18711C24.5537 8.18588 24.4764 8.15904 24.3965 8.15325C24.3246 8.14837 24.2466 8.16331 24.1966 8.21486C24.1465 8.26641 24.1376 8.40123 24.1929 8.44698C24.2122 8.50372 24.2316 8.56167 24.2319 8.62146C24.2325 8.68124 24.2107 8.74469 24.1619 8.77976C24.0784 8.84016 23.9503 8.81484 23.8572 8.77092C23.7365 8.71388 23.5919 8.80874 23.5311 8.92709C23.4703 9.04544 23.4623 9.18301 23.4196 9.30898C23.3769 9.43495 23.2759 9.56062 23.1423 9.5594C23.0044 9.55818 22.9083 9.42824 22.8355 9.31203C22.7492 9.17446 22.6632 9.0369 22.5769 8.89933C22.5468 8.85114 22.5155 8.79959 22.5164 8.74316C22.5177 8.65013 22.6076 8.57814 22.6995 8.56045C22.7913 8.54276 22.8859 8.56503 22.978 8.57998C23.0704 8.59523 23.1706 8.60224 23.2529 8.55801C23.3972 8.48054 23.423 8.2719 23.3474 8.12702C23.2719 7.98213 23.185 7.86104 23.0244 7.82809C22.607 7.74208 22.1556 7.63623 21.8866 7.30772C21.792 7.19212 21.7207 7.04967 21.5917 6.97372C21.4652 6.8993 21.304 6.90418 21.1652 6.95268C21.0264 7.00087 20.9232 7.12562 20.785 7.17565C20.1883 7.391 19.7771 7.87903 19.4003 8.38659C19.201 8.65501 19.1337 8.9945 19.0201 9.30837C18.9064 9.62224 18.6964 9.95441 18.3939 10.0996C18.3389 10.1261 18.283 10.153 18.2388 10.1951C18.1949 10.2372 18.1639 10.2973 18.1722 10.3573C18.1808 10.4177 18.2259 10.4662 18.2453 10.5239C18.2649 10.5825 18.2566 10.6465 18.2483 10.7075C18.2268 10.8625 18.2281 11.0192 18.2235 11.1754C18.221 11.2569 18.2431 11.3413 18.2978 11.402C18.3521 11.4627 18.4421 11.4948 18.5198 11.4685C18.6433 11.4271 18.6912 11.2669 18.8112 11.2166C18.9359 11.1647 19.0821 11.2623 19.1319 11.3871C19.1813 11.5119 19.138 11.6525 19.173 11.7821C19.2031 11.8947 19.2332 12.0072 19.2633 12.1198C19.2869 12.2076 19.3201 12.3071 19.4046 12.3418C19.4844 12.3748 19.5741 12.3351 19.6512 12.2964C19.7688 12.2372 19.8889 12.1759 19.9782 12.0795C20.0673 11.9831 20.1293 11.8431 20.1143 11.7132C20.0332 11.0125 19.8087 10.1725 20.2503 9.6201C20.3422 9.50511 20.4417 9.39622 20.5479 9.29403C20.6213 9.22327 20.6993 9.15525 20.7911 9.11102C20.8833 9.06679 20.9917 9.0488 21.0884 9.08143C21.1851 9.11407 21.265 9.20466 21.2656 9.30623C21.2662 9.40171 21.2027 9.48406 21.1418 9.55818C21.0393 9.68355 20.9665 9.8202 20.8513 9.93428C20.7021 10.0825 20.6735 10.3357 20.7859 10.5129C20.8983 10.6901 21.1326 10.7292 21.343 10.7139C21.5438 10.6996 21.7468 10.7173 21.9418 10.7667C22.0079 10.7835 22.0859 10.8185 22.0896 10.886C22.0936 10.9534 22.0195 10.9976 21.9535 11.0134C21.8101 11.0479 21.6526 11.0247 21.519 11.087C21.3467 11.1672 21.2456 11.4024 21.3218 11.5753C21.363 11.6689 21.2653 11.7684 21.167 11.7983C21.0684 11.8282 20.9576 11.8251 20.8719 11.8822C20.7156 11.9859 20.7328 12.2146 20.6668 12.3891C20.5777 12.6246 20.3213 12.7646 20.0694 12.7911C19.8176 12.8177 19.5517 12.7865 19.3051 12.7292C19.1082 12.6835 18.9473 12.512 18.9147 12.3138C18.9068 12.2643 18.9058 12.2134 18.8883 12.1664C18.8708 12.1195 18.8318 12.0755 18.7815 12.0725C18.7191 12.0685 18.6684 12.1301 18.6617 12.1921C18.6549 12.2537 18.6798 12.3141 18.7041 12.3714C18.7455 12.4687 18.7799 12.5346 18.7756 12.6401C18.7713 12.7469 18.7007 12.8418 18.6147 12.9058C18.5287 12.9702 18.4274 13.0098 18.3303 13.0562C17.9532 13.2362 17.5807 13.4994 17.4274 13.8859C17.3734 14.0222 17.2198 14.0866 17.0813 14.1369C16.9306 14.1915 16.7798 14.2464 16.6293 14.3013C16.4966 14.3495 16.3446 14.419 16.317 14.5566C16.2918 14.6814 16.3848 14.7985 16.4834 14.8793C16.5823 14.9601 16.6984 15.0321 16.7494 15.1486C16.7905 15.2426 16.7801 15.3576 16.7223 15.4427C16.6646 15.5278 16.5602 15.576 16.457 15.5769C16.2512 15.5784 16.0387 15.5815 15.8511 15.6651C15.598 15.7779 15.486 16.0286 15.4089 16.2934C15.3146 16.6167 15.4325 16.991 15.696 17.2027C15.9595 17.4144 16.3526 17.4513 16.6511 17.292C17.2202 16.9888 17.3144 16.1561 17.8706 15.8298C18.155 15.6629 18.5045 15.6635 18.8346 15.669C19.3892 15.6782 19.7402 16.3334 19.8895 16.8638C19.9153 16.9559 19.9445 17.0633 20.0326 17.1017C20.102 17.1319 20.1861 17.1048 20.243 17.0547C20.2998 17.0047 20.3351 16.9358 20.3692 16.8684C20.4251 16.7583 20.4822 16.6365 20.4552 16.5164C20.4165 16.344 20.2301 16.2565 20.0768 16.1671C19.8735 16.0482 19.6963 15.8856 19.5612 15.6937C19.5105 15.6214 19.4645 15.5269 19.5059 15.4491C19.5422 15.3814 19.6334 15.3585 19.708 15.3771C19.7829 15.3954 19.8453 15.4454 19.9051 15.4939C20.4223 15.9139 20.8765 16.4365 21.0319 17.0819C21.0503 17.1578 21.066 17.2365 21.1078 17.303C21.1492 17.3695 21.2238 17.422 21.3022 17.4131C21.4066 17.4009 21.4708 17.2847 21.4683 17.1801C21.4658 17.0758 21.4167 16.9788 21.3798 16.8809C21.3433 16.783 21.3193 16.6704 21.3657 16.5765C21.4529 16.5069 21.5862 16.5243 21.679 16.5865C21.7717 16.6488 21.8331 16.7464 21.8918 16.8409C22.0334 17.0688 22.1746 17.2969 22.3162 17.5248C22.3964 17.6538 22.5177 17.7374 22.6697 17.7514C22.8217 17.7651 22.9731 17.7264 23.123 17.6974C23.2728 17.6684 23.4319 17.6495 23.5753 17.7014C23.7654 17.77 23.8993 17.968 23.8916 18.1687C23.8846 18.3523 23.7915 18.5259 23.6245 18.6055C23.4577 18.6851 23.2645 18.6823 23.0794 18.6778C22.783 18.6704 22.4863 18.6631 22.19 18.6558C21.9882 18.6509 21.7834 18.6454 21.5917 18.5826C21.4035 18.521 21.2069 18.4042 21.0218 18.4737C20.9063 18.517 20.8292 18.6232 20.7552 18.7214C20.6812 18.8196 20.594 18.9212 20.4736 18.9474C20.3529 18.9736 20.203 18.8763 20.2282 18.7562C20.0968 18.542 19.7924 18.3816 19.5418 18.3517C19.4577 18.3416 19.365 18.3419 19.2998 18.2879C19.1914 18.198 19.2289 18.0296 19.2289 17.889C19.2289 17.6456 19.0692 17.4098 18.8423 17.3177C18.5207 17.1871 18.1424 17.256 17.8119 17.3628C17.4815 17.4696 17.1643 17.6251 16.8206 17.6764C16.6766 17.6977 16.5292 17.7008 16.3894 17.7413C16.2497 17.7819 16.1137 17.8698 16.063 18.0052C15.8152 18.6686 15.1638 19.1493 14.74 19.7182C14.459 20.0958 14.174 20.4801 14.0149 20.9224C13.9339 21.1475 13.9446 21.3891 13.9253 21.6273C13.9127 21.7832 13.8998 21.9394 13.8872 22.0952C13.8795 22.1913 13.8715 22.288 13.8804 22.3844C13.8955 22.5503 13.9609 22.7114 14.0662 22.841C14.3742 22.9261 14.5392 23.3129 14.6387 23.6149C14.7382 23.9168 14.8198 24.2505 15.0677 24.4509C15.2814 24.6236 15.5818 24.659 15.8523 24.608C16.1229 24.5571 16.3719 24.4296 16.6164 24.3036C17.1744 24.0163 17.8961 24.3152 18.4412 24.6257C18.5401 24.6818 18.6473 24.7245 18.7357 24.7959C18.8644 24.8999 19.0047 25.0277 19.0013 25.1924C18.9986 25.3227 18.9046 25.4316 18.8604 25.5545C18.7851 25.7634 18.8742 26.0188 19.0634 26.1368C19.6367 26.4946 19.836 27.3569 19.6054 27.9892C19.521 28.2207 19.3815 28.4318 19.3207 28.6706C19.2599 28.9095 19.3035 29.2023 19.5127 29.3347C19.7884 29.5091 19.8456 29.8739 19.9048 30.1936C19.9534 30.4562 19.9349 30.7265 19.9672 30.9915C19.9991 31.2566 20.0943 31.533 20.3108 31.6913C20.6278 31.9228 20.3121 32.5264 20.5531 32.8351C20.7021 33.0257 20.9702 33.0776 21.2131 33.0745C21.7708 33.0672 22.322 32.8339 22.7139 32.4395C22.9132 32.2388 23.1518 32.05 23.2357 31.7806C23.29 31.6071 23.3005 31.4143 23.4046 31.2651C23.5096 31.1145 23.6899 31.0373 23.8354 30.9247C23.9813 30.8122 24.1011 30.6148 24.0169 30.4517C23.8634 30.1533 23.957 29.7492 24.1548 29.478C24.3151 29.2584 24.5599 29.1172 24.7574 28.9299C24.9548 28.7426 25.1114 28.462 25.0184 28.207C24.8218 27.668 24.8111 27.0613 24.9447 26.5037C25.0786 25.9462 25.4465 25.427 25.9769 25.201C26.3343 25.0488 26.6003 24.7535 26.8027 24.4235C27.005 24.0934 27.0502 23.6365 26.8057 23.3358C26.6727 23.172 26.424 23.0963 26.2155 23.0582C26.0073 23.0201 25.7892 23.0036 25.6025 22.9048C25.4373 22.8175 25.3071 22.6672 25.2444 22.4921C25.1996 22.3667 25.0543 22.3155 24.9607 22.2203C24.8581 22.1163 24.7871 21.9863 24.7171 21.8585C24.5967 21.6383 24.4767 21.4181 24.3563 21.1979C24.1051 20.7379 23.8916 20.2291 23.6429 19.7679C23.6039 19.6953 23.5636 19.6197 23.5609 19.5373C23.5581 19.455 23.6048 19.365 23.6856 19.3464C23.7811 19.3244 23.8668 19.4055 23.9294 19.4803C24.4564 20.1068 24.8931 20.8077 25.222 21.556C25.3384 21.8204 25.3924 22.1172 25.5635 22.3505C25.7342 22.5839 26.0048 22.7654 26.295 22.7544C26.5217 22.7459 26.7265 22.6248 26.92 22.5073C27.2145 22.3286 27.509 22.1498 27.8035 21.9711C27.9908 21.8573 28.1809 21.7414 28.3293 21.5804C28.4773 21.4193 28.5805 21.204 28.5568 20.9871C28.5332 20.7702 28.3572 20.5643 28.1376 20.553C27.8268 20.5564 27.5004 20.4942 27.2099 20.3835C27.0446 20.3203 26.8699 20.2209 26.8232 20.0513C26.767 19.8475 26.6307 19.6825 26.4538 19.5651C26.4022 19.5309 26.3466 19.5013 26.3039 19.4568C26.2612 19.4123 26.2327 19.3479 26.2505 19.289C26.2652 19.2408 26.3085 19.2051 26.3561 19.1887C26.404 19.1719 26.4556 19.1716 26.5063 19.1749C26.5978 19.1814 26.6903 19.1997 26.7704 19.2445C26.943 19.3406 27.0413 19.5431 27.1985 19.6624C27.3557 19.7816 27.5523 19.8619 27.7491 19.8426C27.8532 19.8323 27.9561 19.7951 28.0596 19.8097C28.1843 19.8274 28.2841 19.9168 28.3851 19.9915C28.4862 20.0662 28.6133 20.1324 28.7334 20.0952C29.0743 19.9894 29.4609 20.1495 29.8169 20.1763C29.9145 20.1837 30.0155 20.1922 30.1012 20.2392C30.1869 20.2861 30.2529 20.3835 30.2314 20.4783C30.1906 20.658 30.2496 20.8544 30.4031 20.9575C30.5567 21.0606 30.7759 21.0551 30.924 20.9441C31.0324 20.8626 31.1856 20.9737 31.2381 21.0981C31.2903 21.2229 31.2768 21.3635 31.2756 21.4983C31.2728 21.7774 31.3281 22.0571 31.4368 22.3146C31.5941 22.6873 31.77 23.064 31.9988 23.3983C32.0685 23.5002 32.1557 23.6115 32.2795 23.6213C32.4119 23.6316 32.5249 23.5148 32.5645 23.3888C32.6041 23.2629 32.5915 23.1277 32.5974 22.9957C32.6155 22.5891 32.8234 22.195 33.1498 21.9491C33.367 21.7853 33.5445 21.5654 33.7653 21.4065C33.8629 21.3363 33.9673 21.2564 33.9974 21.1405C34.0226 21.0435 33.9928 20.9294 34.0533 20.8495C34.0948 20.7946 34.17 20.773 34.2391 20.7782C34.3082 20.7833 34.3733 20.8111 34.4369 20.8382C34.6494 20.9297 34.8687 21.0255 35.0265 21.1939C35.1242 21.2982 35.2154 21.412 35.2467 21.5511C35.278 21.6902 35.2848 21.836 35.3401 21.9674C35.3954 22.0989 35.5179 22.2179 35.661 22.2102C35.731 22.2066 35.7974 22.173 35.8677 22.1739C35.9675 22.1755 36.0553 22.2484 36.1023 22.3359C36.1493 22.4234 36.1637 22.5241 36.1772 22.6226C36.2442 23.1067 36.1686 23.628 36.3747 24.0718C36.4374 24.2066 36.519 24.3317 36.6001 24.4564C36.7239 24.6461 36.8476 24.8356 36.9714 25.0253C37.0399 25.1302 37.1412 25.1744 37.2604 25.2141C37.3329 25.2382 37.4238 25.248 37.476 25.1924C37.5125 25.1534 37.5168 25.0927 37.5005 25.0418C37.4843 24.9908 37.4505 24.9475 37.4176 24.9054C37.3034 24.7599 37.2245 24.598 37.1228 24.4436C37.0218 24.2905 36.9201 24.138 36.8179 23.9861C36.7294 23.8549 36.6394 23.7219 36.59 23.5719C36.5405 23.4218 36.5362 23.2498 36.6152 23.1128C36.6618 23.032 36.7042 22.9646 36.7976 22.9536C36.8906 22.9426 36.9886 22.9871 37.0408 23.0643C37.0473 23.1616 37.1658 23.2159 37.2592 23.2461C37.3525 23.2763 37.4588 23.3016 37.5113 23.384C37.561 23.4624 37.5451 23.5706 37.5994 23.6463C37.6409 23.7042 37.7226 23.7302 37.7901 23.707C37.8577 23.6841 37.9062 23.6139 37.9035 23.5432C37.9001 23.4523 37.9922 23.3281 38.0671 23.2763C38.1421 23.2244 38.2268 23.1836 38.2876 23.1158C38.4025 22.988 38.3991 22.7724 38.2803 22.6479C37.964 22.317 37.6547 21.9525 37.5564 21.5065C37.5386 21.4251 37.5257 21.34 37.5445 21.2589C37.5632 21.1777 37.6197 21.1003 37.7005 21.078C37.9032 21.0219 38.1175 21.0133 38.327 20.9929C38.4587 20.9801 38.5917 20.967 38.7179 20.9267C38.8438 20.8861 38.9639 20.8154 39.04 20.7077C39.1994 20.4817 39.462 20.3563 39.6926 20.2026C39.8007 20.1306 39.9119 20.0272 39.9036 19.8985C39.8944 19.7539 39.9399 19.623 40.0234 19.5044C40.1072 19.3857 40.2123 19.2814 40.2792 19.153C40.3461 19.0243 40.3673 18.8571 40.2801 18.7409C40.2037 18.6387 40.1269 18.5249 40.0971 18.4011C40.0734 18.3029 40.0771 18.2004 40.0642 18.1C40.0369 17.889 39.9331 17.6886 39.7762 17.544C39.645 17.4232 39.6242 17.1816 39.7412 17.0474C39.8063 16.9727 39.9101 16.9208 39.9303 16.8238C39.9518 16.7207 39.8652 16.6274 39.7768 16.5697C39.6883 16.5121 39.5842 16.4633 39.5375 16.3687C39.4789 16.2504 39.5415 16.097 39.6539 16.0268C39.7663 15.9567 39.9128 15.9585 40.0381 16.0018C40.2516 16.0753 40.4113 16.2522 40.5418 16.4355C40.7018 16.66 40.7758 16.9336 40.8836 17.1868C40.9146 17.26 40.9487 17.3369 41.0129 17.3842C41.1262 17.4674 41.3003 17.422 41.3878 17.3122C41.4751 17.2024 41.4886 17.0496 41.4612 16.9123C41.4281 16.7433 41.2822 16.5792 41.1762 16.4432C41.0995 16.3443 41.0205 16.2418 40.9904 16.1205C40.9392 15.9164 41.0341 15.7071 41.1268 15.5177C41.2235 15.3198 41.3237 15.1175 41.4821 14.9638C41.5918 14.8577 41.7253 14.779 41.8408 14.6786C41.956 14.5783 42.0564 14.4456 42.0644 14.2937C42.0994 13.6211 42.3687 12.99 42.2241 12.3318C42.158 12.0316 42.0159 11.754 41.8513 11.4942C41.7318 11.3057 41.5804 11.1233 41.3713 11.043C41.335 11.0293 41.2979 11.0186 41.2622 11.004C41.1035 10.9384 40.9846 10.7862 40.9607 10.6172C40.9367 10.4482 41.0083 10.2692 41.1425 10.1624C41.3043 10.034 41.328 9.81715 41.2936 9.61431C41.2748 9.50359 41.2306 9.39134 41.2564 9.28214C41.2782 9.19063 41.3476 9.1159 41.4284 9.06649C41.5091 9.01707 41.601 8.98962 41.6919 8.96278C42.073 8.84992 42.487 8.92831 42.8718 8.82826C43.0164 8.79075 43.1666 8.73981 43.2652 8.62817C43.3637 8.51653 43.3868 8.3262 43.2759 8.22615C43.2624 8.04344 43.2486 7.8467 43.2347 7.66399C43.2289 7.58346 43.2231 7.50111 43.244 7.42333C43.2652 7.34524 43.3186 7.27112 43.3963 7.24733C43.5796 7.19121 43.7633 7.43126 43.9429 7.36446C44.0111 7.40259 44.0765 7.31931 44.0977 7.24458C44.1189 7.16985 44.1312 7.07774 44.2021 7.04479C44.2743 7.01124 44.3621 7.07042 44.3882 7.14515C44.4143 7.21988 44.3968 7.30193 44.3793 7.3791C44.3409 7.54717 44.3022 7.71523 44.2638 7.8833C44.1536 8.36493 44.0433 8.84657 43.9331 9.3282C43.8717 9.59662 43.938 9.88913 44.0968 10.1145C44.3931 10.5346 44.6081 11.0195 44.8483 11.4737C44.8787 11.5311 44.914 11.593 44.9754 11.6153C45.0903 11.657 45.2014 11.5238 45.2042 11.4024C45.207 11.281 45.1468 11.1672 45.1286 11.0473C45.0841 10.7563 45.2834 10.49 45.3697 10.2085C45.4966 9.79427 45.3697 9.33552 45.1299 8.97406C44.9822 8.75109 44.7543 8.58485 44.7196 8.32009C44.6852 8.05533 44.816 7.76007 45.0651 7.66003C45.1655 7.61976 45.2754 7.61275 45.3829 7.59872C45.4904 7.58499 45.601 7.56211 45.687 7.49684C45.7729 7.43156 45.8264 7.3126 45.7852 7.21317C45.7121 7.03564 45.8049 6.83677 45.9124 6.67755C46.0199 6.51832 46.1507 6.35605 46.1525 6.1645C46.1534 6.06536 46.123 5.95129 46.1897 5.87747C46.2225 5.84117 46.272 5.8247 46.3104 5.79389C46.4163 5.70879 46.3878 5.51205 46.2622 5.45989C46.1141 5.39858 45.9753 5.28115 45.9302 5.12833C45.8863 4.97887 45.9075 4.81935 45.9293 4.66531C45.9492 4.52317 45.971 4.37645 46.0475 4.25475C46.124 4.13304 46.2708 4.04245 46.4111 4.07692C46.5508 4.11108 46.6979 4.12938 46.7977 4.23218C46.8592 4.29532 46.9028 4.3731 46.9565 4.44295C47.0103 4.51249 47.0797 4.57685 47.166 4.59515C47.2526 4.61346 47.3564 4.56984 47.3791 4.48474C47.3957 4.42251 47.3662 4.35693 47.3256 4.30691L47.3266 4.3063ZM24.6735 16.0454C24.6179 16.194 24.4377 16.2614 24.2783 16.2528C24.1189 16.2446 23.9684 16.1805 23.8121 16.1476C23.4552 16.0723 23.0652 16.1696 22.7864 16.4032C22.6669 16.5036 22.4802 16.689 22.3177 16.5514C22.2035 16.4545 22.2081 16.2525 22.2539 16.1262C22.3868 15.7566 22.5588 15.4424 22.853 15.1767C22.9206 15.1157 22.9884 15.0544 23.056 14.9934C23.0953 14.9577 23.1355 14.9217 23.1841 14.8994C23.3471 14.825 23.532 14.9312 23.6791 15.033C23.9024 15.1874 24.126 15.342 24.3492 15.4964C24.4438 15.562 24.5405 15.6291 24.6087 15.7215C24.6769 15.8139 24.7131 15.9377 24.6729 16.0451L24.6735 16.0454ZM26.9605 17.1929C26.7529 17.3289 26.4842 17.1786 26.3715 16.9916C26.2517 16.793 26.252 16.5335 26.2152 16.3105C26.139 15.8484 25.6102 15.3655 25.8344 14.8872C25.9194 14.7061 26.1326 14.5874 26.3291 14.6289C26.526 14.6704 26.6752 14.8824 26.6291 15.077C26.5947 15.2234 26.4698 15.3335 26.4228 15.4762C26.3531 15.6876 26.4682 15.9161 26.6141 16.0845C26.76 16.2528 26.9421 16.3953 27.0468 16.5917C27.1515 16.7881 27.1469 17.0706 26.9602 17.1932L26.9605 17.1929ZM28.2516 15.4918C28.1932 15.5922 28.0937 15.7108 27.9669 15.7175C27.7977 15.7267 27.6616 15.5391 27.6939 15.3808C27.7018 15.3408 27.7197 15.3036 27.7372 15.2667C27.7587 15.2219 27.7799 15.1767 27.8013 15.1319C27.8173 15.0983 27.8333 15.0645 27.8493 15.0306C27.8864 14.9525 27.93 14.868 28.0105 14.8351C28.3993 14.6765 28.3526 15.3185 28.2516 15.4918Z" fill="black"/>
<path d="M16.3299 12.4416C16.442 12.5916 16.5467 12.7682 16.5209 12.9531C16.4853 13.2111 15.7043 13.7962 16.3136 13.8608C16.7411 13.906 17.4416 13.586 17.2367 13.0608C17.1348 12.7994 16.8562 12.6523 16.7527 12.3903C16.6892 12.2299 16.7033 12.0499 16.6655 11.8815C16.6278 11.7132 16.5025 11.5369 16.3289 11.5424C16.141 11.5482 16.0265 11.7727 16.0584 11.9569C16.0903 12.1408 16.2181 12.2915 16.3302 12.4413L16.3299 12.4416Z" fill="black"/>
<path d="M15.3478 13.4048C15.3564 13.4616 15.3696 13.5192 15.3997 13.5683C15.4297 13.6174 15.4792 13.6577 15.5366 13.6647C15.6355 13.6772 15.7178 13.5943 15.7826 13.5189C15.8738 13.4122 15.9669 13.303 16.0175 13.1721C16.1287 12.8851 15.9322 12.5822 15.6103 12.7402C15.4955 12.7966 15.4119 12.9061 15.3711 13.0269C15.3299 13.1477 15.3284 13.2789 15.3478 13.4048Z" fill="black"/>
<path d="M25.2963 6.8163C25.3731 6.85229 25.4748 6.87578 25.5353 6.8166C25.6578 6.69673 25.4794 6.51707 25.4256 6.41001C25.3713 6.30203 25.3599 6.20076 25.3295 6.08699C25.2699 5.86554 25.027 5.5111 24.7607 5.73285C24.6938 5.78867 24.6603 5.87744 24.6579 5.96437C24.6554 6.0513 24.6806 6.1367 24.715 6.21662C24.8268 6.47772 25.0378 6.69581 25.2966 6.8163H25.2963Z" fill="black"/>
<path d="M25.3786 5.04597C25.5058 4.7138 25.6424 4.52865 25.9382 4.30964C26.1814 4.12968 26.4434 3.90976 26.4658 3.60961C26.4759 3.47357 26.3921 3.30581 26.2551 3.3174C26.1823 3.3235 26.1249 3.37841 26.0742 3.43026C25.7361 3.77463 25.3983 4.119 25.0602 4.46337C24.8986 4.62809 24.7236 4.83642 24.7782 5.06C24.8636 5.41078 25.273 5.32293 25.3789 5.04597H25.3786Z" fill="black"/>
<path d="M26.6614 28.2671C26.5465 28.2967 26.4777 28.4123 26.436 28.5224C26.3945 28.6328 26.3638 28.7536 26.2787 28.836C26.143 28.9668 25.9105 28.9577 25.7803 29.0943C25.6523 29.2288 25.6805 29.4241 25.648 29.5915C25.6194 29.7388 25.5552 29.8416 25.4517 29.9469C25.2518 30.1509 25.2057 30.4227 25.4443 30.6435C25.6169 30.8031 25.9013 30.8262 26.0979 30.6969C26.3116 30.556 26.3933 30.2851 26.4277 30.0326C26.4621 29.78 26.4676 29.5149 26.5883 29.2901C26.6589 29.1584 26.7652 29.0495 26.8506 28.9269C26.9362 28.8042 27.0032 28.6566 26.9786 28.5096C26.9541 28.3623 26.8063 28.2302 26.6608 28.2674L26.6614 28.2671Z" fill="black"/>
</g>
</g>
<path d="M16.7816 33.0211C16.7313 33.0211 16.6809 33.0211 16.6305 33.0205C9.8921 32.9614 6.52657 24.8752 11.2016 20.0546L19.5489 11.4472L23.6364 18.0405L25.3083 16.38L22.6728 8.46953L26.0736 5.22805C26.7692 4.56523 26.6989 3.41164 25.8516 2.84826C25.2272 2.43312 24.3809 2.57313 23.8606 3.11149L20.6373 6.44753L12.6729 3.82982L11.001 5.49037L17.6397 9.55023L7.7258 19.5257C5.01163 22.2566 0.344915 20.5408 0.0301361 16.832V33.023" fill="white"/>
</g>
<defs>
<linearGradient id="paint0_linear_159_2467" x1="10.8487" y1="8.54339" x2="30.2426" y2="35.3674" gradientUnits="userSpaceOnUse">
<stop stop-color="#2EC4B6"/>
<stop offset="1" stop-color="#145C71"/>
</linearGradient>
<clipPath id="clip0_159_2467">
<rect width="33" height="33" rx="8" fill="white"/>
</clipPath>
</defs>
</svg>
