<svg width="43" height="43" viewBox="0 0 43 43" fill="none" xmlns="http://www.w3.org/2000/svg">
<path opacity="0.4" d="M16.125 12.8997V30.0818C16.125 35.833 19.7083 39.4163 25.4417 39.4163H30.0821C35.8154 39.4163 39.3987 35.833 39.3987 30.0997V12.8997C39.4167 7.16634 35.8333 3.58301 30.1 3.58301H25.4417C19.7083 3.58301 16.125 7.16634 16.125 12.8997Z" fill="#F16B6B"/>
<path d="M9.9796 14.5477L3.97752 20.5497C3.45793 21.0693 3.45793 21.9293 3.97752 22.4489L9.9796 28.4509C10.4992 28.9705 11.3592 28.9705 11.8788 28.4509C12.3984 27.9314 12.3984 27.0714 11.8788 26.5518L8.17002 22.843H27.3229C28.0575 22.843 28.6667 22.2339 28.6667 21.4993C28.6667 20.7647 28.0575 20.1555 27.3229 20.1555H8.17002L11.8788 16.4468C12.1475 16.1781 12.2729 15.8377 12.2729 15.4972C12.2729 15.1568 12.1475 14.7985 11.8788 14.5477C11.3592 14.0102 10.5171 14.0102 9.9796 14.5477Z" fill="#F16B6B"/>
</svg>
