<svg width="23" height="23" viewBox="0 0 23 23" fill="none" xmlns="http://www.w3.org/2000/svg">
<g clip-path="url(#clip0_100_2418)">
<path d="M1.91667 13.8958C1.91667 12.0462 3.42125 10.5417 5.27083 10.5417C7.12042 10.5417 8.625 12.0462 8.625 13.8958C8.625 15.7454 7.12042 17.25 5.27083 17.25C3.42125 17.25 1.91667 15.7454 1.91667 13.8958ZM14.375 13.8958C14.375 15.7454 15.8796 17.25 17.7292 17.25C19.5787 17.25 21.0833 15.7454 21.0833 13.8958C21.0833 12.0462 19.5787 10.5417 17.7292 10.5417C15.8796 10.5417 14.375 12.0462 14.375 13.8958ZM20.125 18.2083H15.3333C13.7483 18.2083 12.4583 19.4982 12.4583 21.0833V23H23V21.0833C23 19.4982 21.7101 18.2083 20.125 18.2083ZM14.306 8.625H17.25V1.96267C17.25 0.880708 16.3693 0 15.2873 0H7.71267C6.63071 0 5.75 0.87975 5.75 1.96267V8.625H8.81858L10.5762 10.1746C10.8541 10.42 11.202 10.5426 11.5498 10.5426C11.8929 10.5426 12.236 10.4219 12.5063 10.1823L14.306 8.62596V8.625ZM7.66667 18.2083H2.875C1.28992 18.2083 0 19.4982 0 21.0833V23H10.5417V21.0833C10.5417 19.4982 9.25175 18.2083 7.66667 18.2083Z" fill="#A63B3B"/>
</g>
<defs>
<clipPath id="clip0_100_2418">
<rect width="23" height="23" fill="white"/>
</clipPath>
</defs>
</svg>
