<svg width="42" height="42" viewBox="0 0 42 42" fill="none" xmlns="http://www.w3.org/2000/svg">
<g clip-path="url(#clip0_79_1064)">
<mask id="mask0_79_1064" style="mask-type:luminance" maskUnits="userSpaceOnUse" x="0" y="0" width="42" height="42">
<path d="M42 0H0V42H42V0Z" fill="white"/>
</mask>
<g mask="url(#mask0_79_1064)">
<path d="M21.0002 38.3781C12.1802 38.3781 4.98767 31.2031 4.98767 22.3656V19.0756C4.98767 18.3931 5.54767 17.8506 6.21267 17.8506C6.87767 17.8506 7.43767 18.4106 7.43767 19.0756V22.3656C7.43767 29.8381 13.5102 35.9106 20.9827 35.9106C28.4552 35.9106 34.5277 29.8381 34.5277 22.3656V19.0756C34.5277 18.3931 35.0877 17.8506 35.7527 17.8506C36.4177 17.8506 36.9777 18.4106 36.9777 19.0756V22.3656C37.0127 31.2031 29.8202 38.3781 21.0002 38.3781Z" fill="white"/>
<path d="M20.9998 3.5C15.1198 3.5 10.3248 8.295 10.3248 14.175V22.3825C10.3248 28.2625 15.1198 33.0575 20.9998 33.0575C26.8798 33.0575 31.6748 28.2625 31.6748 22.3825V14.175C31.6748 8.295 26.8798 3.5 20.9998 3.5ZM24.8148 18.5325C24.6923 19.005 24.2548 19.32 23.7823 19.32C23.6948 19.32 23.5898 19.3025 23.5023 19.285C21.7173 18.795 19.8273 18.795 18.0423 19.285C17.4648 19.4425 16.8873 19.11 16.7298 18.5325C16.5723 17.9725 16.9048 17.3775 17.4823 17.22C19.6348 16.625 21.9098 16.625 24.0623 17.22C24.6398 17.3775 24.9723 17.955 24.8148 18.5325ZM26.3023 13.685C26.1448 14.1225 25.7423 14.385 25.3048 14.385C25.1823 14.385 25.0598 14.3675 24.9373 14.315C22.2598 13.335 19.3198 13.335 16.6423 14.315C16.0823 14.525 15.4698 14.245 15.2598 13.685C15.0673 13.1425 15.3473 12.53 15.9073 12.32C19.0573 11.1825 22.5223 11.1825 25.6548 12.32C26.2148 12.53 26.4948 13.1425 26.3023 13.685Z" fill="white"/>
</g>
</g>
<defs>
<clipPath id="clip0_79_1064">
<rect width="42" height="42" fill="white"/>
</clipPath>
</defs>
</svg>
