<svg width="102" height="102" viewBox="0 0 102 102" fill="none" xmlns="http://www.w3.org/2000/svg">
<g opacity="0.4" clip-path="url(#clip0_100_3119)">
<path d="M84.9999 10.625C84.9999 16.4942 80.2442 21.25 74.3749 21.25C68.5057 21.25 63.7499 16.4942 63.7499 10.625C63.7499 4.75575 68.5057 0 74.3749 0C80.2442 0 84.9999 4.75575 84.9999 10.625ZM89.5857 74.7787L101.617 97.5078L94.1034 101.486L83.0789 80.6608L56.8947 63.1805L60.2182 40.9275L46.3547 58.191L39.7247 52.87L56.6099 31.841C59.8569 27.8162 64.6807 25.5085 69.8487 25.5085C69.8487 25.5085 76.4405 25.1855 78.8587 27.9608C81.2769 30.736 81.3534 33.9873 80.852 37.638L80.1677 42.4193L101.813 54.7825L97.597 62.1605L78.8715 51.4632L76.7549 66.2193L89.5857 74.783V74.7787ZM53.6732 102H62.3177L66.1469 79.1988L58.5012 74.0987L53.6732 102ZM12.7499 93.5C12.7499 98.1963 16.5537 102 21.2499 102C25.9462 102 29.7499 98.1963 29.7499 93.5C29.7499 88.8037 25.9462 85 21.2499 85C16.5537 85 12.7499 88.8037 12.7499 93.5ZM21.2499 76.5C25.8314 76.5 29.9794 78.3402 33.0394 81.2982L44.7269 66.147L31.4882 55.8833C28.9594 53.9282 25.8102 53.0783 22.6482 53.499C19.4777 53.9198 16.6642 55.5518 14.7729 58.0508L2.3927 73.8777C-1.5088 79.0287 -0.531304 86.4407 4.5602 90.423C6.0137 82.5137 12.9284 76.5 21.2499 76.5Z" fill="#2EC4B6"/>
</g>
<defs>
<clipPath id="clip0_100_3119">
<rect width="102" height="102" fill="white"/>
</clipPath>
</defs>
</svg>
