<svg width="300" height="16" viewBox="0 0 300 16" fill="none" xmlns="http://www.w3.org/2000/svg">
<path d="M162 9.5C162 9.83333 162 10.1667 162 10.5C164.188 10.4917 166.591 10.4833 168.853 10.475C210.319 10.325 251.683 10.175 293.116 10.025C295.367 10.0167 297.755 10.0083 300 10C297.755 9.99168 295.367 9.98334 293.116 9.97501C251.683 9.82501 210.319 9.675 168.853 9.525C166.591 9.51667 164.188 9.50833 162 9.5Z" fill="#AAAAAA"/>
<path d="M139 10.5C139 10.1667 139 9.83333 139 9.5C136.797 9.50849 134.376 9.517 132.098 9.5255C90.3312 9.6785 48.6669 9.8315 6.93358 9.9845C4.6669 9.993 2.26144 10.0015 0 10.01C2.26144 10.0182 4.6669 10.0263 6.93358 10.0345C48.6669 10.1815 90.3313 10.3285 132.098 10.4755C134.376 10.4837 136.797 10.4918 139 10.5Z" fill="#AAAAAA"/>
<path d="M148.385 13.065C147.726 13.065 147.133 12.9177 146.604 12.623C146.084 12.3197 145.672 11.908 145.369 11.388C145.066 10.8593 144.914 10.257 144.914 9.581C144.914 8.89633 145.066 8.294 145.369 7.774C145.672 7.254 146.084 6.84667 146.604 6.552C147.124 6.25733 147.718 6.11 148.385 6.11C149.061 6.11 149.659 6.25733 150.179 6.552C150.708 6.84667 151.119 7.254 151.414 7.774C151.717 8.294 151.869 8.89633 151.869 9.581C151.869 10.257 151.717 10.8593 151.414 11.388C151.119 11.908 150.708 12.3197 150.179 12.623C149.65 12.9177 149.052 13.065 148.385 13.065ZM148.385 12.246C148.879 12.246 149.317 12.1377 149.698 11.921C150.079 11.6957 150.378 11.3837 150.595 10.985C150.82 10.5777 150.933 10.1097 150.933 9.581C150.933 9.04367 150.82 8.57567 150.595 8.177C150.378 7.77833 150.079 7.47067 149.698 7.254C149.317 7.02867 148.883 6.916 148.398 6.916C147.913 6.916 147.479 7.02867 147.098 7.254C146.717 7.47067 146.413 7.77833 146.188 8.177C145.963 8.57567 145.85 9.04367 145.85 9.581C145.85 10.1097 145.963 10.5777 146.188 10.985C146.413 11.3837 146.717 11.6957 147.098 11.921C147.479 12.1377 147.908 12.246 148.385 12.246ZM153.753 13V6.175H154.637V8.034L154.546 7.709C154.737 7.189 155.058 6.79467 155.508 6.526C155.959 6.24867 156.518 6.11 157.185 6.11V7.007C157.151 7.007 157.116 7.007 157.081 7.007C157.047 6.99833 157.012 6.994 156.977 6.994C156.258 6.994 155.695 7.215 155.287 7.657C154.88 8.09033 154.676 8.71 154.676 9.516V13H153.753Z" fill="#AAAAAA"/>
</svg>
