<svg width="22" height="22" viewBox="0 0 22 22" fill="none" xmlns="http://www.w3.org/2000/svg">
<g clip-path="url(#clip0_79_1094)">
<mask id="mask0_79_1094" style="mask-type:luminance" maskUnits="userSpaceOnUse" x="0" y="0" width="22" height="22">
<path d="M22 0H0V22H22V0Z" fill="white"/>
</mask>
<g mask="url(#mask0_79_1094)">
<path d="M11.8159 5.39111H4.68421C3.11671 5.39111 1.83337 6.67445 1.83337 8.24195V18.6553C1.83337 19.9845 2.78671 20.5528 3.95087 19.902L7.55337 17.8945C7.93837 17.6837 8.56171 17.6837 8.93754 17.8945L12.54 19.902C13.7134 20.5437 14.6667 19.9845 14.6667 18.6553V8.24195C14.6667 6.67445 13.3834 5.39111 11.8159 5.39111Z" fill="#6A7887"/>
<path d="M20.1667 4.68433V15.0977C20.1667 16.4268 19.2134 16.986 18.0492 16.3443L16.2801 15.3543C16.1334 15.2718 16.0417 15.116 16.0417 14.951V8.241C16.0417 5.91266 14.1442 4.01516 11.8159 4.01516H8.08506C7.74589 4.01516 7.50756 3.65766 7.66339 3.36433C8.14006 2.45683 9.09339 1.8335 10.1842 1.8335H17.3159C18.8834 1.8335 20.1667 3.11683 20.1667 4.68433Z" fill="#6A7887"/>
</g>
</g>
<defs>
<clipPath id="clip0_79_1094">
<rect width="22" height="22" fill="white"/>
</clipPath>
</defs>
</svg>
