<svg width="28" height="28" viewBox="0 0 28 28" fill="none" xmlns="http://www.w3.org/2000/svg">
<path d="M13.75 0C6.16 0 0 6.16 0 13.75C0 21.34 6.16 27.5 13.75 27.5C21.34 27.5 27.5 21.34 27.5 13.75C27.5 6.16 21.34 0 13.75 0ZM20.9688 14.8638C20.9688 15.0975 20.955 15.3175 20.9275 15.5375C20.7212 17.9713 19.2775 19.1812 16.6375 19.1812H16.28C16.06 19.1812 15.84 19.2913 15.7025 19.47L14.6163 20.9137C14.135 21.56 13.365 21.56 12.8837 20.9137L11.7975 19.47C11.6737 19.3188 11.4125 19.1812 11.22 19.1812H10.8625C7.98875 19.1812 6.53125 18.4663 6.53125 14.85V11.2338C6.53125 8.59375 7.755 7.15 10.175 6.94375C10.395 6.93 10.6287 6.93 10.8625 6.93H16.6375C19.5112 6.93 20.9688 8.37375 20.9688 11.2612V14.8638Z" fill="#A8A8A8"/>
</svg>
