<svg width="23" height="23" viewBox="0 0 23 23" fill="none" xmlns="http://www.w3.org/2000/svg">
<path d="M22.9923 11.6476C22.9695 13.3251 22.5768 14.9769 21.8423 16.4853C21.7718 16.4845 21.7013 16.4919 21.6325 16.5073C19.8904 17.0195 18.0814 17.2679 16.2658 17.2442C14.3113 17.2989 12.3606 17.0401 10.488 16.4776C10.2653 16.4021 10.065 16.2723 9.90496 16.1001C9.74495 15.9278 9.63035 15.7184 9.5715 15.4907C9.51264 15.2631 9.51137 15.0244 9.56781 14.7962C9.62426 14.5679 9.73663 14.3573 9.8948 14.1833C10.2175 13.8243 10.5625 13.4859 10.9279 13.1704C11.1164 13.0186 11.341 12.9183 11.5798 12.8792C11.8187 12.84 12.0635 12.8634 12.2906 12.9471C13.5158 13.3558 14.7988 13.5648 16.0904 13.5662C18.5192 13.5412 20.899 12.8796 22.9923 11.6476ZM14.6127 11.5173C14.8299 11.5525 15.0523 11.537 15.2625 11.4719C15.4728 11.4069 15.6651 11.2941 15.8244 11.1424C15.9838 10.9906 16.1059 10.804 16.1811 10.5972C16.2563 10.3904 16.2827 10.1691 16.2581 9.95038C15.8144 6.3285 14.1759 2.95794 11.6016 0.371833C11.5037 0.265722 11.4316 0.138489 11.3908 0C9.87473 0.011113 8.3761 0.324195 6.98242 0.920958C8.43705 2.00625 9.65481 3.37707 10.5611 4.94945C11.4675 6.52184 12.0432 8.26268 12.2533 10.0654C12.2927 10.3427 12.4133 10.6023 12.5999 10.8113C12.7864 11.0204 13.0306 11.1696 13.3017 11.2403C13.7321 11.3614 14.17 11.4539 14.6127 11.5173ZM20.0503 10.901C21.0242 10.5436 21.952 10.0713 22.8141 9.49421C22.4188 7.27404 21.3804 5.21876 19.8278 3.58331C18.2751 1.94786 16.2765 0.804207 14.0798 0.294208C16.3201 2.98735 17.7359 6.26956 18.1575 9.74721C18.1833 9.95893 18.2567 10.1621 18.3723 10.3414C18.4878 10.5206 18.6424 10.6715 18.8245 10.7825C19.0066 10.8935 19.2115 10.9618 19.4238 10.9824C19.6361 11.0029 19.8502 10.9751 20.0503 10.901ZM16.1 19.1609C13.7395 19.2001 11.3906 18.8235 9.16072 18.0483C8.98121 17.9827 8.79003 17.9551 8.5993 17.9672C8.40856 17.9793 8.22243 18.031 8.05269 18.1188C7.88295 18.2067 7.73331 18.3288 7.61324 18.4775C7.49318 18.6262 7.40532 18.7982 7.35522 18.9827C7.09851 19.994 6.98273 21.036 7.01117 22.079C9.2916 23.0484 11.8244 23.2542 14.2314 22.6658C16.6384 22.0773 18.7905 20.7262 20.3665 18.814C18.9606 19.0805 17.5304 19.1968 16.1 19.1609ZM10.35 10.374C10.2892 9.80857 10.1857 9.24859 10.0405 8.69879C9.97769 8.47053 9.85826 8.26182 9.69324 8.09207C9.52824 7.92231 9.323 7.79701 9.09661 7.72779C8.87021 7.65857 8.63 7.64768 8.39827 7.69614C8.16654 7.7446 7.95082 7.85082 7.77113 8.00496C5.00844 10.4302 3.03849 13.6299 2.11696 17.1887C2.07014 17.4555 2.04037 17.725 2.02784 17.9956C2.85046 19.1919 3.89077 20.2228 5.09451 21.0345C5.19685 19.2187 5.66955 17.4431 6.48353 15.8168C7.29751 14.1904 8.43556 12.7478 9.82771 11.5776C10.0067 11.4351 10.1479 11.2508 10.2389 11.0409C10.33 10.831 10.3681 10.602 10.35 10.374ZM7.44338 3.93204C6.74944 3.16854 5.95394 2.50396 5.07917 1.95692C2.95491 3.37596 1.36677 5.46522 0.567837 7.89171C-0.231095 10.3182 -0.194835 12.9423 0.67084 15.3458C1.91243 11.637 4.20103 8.36685 7.26034 5.93017C7.40787 5.81401 7.53018 5.669 7.6198 5.504C7.70943 5.339 7.76448 5.15746 7.78161 4.97047C7.79874 4.78348 7.77759 4.59497 7.71943 4.41643C7.66128 4.23789 7.56735 4.07307 7.44338 3.93204Z" fill="#CE3BD0"/>
</svg>
