<svg width="22" height="22" viewBox="0 0 22 22" fill="none" xmlns="http://www.w3.org/2000/svg">
<g clip-path="url(#clip0_100_2360)">
<path d="M14.2727 1.83333H7.72774C8.04819 1.27699 8.50935 0.814717 9.06493 0.492924C9.6205 0.171131 10.251 0.00113541 10.893 0L11.1075 0C11.7495 0.00113541 12.38 0.171131 12.9355 0.492924C13.4911 0.814717 13.9523 1.27699 14.2727 1.83333ZM18.7919 12.8333H18.3336V14.6667C18.3336 14.9098 18.237 15.1429 18.0651 15.3148C17.8932 15.4868 17.66 15.5833 17.4169 15.5833C17.1738 15.5833 16.9406 15.4868 16.7687 15.3148C16.5968 15.1429 16.5002 14.9098 16.5002 14.6667V12.8333H5.50024V14.6667C5.50024 14.9098 5.40366 15.1429 5.23175 15.3148C5.05984 15.4868 4.82669 15.5833 4.58357 15.5833C4.34046 15.5833 4.1073 15.4868 3.93539 15.3148C3.76348 15.1429 3.66691 14.9098 3.66691 14.6667V12.8333H3.20857C2.39829 12.8317 1.61756 13.1375 1.02386 13.6889C0.430158 14.2403 0.0676718 14.9964 0.00952025 15.8046C-0.0486313 16.6128 0.201879 17.413 0.71052 18.0437C1.21916 18.6744 1.94808 19.0888 2.75024 19.2032V20.1667C2.75024 20.6529 2.94339 21.1192 3.28721 21.463C3.63103 21.8068 4.09734 22 4.58357 22C5.0698 22 5.53612 21.8068 5.87993 21.463C6.22375 21.1192 6.41691 20.6529 6.41691 20.1667V19.25H15.5836V20.1667C15.5836 20.6529 15.7767 21.1192 16.1205 21.463C16.4644 21.8068 16.9307 22 17.4169 22C17.9031 22 18.3694 21.8068 18.7133 21.463C19.0571 21.1192 19.2502 20.6529 19.2502 20.1667V19.2051C20.0104 19.1035 20.708 18.7298 21.2137 18.1531C21.7193 17.5765 21.9988 16.8361 22.0002 16.0692V16.0417C22.0002 15.1908 21.6622 14.3747 21.0605 13.773C20.4589 13.1714 19.6428 12.8333 18.7919 12.8333ZM1.49257 11.4501C2.1789 11.1528 2.91896 10.9996 3.66691 11H18.3336C19.0815 10.9996 19.8216 11.1528 20.5079 11.4501L19.0926 6.89242C18.8061 5.95598 18.2258 5.13666 17.4375 4.5557C16.6492 3.97473 15.6947 3.66301 14.7155 3.66667H7.28499C6.30585 3.66295 5.35152 3.97454 4.56322 4.55533C3.77491 5.13611 3.19452 5.95524 2.90791 6.8915L1.49257 11.4501Z" fill="#F0CC2E"/>
</g>
<defs>
<clipPath id="clip0_100_2360">
<rect width="22" height="22" fill="white"/>
</clipPath>
</defs>
</svg>
