<svg width="22" height="22" viewBox="0 0 22 22" fill="none" xmlns="http://www.w3.org/2000/svg">
<path d="M14.2715 1.83333H7.72648C8.04693 1.27699 8.50809 0.814717 9.06367 0.492924C9.61924 0.171131 10.2497 0.00113541 10.8917 0L11.1062 0C11.7483 0.00113541 12.3787 0.171131 12.9343 0.492924C13.4899 0.814717 13.951 1.27699 14.2715 1.83333ZM18.7906 12.8333H18.3323V14.6667C18.3323 14.9098 18.2357 15.1429 18.0638 15.3148C17.8919 15.4868 17.6588 15.5833 17.4156 15.5833C17.1725 15.5833 16.9394 15.4868 16.7675 15.3148C16.5956 15.1429 16.499 14.9098 16.499 14.6667V12.8333H5.49898V14.6667C5.49898 14.9098 5.4024 15.1429 5.23049 15.3148C5.05858 15.4868 4.82543 15.5833 4.58231 15.5833C4.3392 15.5833 4.10604 15.4868 3.93413 15.3148C3.76222 15.1429 3.66564 14.9098 3.66564 14.6667V12.8333H3.20731C2.39703 12.8317 1.6163 13.1375 1.0226 13.6889C0.428897 14.2403 0.0664111 14.9964 0.00825949 15.8046C-0.0498921 16.6128 0.200619 17.413 0.709259 18.0437C1.2179 18.6744 1.94682 19.0888 2.74898 19.2032V20.1667C2.74898 20.6529 2.94213 21.1192 3.28595 21.463C3.62977 21.8068 4.09608 22 4.58231 22C5.06854 22 5.53486 21.8068 5.87867 21.463C6.22249 21.1192 6.41564 20.6529 6.41564 20.1667V19.25H15.5823V20.1667C15.5823 20.6529 15.7755 21.1192 16.1193 21.463C16.4631 21.8068 16.9294 22 17.4156 22C17.9019 22 18.3682 21.8068 18.712 21.463C19.0558 21.1192 19.249 20.6529 19.249 20.1667V19.2051C20.0092 19.1035 20.7067 18.7298 21.2124 18.1531C21.7181 17.5765 21.9975 16.8361 21.999 16.0692V16.0417C21.999 15.1908 21.661 14.3747 21.0593 13.773C20.4576 13.1714 19.6415 12.8333 18.7906 12.8333ZM1.49131 11.4501C2.17764 11.1528 2.9177 10.9996 3.66564 11H18.3323C19.0803 10.9996 19.8203 11.1528 20.5066 11.4501L19.0913 6.89242C18.8049 5.95598 18.2245 5.13666 17.4362 4.5557C16.6479 3.97473 15.6935 3.66301 14.7142 3.66667H7.28373C6.30459 3.66295 5.35026 3.97454 4.56196 4.55533C3.77365 5.13611 3.19326 5.95524 2.90664 6.8915L1.49131 11.4501Z" fill="#F0CC2E"/>
</svg>
