<svg width="16" height="16" viewBox="0 0 16 16" fill="none" xmlns="http://www.w3.org/2000/svg">
<path fill-rule="evenodd" clip-rule="evenodd" d="M4.21333 1.71809C6.72933 1.426 9.27067 1.426 11.7867 1.71809C12.7847 1.83409 13.5 2.69142 13.5 3.67142V14.0001C13.4999 14.0852 13.478 14.1689 13.4365 14.2433C13.395 14.3176 13.3352 14.3801 13.2627 14.4248C13.1903 14.4696 13.1076 14.4951 13.0225 14.4989C12.9375 14.5027 12.8528 14.4848 12.7767 14.4468L8 12.0594L3.22333 14.4481C3.14705 14.4862 3.0623 14.5041 2.97713 14.5002C2.89197 14.4963 2.80921 14.4707 2.73673 14.4258C2.66425 14.3809 2.60445 14.3182 2.56301 14.2437C2.52158 14.1692 2.49989 14.0853 2.5 14.0001V3.67142C2.5 2.69142 3.21533 1.83409 4.21333 1.71809Z" fill="#CBD5E1"/>
</svg>
