<svg width="17" height="17" viewBox="0 0 17 17" fill="none" xmlns="http://www.w3.org/2000/svg">
<path d="M9.56251 2.87576C9.56251 1.92943 8.41784 1.45556 7.74917 2.12493L4.56167 5.31243H3.19317C2.38496 5.31243 1.55126 5.78276 1.30901 6.66181C1.14466 7.26066 1.06174 7.87893 1.06251 8.49993C1.06251 9.13601 1.14821 9.75226 1.31042 10.3381C1.55196 11.2164 2.38567 11.6874 3.19388 11.6874H4.56096L7.74846 14.8749C8.41784 15.5443 9.56251 15.0704 9.56251 14.1241V2.87576ZM13.1637 3.61668C13.2633 3.51719 13.3983 3.46131 13.5391 3.46131C13.6799 3.46131 13.8149 3.51719 13.9145 3.61668C16.6118 6.31331 16.6118 10.6858 13.9145 13.3832C13.8138 13.477 13.6806 13.5281 13.543 13.5257C13.4053 13.5233 13.274 13.4675 13.1767 13.3702C13.0794 13.2728 13.0236 13.1415 13.0212 13.0039C13.0187 12.8663 13.0698 12.7331 13.1637 12.6323C13.7064 12.0897 14.1369 11.4455 14.4306 10.7364C14.7244 10.0274 14.8755 9.2674 14.8755 8.49993C14.8755 7.73246 14.7244 6.9725 14.4306 6.26345C14.1369 5.55441 13.7064 4.91017 13.1637 4.36751C13.0642 4.2679 13.0083 4.13288 13.0083 3.9921C13.0083 3.85132 13.0642 3.71629 13.1637 3.61668Z" fill="#2EC4B6"/>
<path d="M11.2852 5.49459C11.3345 5.44522 11.3931 5.40606 11.4575 5.37934C11.522 5.35262 11.5911 5.33887 11.6609 5.33887C11.7307 5.33887 11.7998 5.35262 11.8643 5.37934C11.9288 5.40606 11.9874 5.44522 12.0367 5.49459C12.4314 5.88925 12.7445 6.35779 12.9582 6.87347C13.1718 7.38916 13.2817 7.94187 13.2817 8.50005C13.2817 9.05822 13.1718 9.61094 12.9582 10.1266C12.7445 10.6423 12.4314 11.1108 12.0367 11.5055C11.9365 11.6022 11.8022 11.6557 11.6629 11.6544C11.5236 11.6532 11.3904 11.5972 11.292 11.4987C11.1935 11.4001 11.1377 11.2669 11.1366 11.1276C11.1354 10.9883 11.189 10.8541 11.2859 10.754C11.5818 10.458 11.8166 10.1066 11.9768 9.71986C12.137 9.33313 12.2195 8.91864 12.2195 8.50005C12.2195 8.08145 12.137 7.66696 11.9768 7.28023C11.8166 6.89351 11.5818 6.54212 11.2859 6.24613C11.1864 6.14652 11.1305 6.01149 11.1305 5.87071C11.1305 5.72993 11.1864 5.59491 11.2859 5.4953L11.2852 5.49459Z" fill="#2EC4B6"/>
</svg>
