<svg width="29" height="29" viewBox="0 0 29 29" fill="none" xmlns="http://www.w3.org/2000/svg">
<rect opacity="0.2" width="29" height="29" rx="5" fill="#2EC4B6"/>
<path d="M15.5625 8.87576C15.5625 7.92943 14.4178 7.45556 13.7492 8.12493L10.5617 11.3124H9.19317C8.38496 11.3124 7.55126 11.7828 7.30901 12.6618C7.14466 13.2607 7.06174 13.8789 7.06251 14.4999C7.06251 15.136 7.14821 15.7523 7.31042 16.3381C7.55196 17.2164 8.38567 17.6874 9.19388 17.6874H10.561L13.7485 20.8749C14.4178 21.5443 15.5625 21.0704 15.5625 20.1241V8.87576ZM19.1637 9.61668C19.2633 9.51719 19.3983 9.46131 19.5391 9.46131C19.6799 9.46131 19.8149 9.51719 19.9145 9.61668C22.6118 12.3133 22.6118 16.6858 19.9145 19.3832C19.8138 19.477 19.6806 19.5281 19.543 19.5257C19.4053 19.5233 19.274 19.4675 19.1767 19.3702C19.0794 19.2728 19.0236 19.1415 19.0212 19.0039C19.0187 18.8663 19.0698 18.7331 19.1637 18.6323C19.7064 18.0897 20.1369 17.4455 20.4306 16.7364C20.7244 16.0274 20.8755 15.2674 20.8755 14.4999C20.8755 13.7325 20.7244 12.9725 20.4306 12.2635C20.1369 11.5544 19.7064 10.9102 19.1637 10.3675C19.0642 10.2679 19.0083 10.1329 19.0083 9.9921C19.0083 9.85132 19.0642 9.71629 19.1637 9.61668Z" fill="#2EC4B6"/>
<path d="M17.2852 11.4946C17.3345 11.4452 17.3931 11.4061 17.4575 11.3793C17.522 11.3526 17.5911 11.3389 17.6609 11.3389C17.7307 11.3389 17.7998 11.3526 17.8643 11.3793C17.9288 11.4061 17.9874 11.4452 18.0367 11.4946C18.4314 11.8892 18.7445 12.3578 18.9582 12.8735C19.1718 13.3892 19.2817 13.9419 19.2817 14.5C19.2817 15.0582 19.1718 15.6109 18.9582 16.1266C18.7445 16.6423 18.4314 17.1108 18.0367 17.5055C17.9365 17.6022 17.8022 17.6557 17.6629 17.6544C17.5236 17.6532 17.3904 17.5972 17.292 17.4987C17.1935 17.4001 17.1377 17.2669 17.1366 17.1276C17.1354 16.9883 17.189 16.8541 17.2859 16.754C17.5818 16.458 17.8166 16.1066 17.9768 15.7199C18.137 15.3331 18.2195 14.9186 18.2195 14.5C18.2195 14.0815 18.137 13.667 17.9768 13.2802C17.8166 12.8935 17.5818 12.5421 17.2859 12.2461C17.1864 12.1465 17.1305 12.0115 17.1305 11.8707C17.1305 11.7299 17.1864 11.5949 17.2859 11.4953L17.2852 11.4946Z" fill="#2EC4B6"/>
</svg>
