<svg width="11" height="13" viewBox="0 0 11 13" fill="none" xmlns="http://www.w3.org/2000/svg">
<path fill-rule="evenodd" clip-rule="evenodd" d="M1.71333 0.219067C4.22933 -0.0730222 6.77067 -0.0730222 9.28667 0.219067C10.2847 0.335067 11 1.1924 11 2.1724V12.5011C10.9999 12.5862 10.978 12.6699 10.9365 12.7442C10.895 12.8186 10.8352 12.8811 10.7627 12.9258C10.6903 12.9705 10.6076 12.996 10.5225 12.9999C10.4375 13.0037 10.3528 12.9858 10.2767 12.9477L5.5 10.5604L0.723334 12.9491C0.647054 12.9871 0.562303 13.0051 0.477135 13.0012C0.391967 12.9973 0.30921 12.9717 0.236728 12.9268C0.164247 12.8819 0.104448 12.8192 0.0630149 12.7447C0.0215815 12.6702 -0.00011041 12.5863 4.2259e-07 12.5011V2.1724C4.2259e-07 1.1924 0.715334 0.335067 1.71333 0.219067Z" fill="#CBD5E1"/>
</svg>
